<?xml version="1.0" standalone="no"?>
<!DOCTYPE svg PUBLIC "-//W3C//DTD SVG 1.1//EN" "http://www.w3.org/Graphics/SVG/1.1/DTD/svg11.dtd" >
<svg>
<metadata>
Created by FontForge 20090622 at Mon Jun 11 07:18:06 2018
 By deploy user
Copyright &#194;&#169; 2015 by Wei Huang. All rights reserved.
</metadata>
<defs>
<font id="WorkSans-Thin" horiz-adv-x="604" >
  <font-face 
    font-family="Work Sans Thin"
    font-weight="260"
    font-stretch="normal"
    units-per-em="1000"
    panose-1="0 0 3 0 0 0 0 0 0 0"
    ascent="800"
    descent="-200"
    x-height="500"
    cap-height="660"
    bbox="-326 -329 1180 930"
    underline-thickness="50"
    underline-position="-50"
    unicode-range="U+0020-U+FB02"
  />
<missing-glyph horiz-adv-x="500" 
d="M50 660h400v-660h-400v660zM370 80v500h-240v-500h240z" />
    <glyph glyph-name="fi" unicode="fi" horiz-adv-x="506" 
d="M159 684.5q-31 -36.5 -31 -101.5v-83h186v-14h-186v-486h-16v486h-100v14h100v83q0 71 35.5 111.5t97.5 40.5q49 0 77 -31l-7 -12q-13 16 -29.5 22.5t-40.5 6.5q-55 0 -86 -36.5zM397 604q-6 6 -6 16t6 16t16 6t16 -6t6 -16t-6 -16t-16 -6t-16 6zM421 0h-16v500h16v-500z
" />
    <glyph glyph-name="fl" unicode="fl" horiz-adv-x="557" 
d="M159 684.5q-31 -36.5 -31 -101.5v-83h186v-14h-186v-486h-16v486h-100v14h100v83q0 71 35.5 111.5t97.5 40.5q49 0 77 -31l-7 -12q-13 16 -29.5 22.5t-40.5 6.5q-55 0 -86 -36.5zM417 107q0 -54 18 -78.5t55 -24.5q21 0 33 3t25 9v-14q-22 -12 -58 -12q-45 0 -67 28
t-22 89v623h16v-623z" />
    <glyph glyph-name=".notdef" horiz-adv-x="500" 
d="M50 660h400v-660h-400v660zM370 80v500h-240v-500h240z" />
    <glyph glyph-name="space" unicode=" " horiz-adv-x="281" 
 />
    <glyph glyph-name="A" unicode="A" horiz-adv-x="586" 
d="M460 234h-334l-97 -234h-17l272 660h18l272 -660h-17zM454 248l-144 348l-17 46l-17 -45l-144 -349h322z" />
    <glyph glyph-name="Aacute" unicode="&#xc1;" horiz-adv-x="586" 
d="M307 743h-15l75 148h18zM460 234h-334l-97 -234h-17l272 660h18l272 -660h-17zM454 248l-144 348l-17 46l-17 -45l-144 -349h322z" />
    <glyph glyph-name="Abreve" unicode="&#x102;" horiz-adv-x="586" 
d="M460 234h-334l-97 -234h-17l272 660h18l272 -660h-17zM454 248l-144 348l-17 46l-17 -45l-144 -349h322zM382 773q-32 -32 -89 -32t-89 32t-32 89h14q0 -49 29 -78t78 -29t78 29t29 78h14q0 -57 -32 -89z" />
    <glyph glyph-name="Acircumflex" unicode="&#xc2;" horiz-adv-x="586" 
d="M191 743h-17l109 142h20l109 -142h-17l-102 129zM460 234h-334l-97 -234h-17l272 660h18l272 -660h-17zM454 248l-144 348l-17 46l-17 -45l-144 -349h322z" />
    <glyph glyph-name="Adieresis" unicode="&#xc4;" horiz-adv-x="586" 
d="M460 234h-334l-97 -234h-17l272 660h18l272 -660h-17zM454 248l-144 348l-17 46l-17 -45l-144 -349h322zM216 796q6 -6 6 -16t-6 -16t-16 -6t-16 6t-6 16t6 16t16 6t16 -6zM400 796q6 -6 6 -16t-6 -16t-16 -6t-16 6t-6 16t6 16t16 6t16 -6z" />
    <glyph glyph-name="Agrave" unicode="&#xc0;" horiz-adv-x="586" 
d="M276 743l-78 148h18l75 -148h-15zM460 234h-334l-97 -234h-17l272 660h18l272 -660h-17zM454 248l-144 348l-17 46l-17 -45l-144 -349h322z" />
    <glyph glyph-name="Amacron" unicode="&#x100;" horiz-adv-x="586" 
d="M460 234h-334l-97 -234h-17l272 660h18l272 -660h-17zM454 248l-144 348l-17 46l-17 -45l-144 -349h322zM437 765h-288v14h288v-14z" />
    <glyph glyph-name="Aogonek" unicode="&#x104;" horiz-adv-x="586" 
d="M587 -181q-31 -21 -72 -21q-38 0 -63 20.5t-25 57.5q0 40 29 70.5t99 58.5l-95 229h-334l-97 -234h-17l272 660h18l272 -660q-72 -28 -102 -57t-30 -67q0 -31 20.5 -47.5t52.5 -16.5q41 0 66 20zM454 248l-144 348l-17 46l-17 -45l-144 -349h322z" />
    <glyph glyph-name="Aring" unicode="&#xc5;" horiz-adv-x="586" 
d="M460 234h-334l-97 -234h-17l267 647q-26 5 -42 23t-16 46q0 31 20 50.5t52 19.5t52 -19.5t20 -50.5q0 -28 -16 -46t-42 -23l267 -647h-17zM252.5 675.5q15.5 -15.5 40.5 -15.5q26 0 41 15.5t15 40.5q0 26 -15 41t-41 15q-25 0 -40.5 -15t-15.5 -41q0 -25 15.5 -40.5z
M454 248l-144 348l-17 46l-17 -45l-144 -349h322z" />
    <glyph glyph-name="Atilde" unicode="&#xc3;" horiz-adv-x="586" 
d="M460 234h-334l-97 -234h-17l272 660h18l272 -660h-17zM454 248l-144 348l-17 46l-17 -45l-144 -349h322zM424 779q-20 -20 -57 -20q-27 0 -43.5 9t-35.5 27q-18 17 -32 25t-36 8q-32 0 -46.5 -16.5t-22.5 -53.5h-15q8 44 28 64t57 20q27 0 43.5 -9t35.5 -27
q16 -16 30.5 -24.5t36.5 -8.5q32 0 47 16.5t23 53.5h15q-8 -44 -28 -64z" />
    <glyph glyph-name="AE" unicode="&#xc6;" horiz-adv-x="885" 
d="M855 14v-14h-417v254h-264l-159 -254h-23l420 660h427v-14h-385v-304h308v-14h-308v-314h401zM438 268v378h-18l-237 -378h255z" />
    <glyph glyph-name="B" unicode="B" horiz-adv-x="609" 
d="M99 660h232q100 0 151 -42.5t51 -124.5q0 -131 -132 -159v-1q72 -10 111.5 -52t39.5 -112q0 -83 -56 -126t-165 -43h-232v660zM331 340q92 0 139 38t47 114t-47.5 115t-138.5 39h-216v-306h216zM331 14q101 0 153 39.5t52 116.5q0 78 -51.5 117t-153.5 39h-216v-312h216z
" />
    <glyph glyph-name="C" unicode="C" horiz-adv-x="649" 
d="M517 36q-68 -46 -168 -46q-87 0 -153.5 41.5t-103 118.5t-36.5 180t36.5 180t102.5 118.5t154 41.5q207 0 256 -174l-15 -7q-25 84 -84.5 125.5t-156.5 41.5q-83 0 -145.5 -40t-97 -113.5t-34.5 -172.5t34.5 -172.5t97.5 -113.5t145 -40q94 0 158.5 43.5t87.5 123.5
l15 -6q-25 -83 -93 -129z" />
    <glyph glyph-name="Cacute" unicode="&#x106;" horiz-adv-x="649" 
d="M431 891l-78 -148h-15l75 148h18zM517 36q-68 -46 -168 -46q-87 0 -153.5 41.5t-103 118.5t-36.5 180t36.5 180t102.5 118.5t154 41.5q207 0 256 -174l-15 -7q-25 84 -84.5 125.5t-156.5 41.5q-83 0 -145.5 -40t-97 -113.5t-34.5 -172.5t34.5 -172.5t97.5 -113.5t145 -40
q94 0 158.5 43.5t87.5 123.5l15 -6q-25 -83 -93 -129z" />
    <glyph glyph-name="Ccaron" unicode="&#x10c;" horiz-adv-x="649" 
d="M349 743h-20l-109 142h17l102 -129l102 129h17zM517 36q-68 -46 -168 -46q-87 0 -153.5 41.5t-103 118.5t-36.5 180t36.5 180t102.5 118.5t154 41.5q207 0 256 -174l-15 -7q-25 84 -84.5 125.5t-156.5 41.5q-83 0 -145.5 -40t-97 -113.5t-34.5 -172.5t34.5 -172.5
t97.5 -113.5t145 -40q94 0 158.5 43.5t87.5 123.5l15 -6q-25 -83 -93 -129z" />
    <glyph glyph-name="Ccedilla" unicode="&#xc7;" horiz-adv-x="649" 
d="M519 37q-67 -46 -164 -47q45 -25 63 -50t18 -58q0 -37 -24.5 -60.5t-63.5 -23.5q-32 0 -54.5 9.5t-39.5 32.5l8 12q18 -23 38.5 -32t47.5 -9q32 0 52.5 19.5t20.5 50.5q0 30 -19 55t-70 54q-83 4 -145.5 47t-96.5 118t-34 175q0 103 36.5 180t102.5 118.5t154 41.5
q207 0 256 -174l-15 -7q-25 84 -84.5 125.5t-156.5 41.5q-83 0 -145.5 -40t-97 -113.5t-34.5 -172.5t34.5 -172.5t97.5 -113.5t145 -40q94 0 158.5 43.5t87.5 123.5l15 -6q-24 -82 -91 -128z" />
    <glyph glyph-name="D" unicode="D" horiz-adv-x="684" 
d="M544.5 579q82.5 -81 82.5 -239q0 -167 -82.5 -253.5t-242.5 -86.5h-203v660h203q160 0 242.5 -81zM532.5 96.5q78.5 82.5 78.5 243.5q0 151 -78.5 228.5t-230.5 77.5h-187v-632h187q152 0 230.5 82.5z" />
    <glyph glyph-name="Eth" unicode="&#xd0;" horiz-adv-x="691" 
d="M552.5 579q82.5 -81 82.5 -239q0 -167 -82.5 -253.5t-242.5 -86.5h-203v327h-102v14h102v319h203q160 0 242.5 -81zM540.5 96.5q78.5 82.5 78.5 243.5q0 151 -78.5 228.5t-230.5 77.5h-187v-305h207v-14h-207v-313h187q152 0 230.5 82.5z" />
    <glyph glyph-name="Dcaron" unicode="&#x10e;" horiz-adv-x="684" 
d="M299 743l-109 142h17l102 -129l102 129h17l-109 -142h-20zM544.5 579q82.5 -81 82.5 -239q0 -167 -82.5 -253.5t-242.5 -86.5h-203v660h203q160 0 242.5 -81zM532.5 96.5q78.5 82.5 78.5 243.5q0 151 -78.5 228.5t-230.5 77.5h-187v-632h187q152 0 230.5 82.5z" />
    <glyph glyph-name="Dcroat" unicode="&#x110;" horiz-adv-x="691" 
d="M552.5 579q82.5 -81 82.5 -239q0 -167 -82.5 -253.5t-242.5 -86.5h-203v327h-102v14h102v319h203q160 0 242.5 -81zM540.5 96.5q78.5 82.5 78.5 243.5q0 151 -78.5 228.5t-230.5 77.5h-187v-305h207v-14h-207v-313h187q152 0 230.5 82.5z" />
    <glyph glyph-name="E" unicode="E" horiz-adv-x="583" 
d="M553 14v-14h-454v660h437v-14h-421v-302h338v-14h-338v-316h438z" />
    <glyph glyph-name="Eacute" unicode="&#xc9;" horiz-adv-x="583" 
d="M321 743h-15l75 148h18zM553 14v-14h-454v660h437v-14h-421v-302h338v-14h-338v-316h438z" />
    <glyph glyph-name="Ecaron" unicode="&#x11a;" horiz-adv-x="583" 
d="M307 743l-109 142h17l102 -129l102 129h17l-109 -142h-20zM553 14v-14h-454v660h437v-14h-421v-302h338v-14h-338v-316h438z" />
    <glyph glyph-name="Ecircumflex" unicode="&#xca;" horiz-adv-x="583" 
d="M215 743h-17l109 142h20l109 -142h-17l-102 129zM553 14v-14h-454v660h437v-14h-421v-302h338v-14h-338v-316h438z" />
    <glyph glyph-name="Edieresis" unicode="&#xcb;" horiz-adv-x="583" 
d="M553 14v-14h-454v660h437v-14h-421v-302h338v-14h-338v-316h438zM240 796q6 -6 6 -16t-6 -16t-16 -6t-16 6t-6 16t6 16t16 6t16 -6zM424 796q6 -6 6 -16t-6 -16t-16 -6t-16 6t-6 16t6 16t16 6t16 -6z" />
    <glyph glyph-name="Edotaccent" unicode="&#x116;" horiz-adv-x="583" 
d="M553 14v-14h-454v660h437v-14h-421v-302h338v-14h-338v-316h438zM333 796q6 -6 6 -16t-6 -16t-16 -6t-16 6t-6 16t6 16t16 6t16 -6z" />
    <glyph glyph-name="Egrave" unicode="&#xc8;" horiz-adv-x="583" 
d="M320 743l-78 148h18l75 -148h-15zM553 14v-14h-454v660h437v-14h-421v-302h338v-14h-338v-316h438z" />
    <glyph glyph-name="Emacron" unicode="&#x112;" horiz-adv-x="583" 
d="M553 14v-14h-454v660h437v-14h-421v-302h338v-14h-338v-316h438zM461 765h-288v14h288v-14z" />
    <glyph glyph-name="Eogonek" unicode="&#x118;" horiz-adv-x="583" 
d="M566 -181q-15 -10 -31 -15.5t-41 -5.5q-38 0 -63 20.5t-25 57.5q0 38 26.5 68t90.5 56h-424v660h437v-14h-421v-302h338v-14h-338v-316h438v-14q-72 -28 -102 -57t-30 -67q0 -31 20.5 -47.5t52.5 -16.5q41 0 66 20z" />
    <glyph glyph-name="F" unicode="F" horiz-adv-x="554" 
d="M115 646v-302h338v-14h-338v-330h-16v660h436v-14h-420z" />
    <glyph glyph-name="G" unicode="G" horiz-adv-x="676" 
d="M610 311v-311h-16v159q-20 -79 -84 -124t-165 -45q-87 0 -152.5 41.5t-101 118.5t-35.5 180t36.5 180t102.5 118.5t154 41.5q207 0 256 -174l-14 -7q-25 84 -85 125.5t-157 41.5q-83 0 -145.5 -40t-97 -113.5t-34.5 -172.5t34 -172.5t95.5 -113.5t143.5 -40q92 0 148 39
t78.5 94t22.5 107v53h-241v14h257z" />
    <glyph glyph-name="Gbreve" unicode="&#x11e;" horiz-adv-x="676" 
d="M610 311v-311h-16v159q-20 -79 -84 -124t-165 -45q-87 0 -152.5 41.5t-101 118.5t-35.5 180t36.5 180t102.5 118.5t154 41.5q207 0 256 -174l-14 -7q-25 84 -85 125.5t-157 41.5q-83 0 -145.5 -40t-97 -113.5t-34.5 -172.5t34 -172.5t95.5 -113.5t143.5 -40q92 0 148 39
t78.5 94t22.5 107v53h-241v14h257zM432 773q-32 -32 -89 -32t-89 32t-32 89h14q0 -49 29 -78t78 -29t78 29t29 78h14q0 -57 -32 -89z" />
    <glyph glyph-name="H" unicode="H" horiz-adv-x="696" 
d="M597 660v-660h-16v330h-466v-330h-16v660h16v-316h466v316h16z" />
    <glyph glyph-name="I" unicode="I" horiz-adv-x="214" 
d="M115 0h-16v660h16v-660z" />
    <glyph glyph-name="IJ" unicode="&#x132;" horiz-adv-x="712" 
d="M115 0h-16v660h16v-660zM620 209q0 -102 -50 -160.5t-144 -58.5q-87 0 -135 46t-48 125q0 18 3 39l16 8q-3 -22 -3 -43q0 -78 43.5 -119.5t123.5 -41.5q87 0 132.5 54.5t45.5 150.5v451h16v-451z" />
    <glyph glyph-name="Iacute" unicode="&#xcd;" horiz-adv-x="214" 
d="M199 891l-78 -148h-15l75 148h18zM115 0h-16v660h16v-660z" />
    <glyph glyph-name="Icircumflex" unicode="&#xce;" horiz-adv-x="214" 
d="M209 743l-102 129l-102 -129h-17l109 142h20l109 -142h-17zM115 0h-16v660h16v-660z" />
    <glyph glyph-name="Idieresis" unicode="&#xcf;" horiz-adv-x="214" 
d="M64 796q6 -6 6 -16t-6 -16t-16 -6t-16 6t-6 16t6 16t16 6t16 -6zM182 796q6 -6 6 -16t-6 -16t-16 -6t-16 6t-6 16t6 16t16 6t16 -6zM115 0h-16v660h16v-660z" />
    <glyph glyph-name="Idotaccent" unicode="&#x130;" horiz-adv-x="214" 
d="M115 0h-16v660h16v-660zM123 796q6 -6 6 -16t-6 -16t-16 -6t-16 6t-6 16t6 16t16 6t16 -6z" />
    <glyph glyph-name="Igrave" unicode="&#xcc;" horiz-adv-x="214" 
d="M105 743h-15l-78 148h18zM115 0h-16v660h16v-660z" />
    <glyph glyph-name="Imacron" unicode="&#x12a;" horiz-adv-x="214" 
d="M216 765h-218v14h218v-14zM115 0h-16v660h16v-660z" />
    <glyph glyph-name="Iogonek" unicode="&#x12e;" horiz-adv-x="214" 
d="M151 -180q-17 -12 -31 -17t-33 -5q-35 0 -60 22.5t-25 59.5q0 33 21.5 60t75.5 64v656h16v-660q-56 -39 -77 -64t-21 -56t20.5 -49.5t49.5 -18.5q19 0 31.5 4.5t26.5 16.5z" />
    <glyph glyph-name="J" unicode="J" horiz-adv-x="498" 
d="M406 209q0 -102 -50 -160.5t-144 -58.5q-87 0 -135 46t-48 125q0 18 3 39l16 8q-3 -22 -3 -43q0 -78 43.5 -119.5t123.5 -41.5q87 0 132.5 54.5t45.5 150.5v451h16v-451z" />
    <glyph glyph-name="K" unicode="K" horiz-adv-x="557" 
d="M263 384l-148 -150v-234h-16v660h16v-403l396 403h23l-259 -264l269 -396h-21z" />
    <glyph glyph-name="L" unicode="L" horiz-adv-x="543" 
d="M531 14v-14h-432v660h16v-646h416z" />
    <glyph glyph-name="Lacute" unicode="&#x139;" horiz-adv-x="543" 
d="M121 743h-15l75 148h18zM531 14v-14h-432v660h16v-646h416z" />
    <glyph glyph-name="Lcaron" unicode="&#x13d;" horiz-adv-x="543" 
d="M249 503h-14l26 197h17zM531 14v-14h-432v660h16v-646h416z" />
    <glyph glyph-name="Ldot" unicode="&#x13f;" horiz-adv-x="563" 
d="M531 14v-14h-432v660h16v-646h416zM503 351q6 -6 6 -16t-6 -16t-16 -6t-16 6t-6 16t6 16t16 6t16 -6z" />
    <glyph glyph-name="Lslash" unicode="&#x141;" horiz-adv-x="554" 
d="M542 14v-14h-432v276l-101 -64v20l101 64v364h16v-353l208 132v-20l-208 -132v-273h416z" />
    <glyph glyph-name="M" unicode="M" horiz-adv-x="786" 
d="M687 0h-16v580l1 57l-269 -637h-20l-269 637l1 -57v-580h-16v660h21l261 -612l12 -29l12 28l261 613h21v-660z" />
    <glyph glyph-name="N" unicode="N" horiz-adv-x="694" 
d="M595 0h-22l-433 605l-26 39l1 -57v-587h-16v660h22l433 -605l26 -39l-1 57v587h16v-660z" />
    <glyph glyph-name="Nacute" unicode="&#x143;" horiz-adv-x="694" 
d="M445 891l-78 -148h-15l75 148h18zM595 0h-22l-433 605l-26 39l1 -57v-587h-16v660h22l433 -605l26 -39l-1 57v587h16v-660z" />
    <glyph glyph-name="Ncaron" unicode="&#x147;" horiz-adv-x="694" 
d="M363 743h-20l-109 142h17l102 -129l102 129h17zM595 0h-22l-433 605l-26 39l1 -57v-587h-16v660h22l433 -605l26 -39l-1 57v587h16v-660z" />
    <glyph glyph-name="Ntilde" unicode="&#xd1;" horiz-adv-x="694" 
d="M595 0h-22l-433 605l-26 39l1 -57v-587h-16v660h22l433 -605l26 -39l-1 57v587h16v-660zM484 779q-20 -20 -57 -20q-27 0 -43.5 9t-35.5 27q-18 17 -32 25t-36 8q-32 0 -46.5 -16.5t-22.5 -53.5h-15q8 44 28 64t57 20q27 0 43.5 -9t35.5 -27q16 -16 30.5 -24.5t36.5 -8.5
q32 0 47 16.5t23 53.5h15q-8 -44 -28 -64z" />
    <glyph glyph-name="O" unicode="O" horiz-adv-x="714" 
d="M517 628.5q68 -41.5 104.5 -118t36.5 -180.5t-36.5 -180.5t-104.5 -118t-160 -41.5t-160 41.5t-104.5 118t-36.5 180.5t36.5 180.5t104.5 118t160 41.5t160 -41.5zM205.5 616q-64.5 -40 -99 -113.5t-34.5 -172.5t34.5 -172.5t99 -113.5t151.5 -40t151.5 40t99 113.5
t34.5 172.5t-34.5 172.5t-99 113.5t-151.5 40t-151.5 -40z" />
    <glyph glyph-name="Oacute" unicode="&#xd3;" horiz-adv-x="714" 
d="M449 891l-78 -148h-15l75 148h18zM517 628.5q68 -41.5 104.5 -118t36.5 -180.5t-36.5 -180.5t-104.5 -118t-160 -41.5t-160 41.5t-104.5 118t-36.5 180.5t36.5 180.5t104.5 118t160 41.5t160 -41.5zM205.5 616q-64.5 -40 -99 -113.5t-34.5 -172.5t34.5 -172.5t99 -113.5
t151.5 -40t151.5 40t99 113.5t34.5 172.5t-34.5 172.5t-99 113.5t-151.5 40t-151.5 -40z" />
    <glyph glyph-name="Ocircumflex" unicode="&#xd4;" horiz-adv-x="714" 
d="M459 743l-102 129l-102 -129h-17l109 142h20l109 -142h-17zM517 628.5q68 -41.5 104.5 -118t36.5 -180.5t-36.5 -180.5t-104.5 -118t-160 -41.5t-160 41.5t-104.5 118t-36.5 180.5t36.5 180.5t104.5 118t160 41.5t160 -41.5zM205.5 616q-64.5 -40 -99 -113.5
t-34.5 -172.5t34.5 -172.5t99 -113.5t151.5 -40t151.5 40t99 113.5t34.5 172.5t-34.5 172.5t-99 113.5t-151.5 40t-151.5 -40z" />
    <glyph glyph-name="Odieresis" unicode="&#xd6;" horiz-adv-x="714" 
d="M517 628.5q68 -41.5 104.5 -118t36.5 -180.5t-36.5 -180.5t-104.5 -118t-160 -41.5t-160 41.5t-104.5 118t-36.5 180.5t36.5 180.5t104.5 118t160 41.5t160 -41.5zM205.5 616q-64.5 -40 -99 -113.5t-34.5 -172.5t34.5 -172.5t99 -113.5t151.5 -40t151.5 40t99 113.5
t34.5 172.5t-34.5 172.5t-99 113.5t-151.5 40t-151.5 -40zM280 796q6 -6 6 -16t-6 -16t-16 -6t-16 6t-6 16t6 16t16 6t16 -6zM464 796q6 -6 6 -16t-6 -16t-16 -6t-16 6t-6 16t6 16t16 6t16 -6z" />
    <glyph glyph-name="Ograve" unicode="&#xd2;" horiz-adv-x="714" 
d="M355 743h-15l-78 148h18zM517 628.5q68 -41.5 104.5 -118t36.5 -180.5t-36.5 -180.5t-104.5 -118t-160 -41.5t-160 41.5t-104.5 118t-36.5 180.5t36.5 180.5t104.5 118t160 41.5t160 -41.5zM205.5 616q-64.5 -40 -99 -113.5t-34.5 -172.5t34.5 -172.5t99 -113.5
t151.5 -40t151.5 40t99 113.5t34.5 172.5t-34.5 172.5t-99 113.5t-151.5 40t-151.5 -40z" />
    <glyph glyph-name="Ohungarumlaut" unicode="&#x150;" horiz-adv-x="714" 
d="M378 891l-78 -148h-15l75 148h18zM496 891l-78 -148h-15l75 148h18zM517 628.5q68 -41.5 104.5 -118t36.5 -180.5t-36.5 -180.5t-104.5 -118t-160 -41.5t-160 41.5t-104.5 118t-36.5 180.5t36.5 180.5t104.5 118t160 41.5t160 -41.5zM205.5 616q-64.5 -40 -99 -113.5
t-34.5 -172.5t34.5 -172.5t99 -113.5t151.5 -40t151.5 40t99 113.5t34.5 172.5t-34.5 172.5t-99 113.5t-151.5 40t-151.5 -40z" />
    <glyph glyph-name="Omacron" unicode="&#x14c;" horiz-adv-x="714" 
d="M517 628.5q68 -41.5 104.5 -118t36.5 -180.5t-36.5 -180.5t-104.5 -118t-160 -41.5t-160 41.5t-104.5 118t-36.5 180.5t36.5 180.5t104.5 118t160 41.5t160 -41.5zM205.5 616q-64.5 -40 -99 -113.5t-34.5 -172.5t34.5 -172.5t99 -113.5t151.5 -40t151.5 40t99 113.5
t34.5 172.5t-34.5 172.5t-99 113.5t-151.5 40t-151.5 -40zM501 765h-288v14h288v-14z" />
    <glyph glyph-name="Oslash" unicode="&#xd8;" horiz-adv-x="714" 
d="M633 483.5q25 -67.5 25 -153.5q0 -104 -36.5 -180.5t-104.5 -118t-160 -41.5q-115 0 -191 64l-60 -84h-20l69 94q-48 45 -73.5 112.5t-25.5 153.5q0 104 36.5 180.5t104.5 118t160 41.5q114 0 191 -63l60 83h20l-68 -94q48 -45 73 -112.5zM95.5 183.5
q23.5 -64.5 68.5 -107.5l375 518q-74 62 -182 62q-87 0 -151.5 -40t-99 -113.5t-34.5 -172.5q0 -82 23.5 -146.5zM508.5 44q64.5 40 99 113.5t34.5 172.5q0 82 -23.5 146.5t-68.5 107.5l-375 -518q73 -62 182 -62q87 0 151.5 40z" />
    <glyph glyph-name="Otilde" unicode="&#xd5;" horiz-adv-x="714" 
d="M517 628.5q68 -41.5 104.5 -118t36.5 -180.5t-36.5 -180.5t-104.5 -118t-160 -41.5t-160 41.5t-104.5 118t-36.5 180.5t36.5 180.5t104.5 118t160 41.5t160 -41.5zM205.5 616q-64.5 -40 -99 -113.5t-34.5 -172.5t34.5 -172.5t99 -113.5t151.5 -40t151.5 40t99 113.5
t34.5 172.5t-34.5 172.5t-99 113.5t-151.5 40t-151.5 -40zM488 779q-20 -20 -57 -20q-27 0 -43.5 9t-35.5 27q-18 17 -32 25t-36 8q-32 0 -46.5 -16.5t-22.5 -53.5h-15q8 44 28 64t57 20q27 0 43.5 -9t35.5 -27q16 -16 30.5 -24.5t36.5 -8.5q32 0 47 16.5t23 53.5h15
q-8 -44 -28 -64z" />
    <glyph glyph-name="OE" unicode="&#x152;" horiz-adv-x="1050" 
d="M1020 14v-14h-428v187q-23 -99 -85.5 -148t-169.5 -49q-84 0 -148 41.5t-98.5 118.5t-34.5 180t34.5 180t98.5 118.5t148 41.5q107 0 169.5 -49t85.5 -148v187h411v-14h-395v-302h323v-14h-323v-316h412zM531.5 83.5q60.5 79.5 60.5 246.5t-60.5 246.5t-194.5 79.5
q-79 0 -139 -40t-93 -113.5t-33 -172.5t33 -172.5t93 -113.5t139 -40q134 0 194.5 79.5z" />
    <glyph glyph-name="P" unicode="P" horiz-adv-x="561" 
d="M468.5 611q59.5 -49 59.5 -136t-59.5 -135.5t-165.5 -48.5h-188v-291h-16v660h204q106 0 165.5 -49zM456.5 350q55.5 45 55.5 125t-55.5 125.5t-153.5 45.5h-188v-341h188q98 0 153.5 45z" />
    <glyph glyph-name="Thorn" unicode="&#xde;" horiz-adv-x="567" 
d="M468 478.5q59 -46.5 59 -138.5t-59 -138.5t-174 -46.5h-179v-155h-16v660h16v-135h179q115 0 174 -46.5zM458.5 212q52.5 43 52.5 128t-52.5 128t-155.5 43h-188v-342h188q103 0 155.5 43z" />
    <glyph glyph-name="Q" unicode="Q" horiz-adv-x="714" 
d="M640 -144l8 -13q-40 -38 -112 -38q-76 0 -125.5 49t-54.5 136q-91 0 -159 41.5t-104.5 118t-36.5 180.5t36.5 180.5t104.5 118t160 41.5t160 -41.5t104.5 -118t36.5 -180.5q0 -101 -35 -177t-100 -118t-153 -45q5 -82 50 -126.5t116 -44.5q68 0 104 37zM106.5 157.5
q34.5 -73.5 99 -113.5t151.5 -40t151.5 40t99 113.5t34.5 172.5t-34.5 172.5t-99 113.5t-151.5 40t-151.5 -40t-99 -113.5t-34.5 -172.5t34.5 -172.5z" />
    <glyph glyph-name="R" unicode="R" horiz-adv-x="611" 
d="M558 0l-200 301q-6 -1 -20 -1h-223v-300h-16v660h239q97 0 153 -48t56 -132q0 -75 -45 -121.5t-125 -56.5l199 -302h-18zM338 314q91 0 142 44t51 122t-51 122t-142 44h-223v-332h223z" />
    <glyph glyph-name="Racute" unicode="&#x154;" horiz-adv-x="611" 
d="M307 743h-15l75 148h18zM558 0l-200 301q-6 -1 -20 -1h-223v-300h-16v660h239q97 0 153 -48t56 -132q0 -75 -45 -121.5t-125 -56.5l199 -302h-18zM338 314q91 0 142 44t51 122t-51 122t-142 44h-223v-332h223z" />
    <glyph glyph-name="Rcaron" unicode="&#x158;" horiz-adv-x="611" 
d="M283 743l-109 142h17l102 -129l102 129h17l-109 -142h-20zM558 0l-200 301q-6 -1 -20 -1h-223v-300h-16v660h239q97 0 153 -48t56 -132q0 -75 -45 -121.5t-125 -56.5l199 -302h-18zM338 314q91 0 142 44t51 122t-51 122t-142 44h-223v-332h223z" />
    <glyph glyph-name="S" unicode="S" horiz-adv-x="594" 
d="M536 517l-13 -10q-39 149 -228 149q-65 0 -115 -21.5t-77 -59t-27 -83.5q0 -44 22 -73.5t74 -50.5t144 -37q85 -15 136 -36.5t73.5 -54t22.5 -80.5q0 -49 -30.5 -88t-84.5 -60.5t-124 -21.5q-108 0 -179.5 44t-87.5 132l15 8q13 -84 81.5 -127t170.5 -43q96 0 159.5 41.5
t63.5 114.5q0 63 -49.5 99t-169.5 56q-96 16 -151 38.5t-78.5 55.5t-23.5 83q0 48 28.5 88.5t82 65t124.5 24.5q196 0 241 -153z" />
    <glyph glyph-name="Sacute" unicode="&#x15a;" horiz-adv-x="594" 
d="M382 891l-78 -148h-15l75 148h18zM536 517l-13 -10q-39 149 -228 149q-65 0 -115 -21.5t-77 -59t-27 -83.5q0 -44 22 -73.5t74 -50.5t144 -37q85 -15 136 -36.5t73.5 -54t22.5 -80.5q0 -49 -30.5 -88t-84.5 -60.5t-124 -21.5q-108 0 -179.5 44t-87.5 132l15 8
q13 -84 81.5 -127t170.5 -43q96 0 159.5 41.5t63.5 114.5q0 63 -49.5 99t-169.5 56q-96 16 -151 38.5t-78.5 55.5t-23.5 83q0 48 28.5 88.5t82 65t124.5 24.5q196 0 241 -153z" />
    <glyph glyph-name="Scaron" unicode="&#x160;" horiz-adv-x="594" 
d="M300 743h-20l-109 142h17l102 -129l102 129h17zM536 517l-13 -10q-39 149 -228 149q-65 0 -115 -21.5t-77 -59t-27 -83.5q0 -44 22 -73.5t74 -50.5t144 -37q85 -15 136 -36.5t73.5 -54t22.5 -80.5q0 -49 -30.5 -88t-84.5 -60.5t-124 -21.5q-108 0 -179.5 44t-87.5 132
l15 8q13 -84 81.5 -127t170.5 -43q96 0 159.5 41.5t63.5 114.5q0 63 -49.5 99t-169.5 56q-96 16 -151 38.5t-78.5 55.5t-23.5 83q0 48 28.5 88.5t82 65t124.5 24.5q196 0 241 -153z" />
    <glyph glyph-name="uni1E9E" unicode="&#x1e9e;" horiz-adv-x="639" 
d="M545 304.5q50 -39.5 50 -124.5q0 -83 -51.5 -134t-137.5 -51q-53 0 -94 17.5t-56 42.5l11 12q16 -26 51.5 -42.5t87.5 -16.5q77 0 125 48t48 124q0 78 -45.5 114t-142.5 36h-92v14l243 302h-231q-90 0 -143 -56t-53 -148v-442h-16v443q0 99 56.5 158t155.5 59h249v-15
l-243 -301h74q104 0 154 -39.5z" />
    <glyph glyph-name="T" unicode="T" horiz-adv-x="544" 
d="M533 646h-253v-646h-16v646h-253v14h522v-14z" />
    <glyph glyph-name="Tcaron" unicode="&#x164;" horiz-adv-x="544" 
d="M262 743l-109 142h17l102 -129l102 129h17l-109 -142h-20zM533 646h-253v-646h-16v646h-253v14h522v-14z" />
    <glyph glyph-name="U" unicode="U" horiz-adv-x="680" 
d="M589 235q0 -117 -65.5 -181t-183.5 -64t-183.5 64t-65.5 181v425h16v-425q0 -110 61.5 -170.5t171.5 -60.5t171.5 60.5t61.5 170.5v425h16v-425z" />
    <glyph glyph-name="Uacute" unicode="&#xda;" horiz-adv-x="680" 
d="M432 891l-78 -148h-15l75 148h18zM589 235q0 -117 -65.5 -181t-183.5 -64t-183.5 64t-65.5 181v425h16v-425q0 -110 61.5 -170.5t171.5 -60.5t171.5 60.5t61.5 170.5v425h16v-425z" />
    <glyph glyph-name="Ucircumflex" unicode="&#xdb;" horiz-adv-x="680" 
d="M442 743l-102 129l-102 -129h-17l109 142h20l109 -142h-17zM589 235q0 -117 -65.5 -181t-183.5 -64t-183.5 64t-65.5 181v425h16v-425q0 -110 61.5 -170.5t171.5 -60.5t171.5 60.5t61.5 170.5v425h16v-425z" />
    <glyph glyph-name="Udieresis" unicode="&#xdc;" horiz-adv-x="680" 
d="M589 235q0 -117 -65.5 -181t-183.5 -64t-183.5 64t-65.5 181v425h16v-425q0 -110 61.5 -170.5t171.5 -60.5t171.5 60.5t61.5 170.5v425h16v-425zM263 796q6 -6 6 -16t-6 -16t-16 -6t-16 6t-6 16t6 16t16 6t16 -6zM447 796q6 -6 6 -16t-6 -16t-16 -6t-16 6t-6 16t6 16
t16 6t16 -6z" />
    <glyph glyph-name="Ugrave" unicode="&#xd9;" horiz-adv-x="680" 
d="M358 743h-15l-78 148h18zM589 235q0 -117 -65.5 -181t-183.5 -64t-183.5 64t-65.5 181v425h16v-425q0 -110 61.5 -170.5t171.5 -60.5t171.5 60.5t61.5 170.5v425h16v-425z" />
    <glyph glyph-name="Uhungarumlaut" unicode="&#x170;" horiz-adv-x="680" 
d="M368 891l-78 -148h-15l75 148h18zM486 891l-78 -148h-15l75 148h18zM589 235q0 -117 -65.5 -181t-183.5 -64t-183.5 64t-65.5 181v425h16v-425q0 -110 61.5 -170.5t171.5 -60.5t171.5 60.5t61.5 170.5v425h16v-425z" />
    <glyph glyph-name="Umacron" unicode="&#x16a;" horiz-adv-x="680" 
d="M589 235q0 -117 -65.5 -181t-183.5 -64t-183.5 64t-65.5 181v425h16v-425q0 -110 61.5 -170.5t171.5 -60.5t171.5 60.5t61.5 170.5v425h16v-425zM484 765h-288v14h288v-14z" />
    <glyph glyph-name="Uogonek" unicode="&#x172;" horiz-adv-x="680" 
d="M589 660v-425q0 -98 -46.5 -159.5t-131.5 -78.5q-64 -30 -90 -58t-26 -63q0 -31 20.5 -47.5t52.5 -16.5q46 0 71 20l6 -13q-14 -10 -31.5 -15.5t-45.5 -5.5q-38 0 -63 20.5t-25 57.5q0 35 22 62.5t74 53.5q-24 -2 -36 -2q-118 0 -183.5 64t-65.5 181v425h16v-425
q0 -110 61.5 -170.5t171.5 -60.5t171.5 60.5t61.5 170.5v425h16z" />
    <glyph glyph-name="Uring" unicode="&#x16e;" horiz-adv-x="680" 
d="M589 235q0 -117 -65.5 -181t-183.5 -64t-183.5 64t-65.5 181v425h16v-425q0 -110 61.5 -170.5t171.5 -60.5t171.5 60.5t61.5 170.5v425h16v-425zM398.5 783q23.5 -23 23.5 -57t-23.5 -57t-58.5 -23t-58.5 23t-23.5 57t23.5 57t58.5 23t58.5 -23zM293 773q-19 -19 -19 -47
t19 -47t47 -19t47 19t19 47t-19 47t-47 19t-47 -19z" />
    <glyph glyph-name="V" unicode="V" horiz-adv-x="576" 
d="M299 0h-22l-260 660h17l227 -573l27 -69l27 69l227 573h17z" />
    <glyph glyph-name="W" unicode="W" horiz-adv-x="909" 
d="M262 0h-21l-218 660h17l212 -644l192 644h21l192 -644l212 644h17l-218 -660h-21l-192 638h-1l-40 -136z" />
    <glyph glyph-name="X" unicode="X" horiz-adv-x="526" 
d="M489 0l-226 326l-230 -326h-21l241 342l-220 318h20l210 -304l215 304h22l-226 -320l235 -340h-20z" />
    <glyph glyph-name="Y" unicode="Y" horiz-adv-x="512" 
d="M264 256v-256h-16v256l-232 404h19l221 -387l221 387h19z" />
    <glyph glyph-name="Yacute" unicode="&#xdd;" horiz-adv-x="512" 
d="M348 891l-78 -148h-15l75 148h18zM264 256v-256h-16v256l-232 404h19l221 -387l221 387h19z" />
    <glyph glyph-name="Ydieresis" unicode="&#x178;" horiz-adv-x="512" 
d="M264 256v-256h-16v256l-232 404h19l221 -387l221 387h19zM179 796q6 -6 6 -16t-6 -16t-16 -6t-16 6t-6 16t6 16t16 6t16 -6zM363 796q6 -6 6 -16t-6 -16t-16 -6t-16 6t-6 16t6 16t16 6t16 -6z" />
    <glyph glyph-name="Z" unicode="Z" horiz-adv-x="552" 
d="M528 14v-14h-499v14l461 632h-454v14h472v-14l-461 -632h481z" />
    <glyph glyph-name="Zacute" unicode="&#x179;" horiz-adv-x="552" 
d="M291 743h-15l75 148h18zM528 14v-14h-499v14l461 632h-454v14h472v-14l-461 -632h481z" />
    <glyph glyph-name="Zcaron" unicode="&#x17d;" horiz-adv-x="552" 
d="M267 743l-109 142h17l102 -129l102 129h17l-109 -142h-20zM528 14v-14h-499v14l461 632h-454v14h472v-14l-461 -632h481z" />
    <glyph glyph-name="Zdotaccent" unicode="&#x17b;" horiz-adv-x="552" 
d="M528 14v-14h-499v14l461 632h-454v14h472v-14l-461 -632h481zM293 796q6 -6 6 -16t-6 -16t-16 -6t-16 6t-6 16t6 16t16 6t16 -6z" />
    <glyph glyph-name="uni0122" unicode="&#x122;" horiz-adv-x="676" 
d="M610 311v-311h-16v159q-20 -79 -84 -124t-165 -45q-87 0 -152.5 41.5t-101 118.5t-35.5 180t36.5 180t102.5 118.5t154 41.5q207 0 256 -174l-14 -7q-25 84 -85 125.5t-157 41.5q-83 0 -145.5 -40t-97 -113.5t-34.5 -172.5t34 -172.5t95.5 -113.5t143.5 -40q92 0 148 39
t78.5 94t22.5 107v53h-241v14h257zM303 -229h-13l50 161h18z" />
    <glyph glyph-name="uni0136" unicode="&#x136;" horiz-adv-x="557" 
d="M263 384l-148 -150v-234h-16v660h16v-403l396 403h23l-259 -264l269 -396h-21zM271 -229h-13l50 161h18z" />
    <glyph glyph-name="uni013B" unicode="&#x13b;" horiz-adv-x="543" 
d="M531 14v-14h-432v660h16v-646h416zM283 -229h-13l50 161h18z" />
    <glyph glyph-name="uni0145" unicode="&#x145;" horiz-adv-x="694" 
d="M595 0h-22l-433 605l-26 39l1 -57v-587h-16v660h22l433 -605l26 -39l-1 57v587h16v-660zM299 -229h-13l50 161h18z" />
    <glyph glyph-name="uni0156" unicode="&#x156;" horiz-adv-x="611" 
d="M558 0l-200 301q-6 -1 -20 -1h-223v-300h-16v660h239q97 0 153 -48t56 -132q0 -75 -45 -121.5t-125 -56.5l199 -302h-18zM338 314q91 0 142 44t51 122t-51 122t-142 44h-223v-332h223zM298 -229h-13l50 161h18z" />
    <glyph glyph-name="uni015E" unicode="&#x15e;" horiz-adv-x="594" 
d="M517.5 72q-30.5 -39 -84.5 -60.5t-124 -21.5h-11q45 -25 63 -50t18 -58q0 -37 -24.5 -60.5t-63.5 -23.5q-32 0 -54.5 9.5t-39.5 32.5l8 12q18 -23 38.5 -32t47.5 -9q32 0 52.5 19.5t20.5 50.5q0 30 -19.5 55.5t-71.5 54.5q-94 7 -155 51t-76 124l15 8q13 -84 81.5 -127
t170.5 -43q96 0 159.5 41.5t63.5 114.5q0 63 -49.5 99t-169.5 56q-96 16 -151 38.5t-78.5 55.5t-23.5 83q0 48 28.5 88.5t82 65t124.5 24.5q196 0 241 -153l-13 -10q-39 149 -228 149q-65 0 -115 -21.5t-77 -59t-27 -83.5q0 -44 22 -73.5t74 -50.5t144 -37q85 -15 136 -36.5
t73.5 -54t22.5 -80.5q0 -49 -30.5 -88z" />
    <glyph glyph-name="uni0162" unicode="&#x162;" horiz-adv-x="544" 
d="M280 646v-644q43 -26 63 -53.5t20 -65.5t-24.5 -61.5t-64.5 -23.5q-33 0 -55 11.5t-38 32.5l9 10q17 -21 36 -31t48 -10q34 0 54 20t20 52q0 36 -20 62.5t-64 54.5v646h-253v14h522v-14h-253z" />
    <glyph glyph-name="uni0218" unicode="&#x218;" horiz-adv-x="594" 
d="M536 517l-13 -10q-39 149 -228 149q-65 0 -115 -21.5t-77 -59t-27 -83.5q0 -44 22 -73.5t74 -50.5t144 -37q85 -15 136 -36.5t73.5 -54t22.5 -80.5q0 -49 -30.5 -88t-84.5 -60.5t-124 -21.5q-108 0 -179.5 44t-87.5 132l15 8q13 -84 81.5 -127t170.5 -43q96 0 159.5 41.5
t63.5 114.5q0 63 -49.5 99t-169.5 56q-96 16 -151 38.5t-78.5 55.5t-23.5 83q0 48 28.5 88.5t82 65t124.5 24.5q196 0 241 -153zM263 -229h-13l50 161h18z" />
    <glyph glyph-name="uni021A" unicode="&#x21a;" horiz-adv-x="544" 
d="M533 646h-253v-646h-16v646h-253v14h522v-14zM228 -229h-13l50 161h18z" />
    <glyph glyph-name="E.swsh.001" horiz-adv-x="687" 
d="M652.5 229.5q24.5 -34.5 24.5 -90.5q0 -139 -173 -139h-405v660h484v-14h-468v-302h288v-14h-288v-316h384q81 0 121.5 29.5t40.5 95.5q0 52 -23 84t-68 41l11 11q47 -11 71.5 -45.5z" />
    <glyph glyph-name="Eacute.swsh.001" horiz-adv-x="687" 
d="M371 743h-15l75 148h18zM652.5 229.5q24.5 -34.5 24.5 -90.5q0 -139 -173 -139h-405v660h484v-14h-468v-302h288v-14h-288v-316h384q81 0 121.5 29.5t40.5 95.5q0 52 -23 84t-68 41l11 11q47 -11 71.5 -45.5z" />
    <glyph glyph-name="Ecaron.swsh.001" horiz-adv-x="687" 
d="M347 743l-109 142h17l102 -129l102 129h17l-109 -142h-20zM652.5 229.5q24.5 -34.5 24.5 -90.5q0 -139 -173 -139h-405v660h484v-14h-468v-302h288v-14h-288v-316h384q81 0 121.5 29.5t40.5 95.5q0 52 -23 84t-68 41l11 11q47 -11 71.5 -45.5z" />
    <glyph glyph-name="Ecircumflex.swsh.001" horiz-adv-x="687" 
d="M255 743h-17l109 142h20l109 -142h-17l-102 129zM652.5 229.5q24.5 -34.5 24.5 -90.5q0 -139 -173 -139h-405v660h484v-14h-468v-302h288v-14h-288v-316h384q81 0 121.5 29.5t40.5 95.5q0 52 -23 84t-68 41l11 11q47 -11 71.5 -45.5z" />
    <glyph glyph-name="Edieresis.swsh.001" horiz-adv-x="687" 
d="M652.5 229.5q24.5 -34.5 24.5 -90.5q0 -139 -173 -139h-405v660h484v-14h-468v-302h288v-14h-288v-316h384q81 0 121.5 29.5t40.5 95.5q0 52 -23 84t-68 41l11 11q47 -11 71.5 -45.5zM280 796q6 -6 6 -16t-6 -16t-16 -6t-16 6t-6 16t6 16t16 6t16 -6zM464 796q6 -6 6 -16
t-6 -16t-16 -6t-16 6t-6 16t6 16t16 6t16 -6z" />
    <glyph glyph-name="Edotaccent.swsh.001" horiz-adv-x="687" 
d="M652.5 229.5q24.5 -34.5 24.5 -90.5q0 -139 -173 -139h-405v660h484v-14h-468v-302h288v-14h-288v-316h384q81 0 121.5 29.5t40.5 95.5q0 52 -23 84t-68 41l11 11q47 -11 71.5 -45.5zM373 796q6 -6 6 -16t-6 -16t-16 -6t-16 6t-6 16t6 16t16 6t16 -6z" />
    <glyph glyph-name="Egrave.swsh.001" horiz-adv-x="687" 
d="M340 743l-78 148h18l75 -148h-15zM652.5 229.5q24.5 -34.5 24.5 -90.5q0 -139 -173 -139h-405v660h484v-14h-468v-302h288v-14h-288v-316h384q81 0 121.5 29.5t40.5 95.5q0 52 -23 84t-68 41l11 11q47 -11 71.5 -45.5z" />
    <glyph glyph-name="Emacron.swsh.001" horiz-adv-x="687" 
d="M652.5 229.5q24.5 -34.5 24.5 -90.5q0 -139 -173 -139h-405v660h484v-14h-468v-302h288v-14h-288v-316h384q81 0 121.5 29.5t40.5 95.5q0 52 -23 84t-68 41l11 11q47 -11 71.5 -45.5zM501 765h-288v14h288v-14z" />
    <glyph glyph-name="M.swsh.001" horiz-adv-x="1000" 
d="M901 660v-660h-16v580l1 57l-269 -637h-20l-269 637l1 -57v-580h-16v646h-125q-80 0 -121 -35t-41 -109q0 -57 31 -93t86 -48l-11 -11q-57 12 -89.5 50.5t-32.5 101.5q0 79 44 118.5t129 39.5h151l261 -612l12 -29l12 28l261 613h21z" />
    <glyph glyph-name="R.swsh.001" horiz-adv-x="664" 
d="M664 -92l-7 -12q-64 16 -105 75l-223 329h-214v-300h-16v660h239q97 0 153 -48t56 -132q0 -82 -53.5 -130t-146.5 -50l221 -324q39 -55 96 -68zM115 314h223q91 0 142 44t51 122t-51 122t-142 44h-223v-332z" />
    <glyph glyph-name="Racute.swsh.001" horiz-adv-x="664" 
d="M307 743h-15l75 148h18zM664 -92l-7 -12q-64 16 -105 75l-223 329h-214v-300h-16v660h239q97 0 153 -48t56 -132q0 -82 -53.5 -130t-146.5 -50l221 -324q39 -55 96 -68zM115 314h223q91 0 142 44t51 122t-51 122t-142 44h-223v-332z" />
    <glyph glyph-name="Rcaron.swsh.001" horiz-adv-x="664" 
d="M283 743l-109 142h17l102 -129l102 129h17l-109 -142h-20zM664 -92l-7 -12q-64 16 -105 75l-223 329h-214v-300h-16v660h239q97 0 153 -48t56 -132q0 -82 -53.5 -130t-146.5 -50l221 -324q39 -55 96 -68zM115 314h223q91 0 142 44t51 122t-51 122t-142 44h-223v-332z" />
    <glyph glyph-name="Rcommaaccent.swsh.001" horiz-adv-x="664" 
d="M664 -92l-7 -12q-64 16 -105 75l-223 329h-214v-300h-16v660h239q97 0 153 -48t56 -132q0 -82 -53.5 -130t-146.5 -50l221 -324q39 -55 96 -68zM115 314h223q91 0 142 44t51 122t-51 122t-142 44h-223v-332zM298 -229h-13l50 161h18z" />
    <glyph glyph-name="Iacute_J.loclNLD" horiz-adv-x="712" 
d="M199 891l-78 -148h-15l75 148h18zM703 891l-78 -148h-15l75 148h18zM115 0h-16v660h16v-660zM620 209q0 -102 -50 -160.5t-144 -58.5q-87 0 -135 46t-48 125q0 18 3 39l16 8q-3 -22 -3 -43q0 -78 43.5 -119.5t123.5 -41.5q87 0 132.5 54.5t45.5 150.5v451h16v-451z" />
    <glyph glyph-name="R.ss03" horiz-adv-x="612" 
d="M99 660h239q97 0 153 -48t56 -132q0 -71 -40.5 -116t-107.5 -55v-1q65 -10 97.5 -47.5t34.5 -100.5t6 -95.5t8.5 -42.5t11.5 -20v-2h-18q-9 16 -15.5 47t-8.5 110q-2 68 -43.5 105.5t-120.5 37.5h-236v-300h-16v660zM338 314q91 0 142 44t51 122t-51 122t-142 44h-223
v-332h223z" />
    <glyph glyph-name="Racute.ss03" horiz-adv-x="612" 
d="M385 891l-78 -148h-15l75 148h18zM99 660h239q97 0 153 -48t56 -132q0 -71 -40.5 -116t-107.5 -55v-1q65 -10 97.5 -47.5t34.5 -100.5t6 -95.5t8.5 -42.5t11.5 -20v-2h-18q-9 16 -15.5 47t-8.5 110q-2 68 -43.5 105.5t-120.5 37.5h-236v-300h-16v660zM338 314
q91 0 142 44t51 122t-51 122t-142 44h-223v-332h223z" />
    <glyph glyph-name="Rcaron.ss03" horiz-adv-x="612" 
d="M303 743h-20l-109 142h17l102 -129l102 129h17zM99 660h239q97 0 153 -48t56 -132q0 -71 -40.5 -116t-107.5 -55v-1q65 -10 97.5 -47.5t34.5 -100.5t6 -95.5t8.5 -42.5t11.5 -20v-2h-18q-9 16 -15.5 47t-8.5 110q-2 68 -43.5 105.5t-120.5 37.5h-236v-300h-16v660z
M338 314q91 0 142 44t51 122t-51 122t-142 44h-223v-332h223z" />
    <glyph glyph-name="Rcommaaccent.ss03" horiz-adv-x="612" 
d="M99 660h239q97 0 153 -48t56 -132q0 -71 -40.5 -116t-107.5 -55v-1q65 -10 97.5 -47.5t34.5 -100.5t6 -95.5t8.5 -42.5t11.5 -20v-2h-18q-9 16 -15.5 47t-8.5 110q-2 68 -43.5 105.5t-120.5 37.5h-236v-300h-16v660zM338 314q91 0 142 44t51 122t-51 122t-142 44h-223
v-332h223zM298 -229h-13l50 161h18z" />
    <glyph glyph-name="G.ss04" horiz-adv-x="656" 
d="M616 311v-17q0 -131 -63 -217.5t-206 -86.5q-88 0 -153.5 41.5t-101.5 118.5t-36 180t36.5 180t102.5 118.5t154 41.5q207 0 256 -174l-14 -7q-25 84 -85 125.5t-157 41.5q-83 0 -145.5 -40t-97 -113.5t-34.5 -172.5t34 -172.5t96 -113.5t145 -40q142 0 197 88t56 205
h-247v14h263z" />
    <glyph glyph-name="Gbreve.ss04" horiz-adv-x="656" 
d="M616 311v-17q0 -131 -63 -217.5t-206 -86.5q-88 0 -153.5 41.5t-101.5 118.5t-36 180t36.5 180t102.5 118.5t154 41.5q207 0 256 -174l-14 -7q-25 84 -85 125.5t-157 41.5q-83 0 -145.5 -40t-97 -113.5t-34.5 -172.5t34 -172.5t96 -113.5t145 -40q142 0 197 88t56 205
h-247v14h263zM432 773q-32 -32 -89 -32t-89 32t-32 89h14q0 -49 29 -78t78 -29t78 29t29 78h14q0 -57 -32 -89z" />
    <glyph glyph-name="Gcommaaccent.ss04" horiz-adv-x="656" 
d="M616 311v-17q0 -131 -63 -217.5t-206 -86.5q-88 0 -153.5 41.5t-101.5 118.5t-36 180t36.5 180t102.5 118.5t154 41.5q207 0 256 -174l-14 -7q-25 84 -85 125.5t-157 41.5q-83 0 -145.5 -40t-97 -113.5t-34.5 -172.5t34 -172.5t96 -113.5t145 -40q142 0 197 88t56 205
h-247v14h263zM303 -229h-13l50 161h18z" />
    <glyph glyph-name="IJ.ss05" horiz-adv-x="570" 
d="M478 209q0 -102 -50.5 -160.5t-145.5 -58.5q-97 0 -142 43t-45 130h16q0 -78 41.5 -118.5t129.5 -40.5q87 0 133.5 55t46.5 150v451h16v-451zM115 262h-16v398h16v-398z" />
    <glyph glyph-name="Iacute_J.loclNLD.ss05" horiz-adv-x="561" 
d="M191 891l-78 -148h-15l75 148h18zM553 891l-78 -148h-15l75 148h18zM470 209q0 -102 -50.5 -160.5t-145.5 -58.5q-97 0 -142 43t-45 130h16q0 -78 41.5 -118.5t129.5 -40.5q87 0 133.5 55t46.5 150v451h16v-451zM107 262h-16v398h16v-398z" />
    <glyph glyph-name="A.swsh" horiz-adv-x="874" 
d="M748 234h-334l-88 -214q-30 -71 -65 -100.5t-96 -29.5q-73 0 -114 34t-41 108l14 7q0 -72 36 -103.5t103 -31.5q39 0 64.5 11.5t45.5 39.5t42 81l251 610h-234q-80 0 -121 -35t-41 -109q0 -57 31 -93t86 -48l-11 -11q-57 12 -89.5 50.5t-32.5 101.5q0 79 44 118.5
t129 39.5h263l272 -660h-17zM742 248l-144 348l-17 46l-17 -45l-144 -349h322z" />
    <glyph glyph-name="Aacute.swsh" horiz-adv-x="874" 
d="M595 743h-15l75 148h18zM748 234h-334l-88 -214q-30 -71 -65 -100.5t-96 -29.5q-73 0 -114 34t-41 108l14 7q0 -72 36 -103.5t103 -31.5q39 0 64.5 11.5t45.5 39.5t42 81l251 610h-234q-80 0 -121 -35t-41 -109q0 -57 31 -93t86 -48l-11 -11q-57 12 -89.5 50.5
t-32.5 101.5q0 79 44 118.5t129 39.5h263l272 -660h-17zM742 248l-144 348l-17 46l-17 -45l-144 -349h322z" />
    <glyph glyph-name="Abreve.swsh" horiz-adv-x="874" 
d="M748 234h-334l-88 -214q-30 -71 -65 -100.5t-96 -29.5q-73 0 -114 34t-41 108l14 7q0 -72 36 -103.5t103 -31.5q39 0 64.5 11.5t45.5 39.5t42 81l251 610h-234q-80 0 -121 -35t-41 -109q0 -57 31 -93t86 -48l-11 -11q-57 12 -89.5 50.5t-32.5 101.5q0 79 44 118.5
t129 39.5h263l272 -660h-17zM742 248l-144 348l-17 46l-17 -45l-144 -349h322zM670 773q-32 -32 -89 -32t-89 32t-32 89h14q0 -49 29 -78t78 -29t78 29t29 78h14q0 -57 -32 -89z" />
    <glyph glyph-name="Acircumflex.swsh" horiz-adv-x="874" 
d="M479 743h-17l109 142h20l109 -142h-17l-102 129zM748 234h-334l-88 -214q-30 -71 -65 -100.5t-96 -29.5q-73 0 -114 34t-41 108l14 7q0 -72 36 -103.5t103 -31.5q39 0 64.5 11.5t45.5 39.5t42 81l251 610h-234q-80 0 -121 -35t-41 -109q0 -57 31 -93t86 -48l-11 -11
q-57 12 -89.5 50.5t-32.5 101.5q0 79 44 118.5t129 39.5h263l272 -660h-17zM742 248l-144 348l-17 46l-17 -45l-144 -349h322z" />
    <glyph glyph-name="Adieresis.swsh" horiz-adv-x="874" 
d="M748 234h-334l-88 -214q-30 -71 -65 -100.5t-96 -29.5q-73 0 -114 34t-41 108l14 7q0 -72 36 -103.5t103 -31.5q39 0 64.5 11.5t45.5 39.5t42 81l251 610h-234q-80 0 -121 -35t-41 -109q0 -57 31 -93t86 -48l-11 -11q-57 12 -89.5 50.5t-32.5 101.5q0 79 44 118.5
t129 39.5h263l272 -660h-17zM742 248l-144 348l-17 46l-17 -45l-144 -349h322zM504 796q6 -6 6 -16t-6 -16t-16 -6t-16 6t-6 16t6 16t16 6t16 -6zM688 796q6 -6 6 -16t-6 -16t-16 -6t-16 6t-6 16t6 16t16 6t16 -6z" />
    <glyph glyph-name="Agrave.swsh" horiz-adv-x="874" 
d="M564 743l-78 148h18l75 -148h-15zM748 234h-334l-88 -214q-30 -71 -65 -100.5t-96 -29.5q-73 0 -114 34t-41 108l14 7q0 -72 36 -103.5t103 -31.5q39 0 64.5 11.5t45.5 39.5t42 81l251 610h-234q-80 0 -121 -35t-41 -109q0 -57 31 -93t86 -48l-11 -11q-57 12 -89.5 50.5
t-32.5 101.5q0 79 44 118.5t129 39.5h263l272 -660h-17zM742 248l-144 348l-17 46l-17 -45l-144 -349h322z" />
    <glyph glyph-name="Amacron.swsh" horiz-adv-x="874" 
d="M748 234h-334l-88 -214q-30 -71 -65 -100.5t-96 -29.5q-73 0 -114 34t-41 108l14 7q0 -72 36 -103.5t103 -31.5q39 0 64.5 11.5t45.5 39.5t42 81l251 610h-234q-80 0 -121 -35t-41 -109q0 -57 31 -93t86 -48l-11 -11q-57 12 -89.5 50.5t-32.5 101.5q0 79 44 118.5
t129 39.5h263l272 -660h-17zM742 248l-144 348l-17 46l-17 -45l-144 -349h322zM725 765h-288v14h288v-14z" />
    <glyph glyph-name="Aogonek.swsh" horiz-adv-x="874" 
d="M875 -181q-31 -21 -72 -21q-38 0 -63 20.5t-25 57.5q0 40 29 70.5t99 58.5l-95 229h-334l-88 -214q-30 -71 -65 -100.5t-96 -29.5q-73 0 -114 34t-41 108l14 7q0 -72 36 -103.5t103 -31.5q39 0 64.5 11.5t45.5 39.5t42 81l251 610h-234q-80 0 -121 -35t-41 -109
q0 -57 31 -93t86 -48l-11 -11q-57 12 -89.5 50.5t-32.5 101.5q0 79 44 118.5t129 39.5h263l272 -660q-72 -28 -102 -57t-30 -67q0 -31 20.5 -47.5t52.5 -16.5q41 0 66 20zM742 248l-144 348l-17 46l-17 -45l-144 -349h322z" />
    <glyph glyph-name="Atilde.swsh" horiz-adv-x="874" 
d="M748 234h-334l-88 -214q-30 -71 -65 -100.5t-96 -29.5q-73 0 -114 34t-41 108l14 7q0 -72 36 -103.5t103 -31.5q39 0 64.5 11.5t45.5 39.5t42 81l251 610h-234q-80 0 -121 -35t-41 -109q0 -57 31 -93t86 -48l-11 -11q-57 12 -89.5 50.5t-32.5 101.5q0 79 44 118.5
t129 39.5h263l272 -660h-17zM742 248l-144 348l-17 46l-17 -45l-144 -349h322zM712 779q-20 -20 -57 -20q-27 0 -43.5 9t-35.5 27q-18 17 -32 25t-36 8q-32 0 -46.5 -16.5t-22.5 -53.5h-15q8 44 28 64t57 20q27 0 43.5 -9t35.5 -27q16 -16 30.5 -24.5t36.5 -8.5
q32 0 47 16.5t23 53.5h15q-8 -44 -28 -64z" />
    <glyph glyph-name="E.swsh" horiz-adv-x="797" 
d="M767 14v-14h-454v646h-125q-80 0 -121 -35t-41 -109q0 -57 31 -93t86 -48l-11 -11q-57 12 -89.5 50.5t-32.5 101.5q0 79 44 118.5t129 39.5h567v-14h-421v-302h338v-14h-338v-316h438z" />
    <glyph glyph-name="Eacute.swsh" horiz-adv-x="797" 
d="M545 743h-15l75 148h18zM767 14v-14h-454v646h-125q-80 0 -121 -35t-41 -109q0 -57 31 -93t86 -48l-11 -11q-57 12 -89.5 50.5t-32.5 101.5q0 79 44 118.5t129 39.5h567v-14h-421v-302h338v-14h-338v-316h438z" />
    <glyph glyph-name="Ecaron.swsh" horiz-adv-x="797" 
d="M521 743l-109 142h17l102 -129l102 129h17l-109 -142h-20zM767 14v-14h-454v646h-125q-80 0 -121 -35t-41 -109q0 -57 31 -93t86 -48l-11 -11q-57 12 -89.5 50.5t-32.5 101.5q0 79 44 118.5t129 39.5h567v-14h-421v-302h338v-14h-338v-316h438z" />
    <glyph glyph-name="Ecircumflex.swsh" horiz-adv-x="797" 
d="M429 743h-17l109 142h20l109 -142h-17l-102 129zM767 14v-14h-454v646h-125q-80 0 -121 -35t-41 -109q0 -57 31 -93t86 -48l-11 -11q-57 12 -89.5 50.5t-32.5 101.5q0 79 44 118.5t129 39.5h567v-14h-421v-302h338v-14h-338v-316h438z" />
    <glyph glyph-name="Edieresis.swsh" horiz-adv-x="797" 
d="M767 14v-14h-454v646h-125q-80 0 -121 -35t-41 -109q0 -57 31 -93t86 -48l-11 -11q-57 12 -89.5 50.5t-32.5 101.5q0 79 44 118.5t129 39.5h567v-14h-421v-302h338v-14h-338v-316h438zM454 796q6 -6 6 -16t-6 -16t-16 -6t-16 6t-6 16t6 16t16 6t16 -6zM638 796
q6 -6 6 -16t-6 -16t-16 -6t-16 6t-6 16t6 16t16 6t16 -6z" />
    <glyph glyph-name="Edotaccent.swsh" horiz-adv-x="797" 
d="M767 14v-14h-454v646h-125q-80 0 -121 -35t-41 -109q0 -57 31 -93t86 -48l-11 -11q-57 12 -89.5 50.5t-32.5 101.5q0 79 44 118.5t129 39.5h567v-14h-421v-302h338v-14h-338v-316h438zM547 796q6 -6 6 -16t-6 -16t-16 -6t-16 6t-6 16t6 16t16 6t16 -6z" />
    <glyph glyph-name="Egrave.swsh" horiz-adv-x="797" 
d="M514 743l-78 148h18l75 -148h-15zM767 14v-14h-454v646h-125q-80 0 -121 -35t-41 -109q0 -57 31 -93t86 -48l-11 -11q-57 12 -89.5 50.5t-32.5 101.5q0 79 44 118.5t129 39.5h567v-14h-421v-302h338v-14h-338v-316h438z" />
    <glyph glyph-name="Emacron.swsh" horiz-adv-x="797" 
d="M767 14v-14h-454v646h-125q-80 0 -121 -35t-41 -109q0 -57 31 -93t86 -48l-11 -11q-57 12 -89.5 50.5t-32.5 101.5q0 79 44 118.5t129 39.5h567v-14h-421v-302h338v-14h-338v-316h438zM675 765h-288v14h288v-14z" />
    <glyph glyph-name="Eogonek.swsh" horiz-adv-x="797" 
d="M780 -181q-15 -10 -31 -15.5t-41 -5.5q-38 0 -63 20.5t-25 57.5q0 38 26.5 68t90.5 56h-424v646h-125q-80 0 -121 -35t-41 -109q0 -57 31 -93t86 -48l-11 -11q-57 12 -89.5 50.5t-32.5 101.5q0 79 44 118.5t129 39.5h567v-14h-421v-302h338v-14h-338v-316h438v-14
q-72 -28 -102 -57t-30 -67q0 -31 20.5 -47.5t52.5 -16.5q41 0 66 20z" />
    <glyph glyph-name="F.swsh" horiz-adv-x="768" 
d="M329 344h338v-14h-338v-330h-16v646h-125q-80 0 -121 -35t-41 -109q0 -57 31 -93t86 -48l-11 -11q-57 12 -89.5 50.5t-32.5 101.5q0 79 44 118.5t129 39.5h566v-14h-420v-302z" />
    <glyph glyph-name="L.swsh" horiz-adv-x="583" 
d="M540.5 259.5q32.5 -38.5 32.5 -101.5q0 -79 -44 -118.5t-129 -39.5h-301v660h16v-646h280q80 0 121 35t41 109q0 57 -31 93t-86 48l11 11q57 -12 89.5 -50.5z" />
    <glyph glyph-name="Lacute.swsh" horiz-adv-x="583" 
d="M121 743h-15l75 148h18zM540.5 259.5q32.5 -38.5 32.5 -101.5q0 -79 -44 -118.5t-129 -39.5h-301v660h16v-646h280q80 0 121 35t41 109q0 57 -31 93t-86 48l11 11q57 -12 89.5 -50.5z" />
    <glyph glyph-name="Lcaron.swsh" horiz-adv-x="583" 
d="M117 743h-20l-109 142h17l102 -129l102 129h17zM540.5 259.5q32.5 -38.5 32.5 -101.5q0 -79 -44 -118.5t-129 -39.5h-301v660h16v-646h280q80 0 121 35t41 109q0 57 -31 93t-86 48l11 11q57 -12 89.5 -50.5z" />
    <glyph glyph-name="Lcommaaccent.swsh" horiz-adv-x="583" 
d="M540.5 259.5q32.5 -38.5 32.5 -101.5q0 -79 -44 -118.5t-129 -39.5h-301v660h16v-646h280q80 0 121 35t41 109q0 57 -31 93t-86 48l11 11q57 -12 89.5 -50.5zM279 -229h-13l50 161h18z" />
    <glyph glyph-name="Lslash.swsh" horiz-adv-x="594" 
d="M551.5 259.5q32.5 -38.5 32.5 -101.5q0 -79 -44 -118.5t-129 -39.5h-301v276l-101 -64v20l101 64v364h16v-353l208 132v-20l-208 -132v-273h280q80 0 121 35t41 109q0 57 -31 93t-86 48l11 11q57 -12 89.5 -50.5z" />
    <glyph glyph-name="M.swsh" horiz-adv-x="1000" 
d="M901 660v-660h-16v580l1 57l-269 -637h-20l-269 637l1 -57v-534q0 -73 -39.5 -114.5t-110.5 -41.5q-129 0 -144 116l13 7q15 -109 131 -109q63 0 98.5 37t35.5 102v603h-125q-80 0 -121 -35t-41 -109q0 -57 31 -93t86 -48l-11 -11q-57 12 -89.5 50.5t-32.5 101.5
q0 79 44 118.5t129 39.5h151l261 -612l12 -29l12 28l261 613h21z" />
    <glyph glyph-name="N.swsh" horiz-adv-x="873" 
d="M873 619l-13 -7q-15 109 -131 109q-64 0 -99 -40t-35 -119v-562h-22l-433 605l-26 39l1 -57v-587h-16v660h22l433 -605l26 -39l-1 57v486q0 87 39 131.5t111 44.5q129 0 144 -116z" />
    <glyph glyph-name="Nacute.swsh" horiz-adv-x="873" 
d="M367 743h-15l75 148h18zM873 619l-13 -7q-15 109 -131 109q-64 0 -99 -40t-35 -119v-562h-22l-433 605l-26 39l1 -57v-587h-16v660h22l433 -605l26 -39l-1 57v486q0 87 39 131.5t111 44.5q129 0 144 -116z" />
    <glyph glyph-name="Ncaron.swsh" horiz-adv-x="873" 
d="M343 743l-109 142h17l102 -129l102 129h17l-109 -142h-20zM873 619l-13 -7q-15 109 -131 109q-64 0 -99 -40t-35 -119v-562h-22l-433 605l-26 39l1 -57v-587h-16v660h22l433 -605l26 -39l-1 57v486q0 87 39 131.5t111 44.5q129 0 144 -116z" />
    <glyph glyph-name="Ncommaaccent.swsh" horiz-adv-x="873" 
d="M873 619l-13 -7q-15 109 -131 109q-64 0 -99 -40t-35 -119v-562h-22l-433 605l-26 39l1 -57v-587h-16v660h22l433 -605l26 -39l-1 57v486q0 87 39 131.5t111 44.5q129 0 144 -116zM299 -229h-13l50 161h18z" />
    <glyph glyph-name="Ntilde.swsh" horiz-adv-x="873" 
d="M873 619l-13 -7q-15 109 -131 109q-64 0 -99 -40t-35 -119v-562h-22l-433 605l-26 39l1 -57v-587h-16v660h22l433 -605l26 -39l-1 57v486q0 87 39 131.5t111 44.5q129 0 144 -116zM484 779q-20 -20 -57 -20q-27 0 -43.5 9t-35.5 27q-18 17 -32 25t-36 8
q-32 0 -46.5 -16.5t-22.5 -53.5h-15q8 44 28 64t57 20q27 0 43.5 -9t35.5 -27q16 -16 30.5 -24.5t36.5 -8.5q32 0 47 16.5t23 53.5h15q-8 -44 -28 -64z" />
    <glyph glyph-name="R.swsh" horiz-adv-x="825" 
d="M772 0l-200 301q-6 -1 -20 -1h-223v-254q0 -73 -39.5 -114.5t-110.5 -41.5q-67 0 -105.5 36t-38.5 100l13 7q0 -61 34.5 -95t96.5 -34q63 0 98.5 37t35.5 102v603h-125q-80 0 -121 -35t-41 -109q0 -57 31 -93t86 -48l-11 -11q-57 12 -89.5 50.5t-32.5 101.5
q0 79 44 118.5t129 39.5h369q97 0 153 -48t56 -132q0 -75 -45 -121.5t-125 -56.5l199 -302h-18zM552 314q91 0 142 44t51 122t-51 122t-142 44h-223v-332h223z" />
    <glyph glyph-name="Racute.swsh" horiz-adv-x="825" 
d="M521 743h-15l75 148h18zM772 0l-200 301q-6 -1 -20 -1h-223v-254q0 -73 -39.5 -114.5t-110.5 -41.5q-67 0 -105.5 36t-38.5 100l13 7q0 -61 34.5 -95t96.5 -34q63 0 98.5 37t35.5 102v603h-125q-80 0 -121 -35t-41 -109q0 -57 31 -93t86 -48l-11 -11q-57 12 -89.5 50.5
t-32.5 101.5q0 79 44 118.5t129 39.5h369q97 0 153 -48t56 -132q0 -75 -45 -121.5t-125 -56.5l199 -302h-18zM552 314q91 0 142 44t51 122t-51 122t-142 44h-223v-332h223z" />
    <glyph glyph-name="Rcaron.swsh" horiz-adv-x="825" 
d="M497 743l-109 142h17l102 -129l102 129h17l-109 -142h-20zM772 0l-200 301q-6 -1 -20 -1h-223v-254q0 -73 -39.5 -114.5t-110.5 -41.5q-67 0 -105.5 36t-38.5 100l13 7q0 -61 34.5 -95t96.5 -34q63 0 98.5 37t35.5 102v603h-125q-80 0 -121 -35t-41 -109q0 -57 31 -93
t86 -48l-11 -11q-57 12 -89.5 50.5t-32.5 101.5q0 79 44 118.5t129 39.5h369q97 0 153 -48t56 -132q0 -75 -45 -121.5t-125 -56.5l199 -302h-18zM552 314q91 0 142 44t51 122t-51 122t-142 44h-223v-332h223z" />
    <glyph glyph-name="Rcommaaccent.swsh" horiz-adv-x="825" 
d="M772 0l-200 301q-6 -1 -20 -1h-223v-254q0 -73 -39.5 -114.5t-110.5 -41.5q-67 0 -105.5 36t-38.5 100l13 7q0 -61 34.5 -95t96.5 -34q63 0 98.5 37t35.5 102v603h-125q-80 0 -121 -35t-41 -109q0 -57 31 -93t86 -48l-11 -11q-57 12 -89.5 50.5t-32.5 101.5
q0 79 44 118.5t129 39.5h369q97 0 153 -48t56 -132q0 -75 -45 -121.5t-125 -56.5l199 -302h-18zM552 314q91 0 142 44t51 122t-51 122t-142 44h-223v-332h223zM512 -229h-13l50 161h18z" />
    <glyph glyph-name="S.swsh" horiz-adv-x="594" 
d="M137 -65q-62 45 -62 126q0 27 9 63l15 5q-9 -33 -9 -66q0 -76 57.5 -117.5t161.5 -41.5q105 0 164 45.5t59 126.5q0 44 -20.5 77t-67 59.5t-126.5 51.5q-85 27 -134.5 56t-71.5 65.5t-22 86.5q0 91 58 144.5t157 53.5q108 0 164.5 -45t56.5 -132l-1 -19l-14 -7q1 8 1 23
q0 82 -52 124t-155 42q-93 0 -146 -49t-53 -135q0 -46 20.5 -79.5t68 -61t130.5 -54.5q84 -27 132.5 -55t69.5 -63t21 -83q0 -86 -64 -136t-175 -50q-110 0 -172 45z" />
    <glyph glyph-name="Sacute.swsh" horiz-adv-x="594" 
d="M382 891l-78 -148h-15l75 148h18zM137 -65q-62 45 -62 126q0 27 9 63l15 5q-9 -33 -9 -66q0 -76 57.5 -117.5t161.5 -41.5q105 0 164 45.5t59 126.5q0 44 -20.5 77t-67 59.5t-126.5 51.5q-85 27 -134.5 56t-71.5 65.5t-22 86.5q0 91 58 144.5t157 53.5q108 0 164.5 -45
t56.5 -132l-1 -19l-14 -7q1 8 1 23q0 82 -52 124t-155 42q-93 0 -146 -49t-53 -135q0 -46 20.5 -79.5t68 -61t130.5 -54.5q84 -27 132.5 -55t69.5 -63t21 -83q0 -86 -64 -136t-175 -50q-110 0 -172 45z" />
    <glyph glyph-name="Scaron.swsh" horiz-adv-x="594" 
d="M300 743h-20l-109 142h17l102 -129l102 129h17zM137 -65q-62 45 -62 126q0 27 9 63l15 5q-9 -33 -9 -66q0 -76 57.5 -117.5t161.5 -41.5q105 0 164 45.5t59 126.5q0 44 -20.5 77t-67 59.5t-126.5 51.5q-85 27 -134.5 56t-71.5 65.5t-22 86.5q0 91 58 144.5t157 53.5
q108 0 164.5 -45t56.5 -132l-1 -19l-14 -7q1 8 1 23q0 82 -52 124t-155 42q-93 0 -146 -49t-53 -135q0 -46 20.5 -79.5t68 -61t130.5 -54.5q84 -27 132.5 -55t69.5 -63t21 -83q0 -86 -64 -136t-175 -50q-110 0 -172 45z" />
    <glyph glyph-name="Scedilla.swsh" horiz-adv-x="594" 
d="M484 -60q-64 -50 -175 -50h-1q45 -25 63 -50t18 -58q0 -37 -24.5 -60.5t-63.5 -23.5q-32 0 -54.5 9.5t-39.5 32.5l8 12q18 -23 38.5 -32t47.5 -9q32 0 52.5 19.5t20.5 50.5q0 30 -19 55t-71 55q-99 5 -154 49.5t-55 120.5q0 27 9 63l15 5q-9 -33 -9 -66
q0 -76 57.5 -117.5t161.5 -41.5q105 0 164 45.5t59 126.5q0 44 -20.5 77t-67 59.5t-126.5 51.5q-85 27 -134.5 56t-71.5 65.5t-22 86.5q0 91 58 144.5t157 53.5q108 0 164.5 -45t56.5 -132l-1 -19l-14 -7q1 8 1 23q0 82 -52 124t-155 42q-93 0 -146 -49t-53 -135
q0 -46 20.5 -79.5t68 -61t130.5 -54.5q84 -27 132.5 -55t69.5 -63t21 -83q0 -86 -64 -136z" />
    <glyph glyph-name="Scommaaccent.swsh" horiz-adv-x="594" 
d="M137 -65q-62 45 -62 126q0 27 9 63l15 5q-9 -33 -9 -66q0 -76 57.5 -117.5t161.5 -41.5q105 0 164 45.5t59 126.5q0 44 -20.5 77t-67 59.5t-126.5 51.5q-85 27 -134.5 56t-71.5 65.5t-22 86.5q0 91 58 144.5t157 53.5q108 0 164.5 -45t56.5 -132l-1 -19l-14 -7q1 8 1 23
q0 82 -52 124t-155 42q-93 0 -146 -49t-53 -135q0 -46 20.5 -79.5t68 -61t130.5 -54.5q84 -27 132.5 -55t69.5 -63t21 -83q0 -86 -64 -136t-175 -50q-110 0 -172 45zM273 -329h-13l50 161h18z" />
    <glyph glyph-name="T.swsh" horiz-adv-x="620" 
d="M609 646h-253v-646h-16v646h-152q-80 0 -121 -35t-41 -109q0 -57 31 -93t86 -48l-11 -11q-57 12 -89.5 50.5t-32.5 101.5q0 79 44 118.5t129 39.5h426v-14z" />
    <glyph glyph-name="Tcaron.swsh" horiz-adv-x="620" 
d="M338 743l-109 142h17l102 -129l102 129h17l-109 -142h-20zM609 646h-253v-646h-16v646h-152q-80 0 -121 -35t-41 -109q0 -57 31 -93t86 -48l-11 -11q-57 12 -89.5 50.5t-32.5 101.5q0 79 44 118.5t129 39.5h426v-14z" />
    <glyph glyph-name="uni0162.swsh" horiz-adv-x="620" 
d="M356 646v-644q43 -26 63 -53.5t20 -65.5t-24.5 -61.5t-64.5 -23.5q-33 0 -55 11.5t-38 32.5l9 10q17 -21 36 -31t48 -10q34 0 54 20t20 52q0 36 -20 62.5t-64 54.5v646h-152q-80 0 -121 -35t-41 -109q0 -57 31 -93t86 -48l-11 -11q-57 12 -89.5 50.5t-32.5 101.5
q0 79 44 118.5t129 39.5h426v-14h-253z" />
    <glyph glyph-name="uni021A.swsh" horiz-adv-x="620" 
d="M609 646h-253v-646h-16v646h-152q-80 0 -121 -35t-41 -109q0 -57 31 -93t86 -48l-11 -11q-57 12 -89.5 50.5t-32.5 101.5q0 79 44 118.5t129 39.5h426v-14zM304 -229h-13l50 161h18z" />
    <glyph glyph-name="W.swsh" horiz-adv-x="1109" 
d="M1086 660l-218 -660h-21l-192 638h-1l-40 -136l-152 -502h-21l-213 646h-40q-80 0 -121 -35t-41 -109q0 -57 31 -93t86 -48l-11 -11q-57 12 -89.5 50.5t-32.5 101.5q0 79 44 118.5t129 39.5h57l212 -644l192 644h21l192 -644l212 644h17z" />
    <glyph glyph-name="Adieresis.titl" horiz-adv-x="586" 
d="M181 624q-6 6 -6 16t6 16t16 6t16 -6t6 -16t-6 -16t-16 -6t-16 6zM371 624q-6 6 -6 16t6 16t16 6t16 -6t6 -16t-6 -16t-16 -6t-16 6zM460 234h-334l-97 -234h-17l272 660h18l272 -660h-17zM454 248l-144 348l-17 46l-17 -45l-144 -349h322z" />
    <glyph glyph-name="Odieresis.titl" horiz-adv-x="714" 
d="M517 628.5q68 -41.5 104.5 -118t36.5 -180.5t-36.5 -180.5t-104.5 -118t-160 -41.5t-160 41.5t-104.5 118t-36.5 180.5t36.5 180.5t104.5 118t160 41.5t160 -41.5zM205.5 616q-64.5 -40 -99 -113.5t-34.5 -172.5t34.5 -172.5t99 -113.5t151.5 -40t151.5 40t99 113.5
t34.5 172.5t-34.5 172.5t-99 113.5t-151.5 40t-151.5 -40zM303 594q6 -6 6 -16t-6 -16t-16 -6t-16 6t-6 16t6 16t16 6t16 -6zM443 594q6 -6 6 -16t-6 -16t-16 -6t-16 6t-6 16t6 16t16 6t16 -6z" />
    <glyph glyph-name="Udieresis.titl" horiz-adv-x="680" 
d="M248 624q-6 6 -6 16t6 16t16 6t16 -6t6 -16t-6 -16t-16 -6t-16 6zM398 624q-6 6 -6 16t6 16t16 6t16 -6t6 -16t-6 -16t-16 -6t-16 6zM589 235q0 -117 -65.5 -181t-183.5 -64t-183.5 64t-65.5 181v425h16v-425q0 -110 61.5 -170.5t171.5 -60.5t171.5 60.5t61.5 170.5v425
h16v-425z" />
    <glyph glyph-name="a" unicode="a" horiz-adv-x="517" 
d="M516 13l-1 -14q-13 -9 -36 -9q-30 0 -51 20t-21 72v14q-20 -51 -78.5 -78.5t-126.5 -27.5q-73 0 -114.5 31t-41.5 87q0 59 43 93t141 52l177 33v62q0 70 -41 109t-118 39q-69 0 -113 -28t-66 -90l-13 10q23 62 70 92t122 30q85 0 130 -41.5t45 -120.5v-272
q0 -36 14.5 -54t40.5 -18t38 9zM296.5 20q46.5 16 78.5 49.5t32 81.5v121l-166 -31q-96 -18 -137.5 -50t-41.5 -83q0 -49 38.5 -76.5t106.5 -27.5q43 0 89.5 16z" />
    <glyph glyph-name="aacute" unicode="&#xe1;" horiz-adv-x="517" 
d="M516 13l-1 -14q-13 -9 -36 -9q-30 0 -51 20t-21 72v14q-20 -51 -78.5 -78.5t-126.5 -27.5q-73 0 -114.5 31t-41.5 87q0 59 43 93t141 52l177 33v62q0 70 -41 109t-118 39q-69 0 -113 -28t-66 -90l-13 10q23 62 70 92t122 30q85 0 130 -41.5t45 -120.5v-272
q0 -36 14.5 -54t40.5 -18t38 9zM296.5 20q46.5 16 78.5 49.5t32 81.5v121l-166 -31q-96 -18 -137.5 -50t-41.5 -83q0 -49 38.5 -76.5t106.5 -27.5q43 0 89.5 16zM338 730l-88 -147h-15l85 147h18z" />
    <glyph glyph-name="abreve" unicode="&#x103;" horiz-adv-x="517" 
d="M516 13l-1 -14q-13 -9 -36 -9q-30 0 -51 20t-21 72v14q-20 -51 -78.5 -78.5t-126.5 -27.5q-73 0 -114.5 31t-41.5 87q0 59 43 93t141 52l177 33v62q0 70 -41 109t-118 39q-69 0 -113 -28t-66 -90l-13 10q23 62 70 92t122 30q85 0 130 -41.5t45 -120.5v-272
q0 -36 14.5 -54t40.5 -18t38 9zM296.5 20q46.5 16 78.5 49.5t32 81.5v121l-166 -31q-96 -18 -137.5 -50t-41.5 -83q0 -49 38.5 -76.5t106.5 -27.5q43 0 89.5 16zM331 613q-32 -32 -89 -32t-89 32t-32 89h14q0 -49 29 -78t78 -29t78 29t29 78h14q0 -57 -32 -89z" />
    <glyph glyph-name="acircumflex" unicode="&#xe2;" horiz-adv-x="517" 
d="M516 13l-1 -14q-13 -9 -36 -9q-30 0 -51 20t-21 72v14q-20 -51 -78.5 -78.5t-126.5 -27.5q-73 0 -114.5 31t-41.5 87q0 59 43 93t141 52l177 33v62q0 70 -41 109t-118 39q-69 0 -113 -28t-66 -90l-13 10q23 62 70 92t122 30q85 0 130 -41.5t45 -120.5v-272
q0 -36 14.5 -54t40.5 -18t38 9zM296.5 20q46.5 16 78.5 49.5t32 81.5v121l-166 -31q-96 -18 -137.5 -50t-41.5 -83q0 -49 38.5 -76.5t106.5 -27.5q43 0 89.5 16zM342 583l-100 129l-100 -129h-17l108 142h18l108 -142h-17z" />
    <glyph glyph-name="adieresis" unicode="&#xe4;" horiz-adv-x="517" 
d="M516 13l-1 -14q-13 -9 -36 -9q-30 0 -51 20t-21 72v14q-20 -51 -78.5 -78.5t-126.5 -27.5q-73 0 -114.5 31t-41.5 87q0 59 43 93t141 52l177 33v62q0 70 -41 109t-118 39q-69 0 -113 -28t-66 -90l-13 10q23 62 70 92t122 30q85 0 130 -41.5t45 -120.5v-272
q0 -36 14.5 -54t40.5 -18t38 9zM296.5 20q46.5 16 78.5 49.5t32 81.5v121l-166 -31q-96 -18 -137.5 -50t-41.5 -83q0 -49 38.5 -76.5t106.5 -27.5q43 0 89.5 16zM165 636q6 -6 6 -16t-6 -16t-16 -6t-16 6t-6 16t6 16t16 6t16 -6zM349 636q6 -6 6 -16t-6 -16t-16 -6t-16 6
t-6 16t6 16t16 6t16 -6z" />
    <glyph glyph-name="agrave" unicode="&#xe0;" horiz-adv-x="517" 
d="M516 13l-1 -14q-13 -9 -36 -9q-30 0 -51 20t-21 72v14q-20 -51 -78.5 -78.5t-126.5 -27.5q-73 0 -114.5 31t-41.5 87q0 59 43 93t141 52l177 33v62q0 70 -41 109t-118 39q-69 0 -113 -28t-66 -90l-13 10q23 62 70 92t122 30q85 0 130 -41.5t45 -120.5v-272
q0 -36 14.5 -54t40.5 -18t38 9zM296.5 20q46.5 16 78.5 49.5t32 81.5v121l-166 -31q-96 -18 -137.5 -50t-41.5 -83q0 -49 38.5 -76.5t106.5 -27.5q43 0 89.5 16zM253 583h-15l-88 147h18z" />
    <glyph glyph-name="amacron" unicode="&#x101;" horiz-adv-x="517" 
d="M516 13l-1 -14q-13 -9 -36 -9q-30 0 -51 20t-21 72v14q-20 -51 -78.5 -78.5t-126.5 -27.5q-73 0 -114.5 31t-41.5 87q0 59 43 93t141 52l177 33v62q0 70 -41 109t-118 39q-69 0 -113 -28t-66 -90l-13 10q23 62 70 92t122 30q85 0 130 -41.5t45 -120.5v-272
q0 -36 14.5 -54t40.5 -18t38 9zM296.5 20q46.5 16 78.5 49.5t32 81.5v121l-166 -31q-96 -18 -137.5 -50t-41.5 -83q0 -49 38.5 -76.5t106.5 -27.5q43 0 89.5 16zM386 605h-288v14h288v-14z" />
    <glyph glyph-name="aogonek" unicode="&#x105;" horiz-adv-x="517" 
d="M405 -61q-32 -27 -32 -65q0 -28 21 -45t52 -17q25 0 38.5 3.5t24.5 12.5l6 -13q-13 -9 -28 -13t-41 -4q-37 0 -62.5 20.5t-25.5 55.5q0 37 26.5 64.5t85.5 51.5q-63 7 -63 92v14q-20 -51 -78.5 -78.5t-126.5 -27.5q-73 0 -114.5 31t-41.5 87q0 59 43 93t141 52l177 33v62
q0 70 -41 109t-118 39q-68 0 -112 -28.5t-67 -89.5l-13 10q23 62 70 92t122 30q85 0 130 -41.5t45 -120.5v-272q0 -36 14.5 -54t40.5 -18t38 9l-1 -14q-78 -33 -110 -60zM296.5 20q46.5 16 78.5 49.5t32 81.5v121l-166 -31q-96 -18 -137.5 -50t-41.5 -83q0 -49 38.5 -76.5
t106.5 -27.5q43 0 89.5 16z" />
    <glyph glyph-name="aring" unicode="&#xe5;" horiz-adv-x="517" 
d="M516 13l-1 -14q-13 -9 -36 -9q-30 0 -51 20t-21 72v14q-20 -51 -78.5 -78.5t-126.5 -27.5q-73 0 -114.5 31t-41.5 87q0 59 43 93t141 52l177 33v62q0 70 -41 109t-118 39q-69 0 -113 -28t-66 -90l-13 10q23 62 70 92t122 30q85 0 130 -41.5t45 -120.5v-272
q0 -36 14.5 -54t40.5 -18t38 9zM296.5 20q46.5 16 78.5 49.5t32 81.5v121l-166 -31q-96 -18 -137.5 -50t-41.5 -83q0 -49 38.5 -76.5t106.5 -27.5q43 0 89.5 16zM298.5 712q23.5 -23 23.5 -57t-23.5 -57t-58.5 -23t-58.5 23t-23.5 57t23.5 57t58.5 23t58.5 -23zM193 702
q-19 -19 -19 -47t19 -47t47 -19t47 19t19 47t-19 47t-47 19t-47 -19z" />
    <glyph glyph-name="atilde" unicode="&#xe3;" horiz-adv-x="517" 
d="M516 13l-1 -14q-13 -9 -36 -9q-30 0 -51 20t-21 72v14q-20 -51 -78.5 -78.5t-126.5 -27.5q-73 0 -114.5 31t-41.5 87q0 59 43 93t141 52l177 33v62q0 70 -41 109t-118 39q-69 0 -113 -28t-66 -90l-13 10q23 62 70 92t122 30q85 0 130 -41.5t45 -120.5v-272
q0 -36 14.5 -54t40.5 -18t38 9zM296.5 20q46.5 16 78.5 49.5t32 81.5v121l-166 -31q-96 -18 -137.5 -50t-41.5 -83q0 -49 38.5 -76.5t106.5 -27.5q43 0 89.5 16zM373 619q-20 -20 -57 -20q-27 0 -43.5 9t-35.5 27q-18 17 -32 25t-36 8q-32 0 -46.5 -16.5t-22.5 -53.5h-15
q8 44 28 64t57 20q27 0 43.5 -9t35.5 -27q16 -16 30.5 -24.5t36.5 -8.5q32 0 47 16.5t23 53.5h15q-8 -44 -28 -64z" />
    <glyph glyph-name="ae" unicode="&#xe6;" horiz-adv-x="866" 
d="M423 257v-37q7 -102 58 -159t135 -57q134 0 180 112l13 -7q-50 -119 -193 -119q-76 0 -128 44t-71 124q-8 -87 -71 -127.5t-144 -40.5q-71 0 -113.5 30.5t-42.5 87.5q0 127 184 145l177 18v74q0 72 -41 111.5t-118 39.5q-68 0 -112 -28.5t-67 -89.5l-13 10q23 62 70 92
t122 30q81 0 126 -38t49 -109q22 71 71.5 109t120.5 38q100 0 151.5 -61.5t51.5 -184.5v-7h-395zM481 439q-51 -57 -58 -159v-8h381q-2 113 -49 168.5t-140 55.5q-83 0 -134 -57zM298 21.5q46 17.5 77.5 58.5t31.5 108v68l-166 -15q-94 -9 -136.5 -44t-42.5 -89
q0 -51 40.5 -77.5t104.5 -26.5q45 0 91 17.5z" />
    <glyph glyph-name="b" unicode="b" horiz-adv-x="585" 
d="M473.5 441q60.5 -69 60.5 -191t-60.5 -191t-168.5 -69q-79 0 -132 42t-72 118v-150h-16v730h16v-378q19 76 72.5 117t131.5 41q108 0 168.5 -69zM461 69q57 65 57 181t-57 181t-159 65q-92 0 -146.5 -65t-54.5 -178v-7q0 -112 54.5 -177t146.5 -65q102 0 159 65z" />
    <glyph glyph-name="c" unicode="c" horiz-adv-x="524" 
d="M408 474q52 -36 70 -101l-14 -7q-16 62 -64 96t-119 34q-101 0 -157.5 -65.5t-56.5 -180.5q0 -116 55 -181t156 -65q72 0 126 38t64 100l14 -5q-13 -66 -70 -106.5t-134 -40.5q-108 0 -167.5 69t-59.5 191t61 191t169 69q75 0 127 -36z" />
    <glyph glyph-name="cacute" unicode="&#x107;" horiz-adv-x="524" 
d="M408 474q52 -36 70 -101l-14 -7q-16 62 -64 96t-119 34q-101 0 -157.5 -65.5t-56.5 -180.5q0 -116 55 -181t156 -65q72 0 126 38t64 100l14 -5q-13 -66 -70 -106.5t-134 -40.5q-108 0 -167.5 69t-59.5 191t61 191t169 69q75 0 127 -36zM371 730l-88 -147h-15l85 147h18z
" />
    <glyph glyph-name="ccaron" unicode="&#x10d;" horiz-adv-x="524" 
d="M408 474q52 -36 70 -101l-14 -7q-16 62 -64 96t-119 34q-101 0 -157.5 -65.5t-56.5 -180.5q0 -116 55 -181t156 -65q72 0 126 38t64 100l14 -5q-13 -66 -70 -106.5t-134 -40.5q-108 0 -167.5 69t-59.5 191t61 191t169 69q75 0 127 -36zM284 583h-18l-108 142h17l100 -129
l100 129h17z" />
    <glyph glyph-name="ccedilla" unicode="&#xe7;" horiz-adv-x="524" 
d="M412 30.5q-57 -40.5 -134 -40.5h-1q45 -25 63 -50t18 -58q0 -37 -24.5 -60.5t-63.5 -23.5q-32 0 -54.5 9.5t-39.5 32.5l8 12q18 -23 38.5 -32t47.5 -9q32 0 52.5 19.5t20.5 50.5q0 30 -19 55t-71 55q-97 8 -149.5 76t-52.5 183q0 122 61 191t169 69q75 0 127 -36t70 -101
l-14 -7q-16 62 -64 96t-119 34q-101 0 -157.5 -65.5t-56.5 -180.5q0 -116 55 -181t156 -65q72 0 126 38t64 100l14 -5q-13 -66 -70 -106.5z" />
    <glyph glyph-name="d" unicode="d" horiz-adv-x="585" 
d="M500 730v-730h-16v150q-19 -76 -72 -118t-132 -42q-108 0 -168.5 69t-60.5 191t60.5 191t168.5 69q78 0 131.5 -41t72.5 -117v378h16zM429.5 69q54.5 65 54.5 177v7q0 113 -54.5 178t-146.5 65q-102 0 -159 -65t-57 -181t57 -181t159 -65q92 0 146.5 65z" />
    <glyph glyph-name="eth" unicode="&#xf0;" horiz-adv-x="577" 
d="M418 614q93 -121 93 -331q0 -145 -59 -219t-165 -74q-72 0 -125.5 30.5t-82 86.5t-28.5 130q0 75 28.5 131t80 86.5t119.5 30.5q85 0 141.5 -40t75.5 -111q-10 166 -95 276l-173 -36l-4 13l167 35q-60 72 -152 108h31q84 -38 139 -104l117 25l4 -13zM439 70q55 66 59 187
v15q-4 53 -30 98.5t-74 73t-115 27.5q-63 0 -111 -29t-74.5 -82t-26.5 -123q0 -107 59 -170t161 -63q97 0 152 66z" />
    <glyph glyph-name="dcaron" unicode="&#x10f;" horiz-adv-x="597" 
d="M484 730h16v-730h-16v150q-19 -76 -72 -118t-132 -42q-108 0 -168.5 69t-60.5 191t60.5 191t168.5 69q78 0 131.5 -41t72.5 -117v378zM628 730l-29 -197h-14l26 197h17zM429.5 69q54.5 65 54.5 177v7q0 113 -54.5 178t-146.5 65q-102 0 -159 -65t-57 -181t57 -181
t159 -65q92 0 146.5 65z" />
    <glyph glyph-name="dcroat" unicode="&#x111;" horiz-adv-x="585" 
d="M597 594h-97v-594h-16v150q-19 -76 -72 -118t-132 -42q-108 0 -168.5 69t-60.5 191t60.5 191t168.5 69q78 0 131.5 -41t72.5 -117v242h-182v12h182v124h16v-124h97v-12zM429.5 69q54.5 65 54.5 177v7q0 113 -54.5 178t-146.5 65q-102 0 -159 -65t-57 -181t57 -181
t159 -65q92 0 146.5 65z" />
    <glyph glyph-name="e" unicode="e" horiz-adv-x="534" 
d="M486 239h-419q3 -111 59 -173t154 -62q63 0 113.5 30t75.5 82l13 -7q-26 -56 -80 -87.5t-122 -31.5q-108 0 -168.5 69t-60.5 191t59.5 191t164.5 69q99 0 155 -70t56 -194v-7zM123 432q-55 -64 -56 -178h405q-2 114 -53 178t-144 64q-97 0 -152 -64z" />
    <glyph glyph-name="eacute" unicode="&#xe9;" horiz-adv-x="534" 
d="M486 239h-419q3 -111 59 -173t154 -62q63 0 113.5 30t75.5 82l13 -7q-26 -56 -80 -87.5t-122 -31.5q-108 0 -168.5 69t-60.5 191t59.5 191t164.5 69q99 0 155 -70t56 -194v-7zM123 432q-55 -64 -56 -178h405q-2 114 -53 178t-144 64q-97 0 -152 -64zM367 730l-88 -147
h-15l85 147h18z" />
    <glyph glyph-name="ecaron" unicode="&#x11b;" horiz-adv-x="534" 
d="M486 239h-419q3 -111 59 -173t154 -62q63 0 113.5 30t75.5 82l13 -7q-26 -56 -80 -87.5t-122 -31.5q-108 0 -168.5 69t-60.5 191t59.5 191t164.5 69q99 0 155 -70t56 -194v-7zM123 432q-55 -64 -56 -178h405q-2 114 -53 178t-144 64q-97 0 -152 -64zM280 583h-18
l-108 142h17l100 -129l100 129h17z" />
    <glyph glyph-name="ecircumflex" unicode="&#xea;" horiz-adv-x="534" 
d="M486 239h-419q3 -111 59 -173t154 -62q63 0 113.5 30t75.5 82l13 -7q-26 -56 -80 -87.5t-122 -31.5q-108 0 -168.5 69t-60.5 191t59.5 191t164.5 69q99 0 155 -70t56 -194v-7zM123 432q-55 -64 -56 -178h405q-2 114 -53 178t-144 64q-97 0 -152 -64zM371 583l-100 129
l-100 -129h-17l108 142h18l108 -142h-17z" />
    <glyph glyph-name="edieresis" unicode="&#xeb;" horiz-adv-x="534" 
d="M486 239h-419q3 -111 59 -173t154 -62q63 0 113.5 30t75.5 82l13 -7q-26 -56 -80 -87.5t-122 -31.5q-108 0 -168.5 69t-60.5 191t59.5 191t164.5 69q99 0 155 -70t56 -194v-7zM123 432q-55 -64 -56 -178h405q-2 114 -53 178t-144 64q-97 0 -152 -64zM194 636q6 -6 6 -16
t-6 -16t-16 -6t-16 6t-6 16t6 16t16 6t16 -6zM378 636q6 -6 6 -16t-6 -16t-16 -6t-16 6t-6 16t6 16t16 6t16 -6z" />
    <glyph glyph-name="edotaccent" unicode="&#x117;" horiz-adv-x="534" 
d="M486 239h-419q3 -111 59 -173t154 -62q63 0 113.5 30t75.5 82l13 -7q-26 -56 -80 -87.5t-122 -31.5q-108 0 -168.5 69t-60.5 191t59.5 191t164.5 69q99 0 155 -70t56 -194v-7zM123 432q-55 -64 -56 -178h405q-2 114 -53 178t-144 64q-97 0 -152 -64zM287 636q6 -6 6 -16
t-6 -16t-16 -6t-16 6t-6 16t6 16t16 6t16 -6z" />
    <glyph glyph-name="egrave" unicode="&#xe8;" horiz-adv-x="534" 
d="M486 239h-419q3 -111 59 -173t154 -62q63 0 113.5 30t75.5 82l13 -7q-26 -56 -80 -87.5t-122 -31.5q-108 0 -168.5 69t-60.5 191t59.5 191t164.5 69q99 0 155 -70t56 -194v-7zM123 432q-55 -64 -56 -178h405q-2 114 -53 178t-144 64q-97 0 -152 -64zM282 583h-15l-88 147
h18z" />
    <glyph glyph-name="emacron" unicode="&#x113;" horiz-adv-x="534" 
d="M486 239h-419q3 -111 59 -173t154 -62q63 0 113.5 30t75.5 82l13 -7q-26 -56 -80 -87.5t-122 -31.5q-108 0 -168.5 69t-60.5 191t59.5 191t164.5 69q99 0 155 -70t56 -194v-7zM123 432q-55 -64 -56 -178h405q-2 114 -53 178t-144 64q-97 0 -152 -64zM415 605h-288v14h288
v-14z" />
    <glyph glyph-name="eogonek" unicode="&#x119;" horiz-adv-x="534" 
d="M486 239h-419q3 -111 59 -173t154 -62q63 0 113.5 30t75.5 82l13 -7q-17 -37 -47.5 -64t-69.5 -41q-70 -34 -97 -63.5t-27 -64.5q0 -31 20.5 -47.5t52.5 -16.5q41 0 66 20l6 -13q-31 -21 -72 -21q-38 0 -63 20.5t-25 57.5q0 33 20.5 60.5t70.5 56.5q-18 -3 -37 -3
q-108 0 -168.5 69t-60.5 191t59.5 191t164.5 69q99 0 155 -70t56 -194v-7zM123 432q-55 -64 -56 -178h405q-2 114 -53 178t-144 64q-97 0 -152 -64z" />
    <glyph glyph-name="f" unicode="f" horiz-adv-x="320" 
d="M159 684.5q-31 -36.5 -31 -101.5v-83h186v-14h-186v-486h-16v486h-100v14h100v83q0 71 35.5 111.5t97.5 40.5q49 0 77 -31l-7 -12q-13 16 -29.5 22.5t-40.5 6.5q-55 0 -86 -36.5z" />
    <glyph glyph-name="g" unicode="g" horiz-adv-x="496" 
d="M447 7q45 -30 45 -80q0 -42 -28.5 -74t-80.5 -50t-119 -18q-106 0 -168 36.5t-62 97.5q0 42 30.5 71.5t81.5 38.5q-38 10 -59.5 32.5t-21.5 52.5q0 38 29 63.5t75 32.5q-52 17 -80.5 54.5t-28.5 88.5q0 71 54.5 114t143.5 43q72 0 121 -29q3 51 33 81t79 30l5 -14
q-47 0 -74.5 -28t-29.5 -77q30 -21 46 -51.5t16 -68.5q0 -71 -53.5 -114t-142.5 -43q-28 0 -58 5q-52 -3 -85.5 -27t-33.5 -58q0 -35 32 -57t90 -22h123q76 0 121 -30zM126 249q50 -39 132 -39t131 39t49 104t-49 104t-131 39t-132 -39t-50 -104t50 -104zM373 -185
q48 16 75.5 44.5t27.5 65.5q0 44 -41 71t-110 27h-128q-65 0 -106 -28.5t-41 -73.5q0 -55 58.5 -88.5t157.5 -33.5q59 0 107 16z" />
    <glyph glyph-name="gbreve" unicode="&#x11f;" horiz-adv-x="496" 
d="M172 613q-32 32 -32 89h14q0 -49 29 -78t78 -29t78 29t29 78h14q0 -57 -32 -89t-89 -32t-89 32zM447 7q45 -30 45 -80q0 -42 -28.5 -74t-80.5 -50t-119 -18q-106 0 -168 36.5t-62 97.5q0 42 30.5 71.5t81.5 38.5q-38 10 -59.5 32.5t-21.5 52.5q0 38 29 63.5t75 32.5
q-52 17 -80.5 54.5t-28.5 88.5q0 71 54.5 114t143.5 43q72 0 121 -29q3 51 33 81t79 30l5 -14q-47 0 -74.5 -28t-29.5 -77q30 -21 46 -51.5t16 -68.5q0 -71 -53.5 -114t-142.5 -43q-28 0 -58 5q-52 -3 -85.5 -27t-33.5 -58q0 -35 32 -57t90 -22h123q76 0 121 -30zM126 249
q50 -39 132 -39t131 39t49 104t-49 104t-131 39t-132 -39t-50 -104t50 -104zM373 -185q48 16 75.5 44.5t27.5 65.5q0 44 -41 71t-110 27h-128q-65 0 -106 -28.5t-41 -73.5q0 -55 58.5 -88.5t157.5 -33.5q59 0 107 16z" />
    <glyph glyph-name="h" unicode="h" horiz-adv-x="574" 
d="M445.5 463.5q49.5 -47.5 49.5 -133.5v-329h-16v327q0 80 -46.5 124.5t-126.5 44.5q-57 0 -104 -27t-74 -71.5t-27 -96.5v-302h-16v730h16v-362q18 63 74.5 103t133.5 40q87 0 136.5 -47.5z" />
    <glyph glyph-name="i" unicode="i" horiz-adv-x="186" 
d="M77 604q-6 6 -6 16t6 16t16 6t16 -6t6 -16t-6 -16t-16 -6t-16 6zM101 0h-16v500h16v-500z" />
    <glyph glyph-name="dotlessi" unicode="&#x131;" horiz-adv-x="186" 
d="M101 0h-16v500h16v-500z" />
    <glyph glyph-name="iacute" unicode="&#xed;" horiz-adv-x="186" 
d="M101 0h-16v500h16v-500zM189 730l-88 -147h-15l85 147h18z" />
    <glyph glyph-name="icircumflex" unicode="&#xee;" horiz-adv-x="186" 
d="M101 0h-16v500h16v-500zM193 583l-100 129l-100 -129h-17l108 142h18l108 -142h-17z" />
    <glyph glyph-name="idieresis" unicode="&#xef;" horiz-adv-x="186" 
d="M27 604q-6 6 -6 16t6 16t16 6t16 -6t6 -16t-6 -16t-16 -6t-16 6zM127 604q-6 6 -6 16t6 16t16 6t16 -6t6 -16t-6 -16t-16 -6t-16 6zM101 0h-16v500h16v-500z" />
    <glyph glyph-name="i.loclTRK" horiz-adv-x="186" 
d="M77 604q-6 6 -6 16t6 16t16 6t16 -6t6 -16t-6 -16t-16 -6t-16 6zM101 0h-16v500h16v-500z" />
    <glyph glyph-name="igrave" unicode="&#xec;" horiz-adv-x="186" 
d="M101 0h-16v500h16v-500zM104 583h-15l-88 147h18z" />
    <glyph glyph-name="ij" unicode="&#x133;" horiz-adv-x="372" 
d="M77 604q-6 6 -6 16t6 16t16 6t16 -6t6 -16t-6 -16t-16 -6t-16 6zM101 0h-16v500h16v-500zM295 636q6 -6 6 -16t-6 -16t-16 -6t-16 6t-6 16t6 16t16 6t16 -6zM287 -64q0 -69 -36 -110t-96 -41q-21 0 -40 6t-31 16l5 14q12 -11 29.5 -16.5t36.5 -5.5q53 0 84.5 37.5
t31.5 99.5v564h16v-564z" />
    <glyph glyph-name="imacron" unicode="&#x12b;" horiz-adv-x="186" 
d="M168 605h-150v14h150v-14zM101 0h-16v500h16v-500z" />
    <glyph glyph-name="iogonek" unicode="&#x12f;" horiz-adv-x="186" 
d="M77 604q-6 6 -6 16t6 16t16 6t16 -6t6 -16t-6 -16t-16 -6t-16 6zM151 -180q-13 -13 -27 -17.5t-37 -4.5q-35 0 -60 22.5t-25 59.5q0 32 18.5 57.5t64.5 64.5v498h16v-500q-48 -41 -66 -65.5t-18 -54.5q0 -31 20.5 -49.5t49.5 -18.5q21 0 33 4.5t25 16.5z" />
    <glyph glyph-name="j" unicode="j" horiz-adv-x="186" 
d="M109 636q6 -6 6 -16t-6 -16t-16 -6t-16 6t-6 16t6 16t16 6t16 -6zM101 -64q0 -69 -36 -110t-96 -41q-21 0 -40 6t-31 16l5 14q12 -11 29.5 -16.5t36.5 -5.5q53 0 84.5 37.5t31.5 99.5v564h16v-564z" />
    <glyph glyph-name="k" unicode="k" horiz-adv-x="482" 
d="M233 285l-132 -123v-162h-16v730h16v-546l340 316h24l-220 -204l225 -296h-20z" />
    <glyph glyph-name="l" unicode="l" horiz-adv-x="237" 
d="M97 107q0 -54 18 -78.5t55 -24.5q21 0 33 3t25 9v-14q-22 -12 -58 -12q-45 0 -67 28t-22 89v623h16v-623z" />
    <glyph glyph-name="lacute" unicode="&#x13a;" horiz-adv-x="237" 
d="M143 930l-45 -137h-14l41 137h18zM97 107q0 -54 18 -78.5t55 -24.5q21 0 33 3t25 9v-14q-22 -12 -58 -12q-45 0 -67 28t-22 89v623h16v-623z" />
    <glyph glyph-name="lcaron" unicode="&#x13e;" horiz-adv-x="237" 
d="M97 107q0 -54 18 -78.5t55 -24.5q21 0 33 3t25 9v-14q-22 -12 -58 -12q-45 0 -67 28t-22 89v623h16v-623zM199 533h-14l26 197h17z" />
    <glyph glyph-name="ldot" unicode="&#x140;" horiz-adv-x="294" 
d="M97 107q0 -54 18 -78.5t55 -24.5q21 0 33 3t25 9v-14q-22 -12 -58 -12q-45 0 -67 28t-22 89v623h16v-623zM254 376q6 -6 6 -16t-6 -16t-16 -6t-16 6t-6 16t6 16t16 6t16 -6z" />
    <glyph glyph-name="lslash" unicode="&#x142;" horiz-adv-x="278" 
d="M233 7q12 3 25 9v-14q-22 -12 -58 -12q-45 0 -67 28t-22 89v230l-97 -70v17l97 70v376h16v-365l125 90v-17l-125 -90v-241q0 -54 18 -78.5t55 -24.5q21 0 33 3z" />
    <glyph glyph-name="m" unicode="m" horiz-adv-x="968" 
d="M839.5 464.5q49.5 -47.5 49.5 -133.5v-329h-16v327q0 80 -46.5 124.5t-126.5 44.5q-57 0 -104 -27t-74 -71.5t-27 -96.5v-303h-16v327q0 80 -46.5 124.5t-126.5 44.5q-57 0 -104 -27t-74 -71.5t-27 -96.5v-301h-16v500h16v-133q18 63 74.5 103t133.5 40q78 0 126.5 -39
t57.5 -110q15 66 72.5 108.5t137.5 42.5q87 0 136.5 -47.5z" />
    <glyph glyph-name="n" unicode="n" horiz-adv-x="574" 
d="M445.5 462.5q49.5 -47.5 49.5 -133.5v-329h-16v327q0 80 -46.5 124.5t-126.5 44.5q-57 0 -104 -27t-74 -71.5t-27 -96.5v-301h-16v500h16v-133q18 63 74.5 103t133.5 40q87 0 136.5 -47.5z" />
    <glyph glyph-name="nacute" unicode="&#x144;" horiz-adv-x="574" 
d="M445.5 462.5q49.5 -47.5 49.5 -133.5v-329h-16v327q0 80 -46.5 124.5t-126.5 44.5q-57 0 -104 -27t-74 -71.5t-27 -96.5v-301h-16v500h16v-133q18 63 74.5 103t133.5 40q87 0 136.5 -47.5zM389 730l-88 -147h-15l85 147h18z" />
    <glyph glyph-name="ncaron" unicode="&#x148;" horiz-adv-x="574" 
d="M445.5 462.5q49.5 -47.5 49.5 -133.5v-329h-16v327q0 80 -46.5 124.5t-126.5 44.5q-57 0 -104 -27t-74 -71.5t-27 -96.5v-301h-16v500h16v-133q18 63 74.5 103t133.5 40q87 0 136.5 -47.5zM302 583h-18l-108 142h17l100 -129l100 129h17z" />
    <glyph glyph-name="ntilde" unicode="&#xf1;" horiz-adv-x="574" 
d="M445.5 462.5q49.5 -47.5 49.5 -133.5v-329h-16v327q0 80 -46.5 124.5t-126.5 44.5q-57 0 -104 -27t-74 -71.5t-27 -96.5v-301h-16v500h16v-133q18 63 74.5 103t133.5 40q87 0 136.5 -47.5zM424 619q-20 -20 -57 -20q-27 0 -43.5 9t-35.5 27q-18 17 -32 25t-36 8
q-32 0 -46.5 -16.5t-22.5 -53.5h-15q8 44 28 64t57 20q27 0 43.5 -9t35.5 -27q16 -16 30.5 -24.5t36.5 -8.5q32 0 47 16.5t23 53.5h15q-8 -44 -28 -64z" />
    <glyph glyph-name="o" unicode="o" horiz-adv-x="569" 
d="M456 440.5q62 -69.5 62 -190.5t-62 -190.5t-171 -69.5t-171.5 69.5t-62.5 190.5t62.5 190.5t171.5 69.5t171 -69.5zM125.5 430.5q-58.5 -65.5 -58.5 -180.5t58.5 -180.5t159.5 -65.5t159 65.5t58 180.5t-58 180.5t-159 65.5t-159.5 -65.5z" />
    <glyph glyph-name="oacute" unicode="&#xf3;" horiz-adv-x="569" 
d="M456 440.5q62 -69.5 62 -190.5t-62 -190.5t-171 -69.5t-171.5 69.5t-62.5 190.5t62.5 190.5t171.5 69.5t171 -69.5zM125.5 430.5q-58.5 -65.5 -58.5 -180.5t58.5 -180.5t159.5 -65.5t159 65.5t58 180.5t-58 180.5t-159 65.5t-159.5 -65.5zM381 730l-88 -147h-15l85 147
h18z" />
    <glyph glyph-name="ocircumflex" unicode="&#xf4;" horiz-adv-x="569" 
d="M456 440.5q62 -69.5 62 -190.5t-62 -190.5t-171 -69.5t-171.5 69.5t-62.5 190.5t62.5 190.5t171.5 69.5t171 -69.5zM125.5 430.5q-58.5 -65.5 -58.5 -180.5t58.5 -180.5t159.5 -65.5t159 65.5t58 180.5t-58 180.5t-159 65.5t-159.5 -65.5zM385 583l-100 129l-100 -129
h-17l108 142h18l108 -142h-17z" />
    <glyph glyph-name="odieresis" unicode="&#xf6;" horiz-adv-x="569" 
d="M456 440.5q62 -69.5 62 -190.5t-62 -190.5t-171 -69.5t-171.5 69.5t-62.5 190.5t62.5 190.5t171.5 69.5t171 -69.5zM125.5 430.5q-58.5 -65.5 -58.5 -180.5t58.5 -180.5t159.5 -65.5t159 65.5t58 180.5t-58 180.5t-159 65.5t-159.5 -65.5zM208 636q6 -6 6 -16t-6 -16
t-16 -6t-16 6t-6 16t6 16t16 6t16 -6zM392 636q6 -6 6 -16t-6 -16t-16 -6t-16 6t-6 16t6 16t16 6t16 -6z" />
    <glyph glyph-name="ograve" unicode="&#xf2;" horiz-adv-x="569" 
d="M456 440.5q62 -69.5 62 -190.5t-62 -190.5t-171 -69.5t-171.5 69.5t-62.5 190.5t62.5 190.5t171.5 69.5t171 -69.5zM125.5 430.5q-58.5 -65.5 -58.5 -180.5t58.5 -180.5t159.5 -65.5t159 65.5t58 180.5t-58 180.5t-159 65.5t-159.5 -65.5zM296 583h-15l-88 147h18z" />
    <glyph glyph-name="ohungarumlaut" unicode="&#x151;" horiz-adv-x="569" 
d="M456 440.5q62 -69.5 62 -190.5t-62 -190.5t-171 -69.5t-171.5 69.5t-62.5 190.5t62.5 190.5t171.5 69.5t171 -69.5zM125.5 430.5q-58.5 -65.5 -58.5 -180.5t58.5 -180.5t159.5 -65.5t159 65.5t58 180.5t-58 180.5t-159 65.5t-159.5 -65.5zM217 583h-15l85 147h18z
M348 583h-15l85 147h18z" />
    <glyph glyph-name="omacron" unicode="&#x14d;" horiz-adv-x="569" 
d="M456 440.5q62 -69.5 62 -190.5t-62 -190.5t-171 -69.5t-171.5 69.5t-62.5 190.5t62.5 190.5t171.5 69.5t171 -69.5zM125.5 430.5q-58.5 -65.5 -58.5 -180.5t58.5 -180.5t159.5 -65.5t159 65.5t58 180.5t-58 180.5t-159 65.5t-159.5 -65.5zM429 605h-288v14h288v-14z" />
    <glyph glyph-name="oslash" unicode="&#xf8;" horiz-adv-x="570" 
d="M440 456l58 74h21l-67 -85q66 -69 66 -195q0 -121 -62 -190.5t-171 -69.5q-93 0 -153 51l-56 -71h-21l65 82q-33 34 -51 84.5t-18 113.5q0 121 62.5 190.5t171.5 69.5q95 0 155 -54zM131 65l25 33l275 346q-57 52 -146 52q-101 0 -159.5 -65.5t-58.5 -180.5
q0 -120 63 -185h1zM444 69.5q58 65.5 58 180.5q0 117 -60 183h-1l-18 -24l-281 -356q55 -49 143 -49q101 0 159 65.5z" />
    <glyph glyph-name="otilde" unicode="&#xf5;" horiz-adv-x="569" 
d="M456 440.5q62 -69.5 62 -190.5t-62 -190.5t-171 -69.5t-171.5 69.5t-62.5 190.5t62.5 190.5t171.5 69.5t171 -69.5zM125.5 430.5q-58.5 -65.5 -58.5 -180.5t58.5 -180.5t159.5 -65.5t159 65.5t58 180.5t-58 180.5t-159 65.5t-159.5 -65.5zM416 619q-20 -20 -57 -20
q-27 0 -43.5 9t-35.5 27q-18 17 -32 25t-36 8q-32 0 -46.5 -16.5t-22.5 -53.5h-15q8 44 28 64t57 20q27 0 43.5 -9t35.5 -27q16 -16 30.5 -24.5t36.5 -8.5q32 0 47 16.5t23 53.5h15q-8 -44 -28 -64z" />
    <glyph glyph-name="oe" unicode="&#x153;" horiz-adv-x="986" 
d="M938 239h-419q3 -111 59 -173t154 -62q63 0 113.5 30t75.5 82l13 -7q-26 -56 -80 -87.5t-122 -31.5q-89 0 -146.5 47.5t-75.5 134.5q-18 -87 -76.5 -134.5t-148.5 -47.5q-109 0 -171.5 69.5t-62.5 190.5t62.5 190.5t171.5 69.5q90 0 148.5 -47.5t76.5 -134.5
q18 87 74.5 134.5t142.5 47.5q99 0 155 -70t56 -194v-7zM444 69.5q58 65.5 58 180.5t-58 180.5t-159 65.5t-159.5 -65.5t-58.5 -180.5t58.5 -180.5t159.5 -65.5t159 65.5zM575 432q-55 -64 -56 -178h405q-2 114 -53 178t-144 64q-97 0 -152 -64z" />
    <glyph glyph-name="p" unicode="p" horiz-adv-x="585" 
d="M473.5 441q60.5 -69 60.5 -191t-60.5 -191t-168.5 -69q-78 0 -131.5 41t-72.5 117v-358h-16v710h16v-150q19 76 72 118t132 42q108 0 168.5 -69zM461 69q57 65 57 181t-57 181t-159 65q-92 0 -146.5 -65t-54.5 -177v-7q0 -113 54.5 -178t146.5 -65q102 0 159 65z" />
    <glyph glyph-name="thorn" unicode="&#xfe;" horiz-adv-x="585" 
d="M473.5 441q60.5 -69 60.5 -191t-60.5 -191t-168.5 -69q-79 0 -132 42t-72 118v-360h-16v940h16v-378q19 76 72.5 117t131.5 41q108 0 168.5 -69zM461 69q57 65 57 181t-57 181t-159 65q-92 0 -146.5 -65t-54.5 -178v-7q0 -112 54.5 -177t146.5 -65q102 0 159 65z" />
    <glyph glyph-name="q" unicode="q" horiz-adv-x="586" 
d="M501 500v-710h-16v358q-19 -76 -72.5 -117t-131.5 -41q-108 0 -168.5 69t-60.5 191t60.5 191t168.5 69q79 0 132 -42t72 -118v150h16zM430.5 69q54.5 65 54.5 178v7q0 112 -54.5 177t-146.5 65q-102 0 -159 -65t-57 -181t57 -181t159 -65q92 0 146.5 65z" />
    <glyph glyph-name="r" unicode="r" horiz-adv-x="343" 
d="M336 486l-9 -12q-11 11 -24.5 16.5t-39.5 5.5q-45 0 -82 -29t-58.5 -76.5t-21.5 -99.5v-291h-16v500h16v-130q17 61 61 100.5t103 39.5q47 0 71 -24z" />
    <glyph glyph-name="racute" unicode="&#x155;" horiz-adv-x="343" 
d="M336 486l-9 -12q-11 11 -24.5 16.5t-39.5 5.5q-45 0 -82 -29t-58.5 -76.5t-21.5 -99.5v-291h-16v500h16v-130q17 61 61 100.5t103 39.5q47 0 71 -24zM291 730l-88 -147h-15l85 147h18z" />
    <glyph glyph-name="rcaron" unicode="&#x159;" horiz-adv-x="343" 
d="M336 486l-9 -12q-11 11 -24.5 16.5t-39.5 5.5q-45 0 -82 -29t-58.5 -76.5t-21.5 -99.5v-291h-16v500h16v-130q17 61 61 100.5t103 39.5q47 0 71 -24zM204 583h-18l-108 142h17l100 -129l100 129h17z" />
    <glyph glyph-name="s" unicode="s" horiz-adv-x="479" 
d="M105.5 21q-54.5 31 -68.5 90l15 7q13 -55 63.5 -84.5t127.5 -29.5q79 0 126 32.5t47 87.5q0 46 -37.5 73t-132.5 43q-103 18 -145 48.5t-42 85.5q0 38 24 69t66 49t95 18q158 0 185 -125l-14 -8q-25 119 -171 119q-48 0 -86.5 -15.5t-60.5 -42.5t-22 -60q0 -50 39 -78.5
t137 -45.5q100 -17 140.5 -47t40.5 -83q0 -62 -51.5 -98t-140.5 -36q-80 0 -134.5 31z" />
    <glyph glyph-name="sacute" unicode="&#x15b;" horiz-adv-x="479" 
d="M105.5 21q-54.5 31 -68.5 90l15 7q13 -55 63.5 -84.5t127.5 -29.5q79 0 126 32.5t47 87.5q0 46 -37.5 73t-132.5 43q-103 18 -145 48.5t-42 85.5q0 38 24 69t66 49t95 18q158 0 185 -125l-14 -8q-25 119 -171 119q-48 0 -86.5 -15.5t-60.5 -42.5t-22 -60q0 -50 39 -78.5
t137 -45.5q100 -17 140.5 -47t40.5 -83q0 -62 -51.5 -98t-140.5 -36q-80 0 -134.5 31zM335 730l-88 -147h-15l85 147h18z" />
    <glyph glyph-name="scaron" unicode="&#x161;" horiz-adv-x="479" 
d="M105.5 21q-54.5 31 -68.5 90l15 7q13 -55 63.5 -84.5t127.5 -29.5q79 0 126 32.5t47 87.5q0 46 -37.5 73t-132.5 43q-103 18 -145 48.5t-42 85.5q0 38 24 69t66 49t95 18q158 0 185 -125l-14 -8q-25 119 -171 119q-48 0 -86.5 -15.5t-60.5 -42.5t-22 -60q0 -50 39 -78.5
t137 -45.5q100 -17 140.5 -47t40.5 -83q0 -62 -51.5 -98t-140.5 -36q-80 0 -134.5 31zM248 583h-18l-108 142h17l100 -129l100 129h17z" />
    <glyph glyph-name="germandbls" unicode="&#xdf;" horiz-adv-x="555" 
d="M458 321.5q48 -51.5 48 -139.5q0 -87 -51 -139.5t-135 -52.5q-33 0 -60.5 11.5t-44.5 32.5l9 10q19 -22 42 -31.5t54 -9.5q77 0 123.5 49t46.5 130q0 93 -53.5 140.5t-144.5 47.5h-44v14h44q75 0 122 47.5t47 131.5q0 74 -45 116t-123 42q-95 0 -144 -55t-49 -161v-505
h-15v516q0 108 53 163.5t155 55.5q86 0 135 -46t49 -128q0 -53 -20.5 -93.5t-55.5 -64t-78 -25.5v-1q87 -4 135 -55.5z" />
    <glyph glyph-name="longs" unicode="&#x17f;" horiz-adv-x="209" 
d="M81 592q0 70 28.5 106.5t80.5 36.5q24 0 37 -6t28 -19l-6 -12q-13 13 -25 18t-34 5q-93 0 -93 -129v-592h-16v592z" />
    <glyph glyph-name="t" unicode="t" horiz-adv-x="329" 
d="M327 28q-16 -17 -41.5 -27.5t-54.5 -10.5q-120 0 -120 136v360h-100v14h100v130l16 5v-135h193v-14h-193v-360q0 -61 25.5 -91.5t78.5 -30.5q54 0 88 37z" />
    <glyph glyph-name="tcaron" unicode="&#x165;" horiz-adv-x="329" 
d="M235 570h-14l26 197h17zM327 28q-16 -17 -41.5 -27.5t-54.5 -10.5q-120 0 -120 136v360h-100v14h100v130l16 5v-135h193v-14h-193v-360q0 -61 25.5 -91.5t78.5 -30.5q54 0 88 37z" />
    <glyph glyph-name="u" unicode="u" horiz-adv-x="564" 
d="M479 500v-500h-16v133q-18 -63 -74.5 -103t-134.5 -40q-83 0 -129 46t-46 131v333h16v-331q0 -79 42.5 -122t119.5 -43q67 0 113.5 31t69.5 75.5t23 85.5v304h16z" />
    <glyph glyph-name="uacute" unicode="&#xfa;" horiz-adv-x="564" 
d="M479 500v-500h-16v133q-18 -63 -74.5 -103t-134.5 -40q-83 0 -129 46t-46 131v333h16v-331q0 -79 42.5 -122t119.5 -43q67 0 113.5 31t69.5 75.5t23 85.5v304h16zM376 730l-88 -147h-15l85 147h18z" />
    <glyph glyph-name="ucircumflex" unicode="&#xfb;" horiz-adv-x="564" 
d="M479 500v-500h-16v133q-18 -63 -74.5 -103t-134.5 -40q-83 0 -129 46t-46 131v333h16v-331q0 -79 42.5 -122t119.5 -43q67 0 113.5 31t69.5 75.5t23 85.5v304h16zM380 583l-100 129l-100 -129h-17l108 142h18l108 -142h-17z" />
    <glyph glyph-name="udieresis" unicode="&#xfc;" horiz-adv-x="564" 
d="M479 500v-500h-16v133q-18 -63 -74.5 -103t-134.5 -40q-83 0 -129 46t-46 131v333h16v-331q0 -79 42.5 -122t119.5 -43q67 0 113.5 31t69.5 75.5t23 85.5v304h16zM203 636q6 -6 6 -16t-6 -16t-16 -6t-16 6t-6 16t6 16t16 6t16 -6zM387 636q6 -6 6 -16t-6 -16t-16 -6
t-16 6t-6 16t6 16t16 6t16 -6z" />
    <glyph glyph-name="ugrave" unicode="&#xf9;" horiz-adv-x="564" 
d="M479 500v-500h-16v133q-18 -63 -74.5 -103t-134.5 -40q-83 0 -129 46t-46 131v333h16v-331q0 -79 42.5 -122t119.5 -43q67 0 113.5 31t69.5 75.5t23 85.5v304h16zM291 583h-15l-88 147h18z" />
    <glyph glyph-name="uhungarumlaut" unicode="&#x171;" horiz-adv-x="564" 
d="M479 500v-500h-16v133q-18 -63 -74.5 -103t-134.5 -40q-83 0 -129 46t-46 131v333h16v-331q0 -79 42.5 -122t119.5 -43q67 0 113.5 31t69.5 75.5t23 85.5v304h16zM212 583h-15l85 147h18zM343 583h-15l85 147h18z" />
    <glyph glyph-name="umacron" unicode="&#x16b;" horiz-adv-x="564" 
d="M479 500v-500h-16v133q-18 -63 -74.5 -103t-134.5 -40q-83 0 -129 46t-46 131v333h16v-331q0 -79 42.5 -122t119.5 -43q67 0 113.5 31t69.5 75.5t23 85.5v304h16zM424 605h-288v14h288v-14z" />
    <glyph glyph-name="uni0123" unicode="&#x123;" horiz-adv-x="496" 
d="M272 587h-18l60 191h13zM447 7q45 -30 45 -80q0 -42 -28.5 -74t-80.5 -50t-119 -18q-106 0 -168 36.5t-62 97.5q0 42 30.5 71.5t81.5 38.5q-38 10 -59.5 32.5t-21.5 52.5q0 38 29 63.5t75 32.5q-52 17 -80.5 54.5t-28.5 88.5q0 71 54.5 114t143.5 43q72 0 121 -29
q3 51 33 81t79 30l5 -14q-47 0 -74.5 -28t-29.5 -77q30 -21 46 -51.5t16 -68.5q0 -71 -53.5 -114t-142.5 -43q-28 0 -58 5q-52 -3 -85.5 -27t-33.5 -58q0 -35 32 -57t90 -22h123q76 0 121 -30zM126 249q50 -39 132 -39t131 39t49 104t-49 104t-131 39t-132 -39t-50 -104
t50 -104zM373 -185q48 16 75.5 44.5t27.5 65.5q0 44 -41 71t-110 27h-128q-65 0 -106 -28.5t-41 -73.5q0 -55 58.5 -88.5t157.5 -33.5q59 0 107 16z" />
    <glyph glyph-name="uni0137" unicode="&#x137;" horiz-adv-x="482" 
d="M233 285l-132 -123v-162h-16v730h16v-546l340 316h24l-220 -204l225 -296h-20zM262 -229h-13l50 161h18z" />
    <glyph glyph-name="uni013C" unicode="&#x13c;" horiz-adv-x="237" 
d="M97 107q0 -54 18 -78.5t55 -24.5q21 0 33 3t25 9v-14q-22 -12 -58 -12q-45 0 -67 28t-22 89v623h16v-623zM131 -229h-13l50 161h18z" />
    <glyph glyph-name="uni0146" unicode="&#x146;" horiz-adv-x="574" 
d="M445.5 462.5q49.5 -47.5 49.5 -133.5v-329h-16v327q0 80 -46.5 124.5t-126.5 44.5q-57 0 -104 -27t-74 -71.5t-27 -96.5v-301h-16v500h16v-133q18 63 74.5 103t133.5 40q87 0 136.5 -47.5zM275 -229h-13l50 161h18z" />
    <glyph glyph-name="uni0157" unicode="&#x157;" horiz-adv-x="343" 
d="M336 486l-9 -12q-11 11 -24.5 16.5t-39.5 5.5q-45 0 -82 -29t-58.5 -76.5t-21.5 -99.5v-291h-16v500h16v-130q17 61 61 100.5t103 39.5q47 0 71 -24zM47 -229h-13l50 161h18z" />
    <glyph glyph-name="uni015F" unicode="&#x15f;" horiz-adv-x="479" 
d="M383.5 28q-48.5 -36 -132.5 -38q45 -25 63 -50t18 -58q0 -37 -24.5 -60.5t-63.5 -23.5q-32 0 -54.5 9.5t-39.5 32.5l8 12q18 -23 38.5 -32t47.5 -9q32 0 52.5 19.5t20.5 50.5q0 30 -19 55t-70 54q-76 2 -127 33.5t-64 87.5l15 7q13 -55 63.5 -84.5t127.5 -29.5
q79 0 126 32.5t47 87.5q0 46 -37.5 73t-132.5 43q-103 18 -145 48.5t-42 85.5q0 38 24 69t66 49t95 18q158 0 185 -125l-14 -8q-25 119 -171 119q-48 0 -86.5 -15.5t-60.5 -42.5t-22 -60q0 -50 39 -78.5t137 -45.5q100 -17 140.5 -47t40.5 -83q0 -60 -48.5 -96z" />
    <glyph glyph-name="uni0163" unicode="&#x163;" horiz-adv-x="329" 
d="M285.5 0.5q-25.5 -10.5 -54.5 -10.5q-15 0 -22 1q44 -26 62.5 -52t18.5 -57q0 -38 -23.5 -61t-62.5 -23q-34 0 -56 9.5t-40 32.5l8 12q19 -23 38.5 -32t49.5 -9q32 0 51.5 19t19.5 51q0 31 -20.5 57t-75.5 60q-68 27 -68 128v360h-100v14h100v130l16 5v-135h193v-14h-193
v-360q0 -61 25.5 -91.5t78.5 -30.5q54 0 88 37l8 -13q-16 -17 -41.5 -27.5z" />
    <glyph glyph-name="uni0219" unicode="&#x219;" horiz-adv-x="479" 
d="M105.5 21q-54.5 31 -68.5 90l15 7q13 -55 63.5 -84.5t127.5 -29.5q79 0 126 32.5t47 87.5q0 46 -37.5 73t-132.5 43q-103 18 -145 48.5t-42 85.5q0 38 24 69t66 49t95 18q158 0 185 -125l-14 -8q-25 119 -171 119q-48 0 -86.5 -15.5t-60.5 -42.5t-22 -60q0 -50 39 -78.5
t137 -45.5q100 -17 140.5 -47t40.5 -83q0 -62 -51.5 -98t-140.5 -36q-80 0 -134.5 31zM204 -229h-13l50 161h18z" />
    <glyph glyph-name="uni021B" unicode="&#x21b;" horiz-adv-x="329" 
d="M327 28q-16 -17 -41.5 -27.5t-54.5 -10.5q-120 0 -120 136v360h-100v14h100v130l16 5v-135h193v-14h-193v-360q0 -61 25.5 -91.5t78.5 -30.5q54 0 88 37zM172 -229h-13l50 161h18z" />
    <glyph glyph-name="uogonek" unicode="&#x173;" horiz-adv-x="564" 
d="M503 -178q-30 -24 -73 -24q-39 0 -63.5 19.5t-24.5 54.5q0 38 26.5 66.5t94.5 68.5v126q-18 -63 -74.5 -103t-134.5 -40q-83 0 -129 46t-46 131v333h16v-331q0 -79 42.5 -122t119.5 -43q67 0 113.5 31t69.5 75.5t23 85.5v304h16v-500q-71 -42 -96.5 -67t-25.5 -61
q0 -28 20 -44t53 -16q24 0 39 5t26 15z" />
    <glyph glyph-name="uring" unicode="&#x16f;" horiz-adv-x="564" 
d="M479 500v-500h-16v133q-18 -63 -74.5 -103t-134.5 -40q-83 0 -129 46t-46 131v333h16v-331q0 -79 42.5 -122t119.5 -43q67 0 113.5 31t69.5 75.5t23 85.5v304h16zM336.5 712q23.5 -23 23.5 -57t-23.5 -57t-58.5 -23t-58.5 23t-23.5 57t23.5 57t58.5 23t58.5 -23zM231 702
q-19 -19 -19 -47t19 -47t47 -19t47 19t19 47t-19 47t-47 19t-47 -19z" />
    <glyph glyph-name="v" unicode="v" horiz-adv-x="481" 
d="M459 500l-210 -500h-17l-210 500h18l201 -480l200 480h18z" />
    <glyph glyph-name="w" unicode="w" horiz-adv-x="779" 
d="M750 500l-166 -500h-16l-178 477l-179 -477h-16l-166 500h17l157 -477l178 477h17l178 -477l157 477h17z" />
    <glyph glyph-name="x" unicode="x" horiz-adv-x="472" 
d="M438 0l-204 247l-193 -247h-22l204 260l-197 240h24l185 -225l176 225h22l-187 -238l216 -262h-24z" />
    <glyph glyph-name="y" unicode="y" horiz-adv-x="481" 
d="M210 -101q-26 -64 -57 -89t-79 -25q-27 0 -47.5 8t-30.5 24l9 13q20 -31 70 -31q41 0 68.5 22.5t51.5 80.5l40 97l-213 501h18l185 -440l18 -42l17 43l181 439h18z" />
    <glyph glyph-name="yacute" unicode="&#xfd;" horiz-adv-x="481" 
d="M210 -101q-26 -64 -57 -89t-79 -25q-27 0 -47.5 8t-30.5 24l9 13q20 -31 70 -31q41 0 68.5 22.5t51.5 80.5l40 97l-213 501h18l185 -440l18 -42l17 43l181 439h18zM340 730l-88 -147h-15l85 147h18z" />
    <glyph glyph-name="ydieresis" unicode="&#xff;" horiz-adv-x="481" 
d="M210 -101q-26 -64 -57 -89t-79 -25q-27 0 -47.5 8t-30.5 24l9 13q20 -31 70 -31q41 0 68.5 22.5t51.5 80.5l40 97l-213 501h18l185 -440l18 -42l17 43l181 439h18zM167 636q6 -6 6 -16t-6 -16t-16 -6t-16 6t-6 16t6 16t16 6t16 -6zM351 636q6 -6 6 -16t-6 -16t-16 -6
t-16 6t-6 16t6 16t16 6t16 -6z" />
    <glyph glyph-name="z" unicode="z" horiz-adv-x="472" 
d="M39 14l331 423l40 49h-379v14h398v-14l-312 -403l-57 -69h385v-14h-406v14z" />
    <glyph glyph-name="zacute" unicode="&#x17a;" horiz-adv-x="472" 
d="M39 14l331 423l40 49h-379v14h398v-14l-312 -403l-57 -69h385v-14h-406v14zM333 730l-88 -147h-15l85 147h18z" />
    <glyph glyph-name="zcaron" unicode="&#x17e;" horiz-adv-x="472" 
d="M39 14l331 423l40 49h-379v14h398v-14l-312 -403l-57 -69h385v-14h-406v14zM246 583h-18l-108 142h17l100 -129l100 129h17z" />
    <glyph glyph-name="zdotaccent" unicode="&#x17c;" horiz-adv-x="472" 
d="M39 14l331 423l40 49h-379v14h398v-14l-312 -403l-57 -69h385v-14h-406v14zM253 636q6 -6 6 -16t-6 -16t-16 -6t-16 6t-6 16t6 16t16 6t16 -6z" />
    <glyph glyph-name="germandbls.calt" horiz-adv-x="639" 
d="M545 304.5q50 -39.5 50 -124.5q0 -83 -51.5 -134t-137.5 -51q-53 0 -94 17.5t-56 42.5l11 12q16 -26 51.5 -42.5t87.5 -16.5q77 0 125 48t48 124q0 78 -45.5 114t-142.5 36h-92v14l243 302h-231q-90 0 -143 -56t-53 -148v-442h-16v443q0 99 56.5 158t155.5 59h249v-15
l-243 -301h74q104 0 154 -39.5z" />
    <glyph glyph-name="longs.component" horiz-adv-x="189" 
d="M81 592q0 70 28.5 106.5t80.5 36.5q25 0 38 -5.5t27 -17.5l-6 -14q-13 13 -25 18t-34 5q-93 0 -93 -129v-592h-16v592z" />
    <glyph glyph-name="iacute_j.loclNLD" horiz-adv-x="372" 
d="M189 730l-88 -147h-15l85 147h18zM375 730l-88 -147h-15l85 147h18zM287 -64q0 -69 -36 -110t-96 -41q-21 0 -40 6t-31 16l5 14q12 -11 29.5 -16.5t36.5 -5.5q53 0 84.5 37.5t31.5 99.5v564h16v-564zM101 0h-16v500h16v-500z" />
    <glyph glyph-name="g.ss01" horiz-adv-x="585" 
d="M500 499v-491q0 -105 -60.5 -164t-168.5 -59q-83 0 -137.5 33.5t-66.5 91.5l16 7q10 -56 59.5 -87t128.5 -31q100 0 156.5 55t56.5 153v141q-19 -76 -72.5 -117t-131.5 -41q-107 0 -168 69t-61 191t61 191t168 69q78 0 131.5 -41t72.5 -117v147h16zM429.5 69
q54.5 65 54.5 177v13q-1 109 -55.5 173t-145.5 64q-101 0 -158 -65t-57 -181t57 -181t158 -65q92 0 146.5 65z" />
    <glyph glyph-name="gbreve.ss01" horiz-adv-x="585" 
d="M500 499v-491q0 -105 -60.5 -164t-168.5 -59q-83 0 -137.5 33.5t-66.5 91.5l16 7q10 -56 59.5 -87t128.5 -31q100 0 156.5 55t56.5 153v141q-19 -76 -72.5 -117t-131.5 -41q-107 0 -168 69t-61 191t61 191t168 69q78 0 131.5 -41t72.5 -117v147h16zM429.5 69
q54.5 65 54.5 177v13q-1 109 -55.5 173t-145.5 64q-101 0 -158 -65t-57 -181t57 -181t158 -65q92 0 146.5 65zM371 613q-32 -32 -89 -32t-89 32t-32 89h14q0 -49 29 -78t78 -29t78 29t29 78h14q0 -57 -32 -89z" />
    <glyph glyph-name="gcommaaccent.ss01" horiz-adv-x="585" 
d="M293 587h-18l60 191h13zM500 499v-491q0 -105 -60.5 -164t-168.5 -59q-83 0 -137.5 33.5t-66.5 91.5l16 7q10 -56 59.5 -87t128.5 -31q100 0 156.5 55t56.5 153v141q-19 -76 -72.5 -117t-131.5 -41q-107 0 -168 69t-61 191t61 191t168 69q78 0 131.5 -41t72.5 -117v147
h16zM429.5 69q54.5 65 54.5 177v13q-1 109 -55.5 173t-145.5 64q-101 0 -158 -65t-57 -181t57 -181t158 -65q92 0 146.5 65z" />
    <glyph glyph-name="l.ss02" horiz-adv-x="194" 
d="M105 0h-16v730h16v-730z" />
    <glyph glyph-name="lacute.ss02" horiz-adv-x="194" 
d="M149 930l-45 -137h-14l41 137h18zM105 0h-16v730h16v-730z" />
    <glyph glyph-name="lcaron.ss02" horiz-adv-x="202" 
d="M105 0h-16v730h16v-730zM200 533h-14l26 197h17z" />
    <glyph glyph-name="lcommaaccent.ss02" horiz-adv-x="194" 
d="M105 0h-16v730h16v-730zM54 -229h-13l50 161h18z" />
    <glyph glyph-name="ldot.ss02" horiz-adv-x="264" 
d="M105 0h-16v730h16v-730zM245 376q6 -6 6 -16t-6 -16t-16 -6t-16 6t-6 16t6 16t16 6t16 -6z" />
    <glyph glyph-name="lslash.ss02" horiz-adv-x="212" 
d="M191 400l-73 -53v-347h-16v335l-73 -52v17l73 53v377h16v-366l73 53v-17z" />
    <glyph glyph-name="n.swsh" horiz-adv-x="608" 
d="M584 -72q13 4 26 15l-3 -17q-8 -7 -23 -11.5t-31 -4.5q-74 0 -74 70v347q0 80 -46.5 124.5t-126.5 44.5q-57 0 -104 -27t-74 -71.5t-27 -96.5v-301h-16v500h16v-133q18 63 74.5 103t133.5 40q87 0 136.5 -47.5t49.5 -133.5v-349q0 -56 58 -56q18 0 31 4z" />
    <glyph glyph-name="nacute.swsh" horiz-adv-x="608" 
d="M584 -72q13 4 26 15l-3 -17q-8 -7 -23 -11.5t-31 -4.5q-74 0 -74 70v347q0 80 -46.5 124.5t-126.5 44.5q-57 0 -104 -27t-74 -71.5t-27 -96.5v-301h-16v500h16v-133q18 63 74.5 103t133.5 40q87 0 136.5 -47.5t49.5 -133.5v-349q0 -56 58 -56q18 0 31 4zM389 730
l-88 -147h-15l85 147h18z" />
    <glyph glyph-name="ncaron.swsh" horiz-adv-x="608" 
d="M584 -72q13 4 26 15l-3 -17q-8 -7 -23 -11.5t-31 -4.5q-74 0 -74 70v347q0 80 -46.5 124.5t-126.5 44.5q-57 0 -104 -27t-74 -71.5t-27 -96.5v-301h-16v500h16v-133q18 63 74.5 103t133.5 40q87 0 136.5 -47.5t49.5 -133.5v-349q0 -56 58 -56q18 0 31 4zM302 583h-18
l-108 142h17l100 -129l100 129h17z" />
    <glyph glyph-name="ncommaaccent.swsh" horiz-adv-x="608" 
d="M584 -72q13 4 26 15l-3 -17q-8 -7 -23 -11.5t-31 -4.5q-74 0 -74 70v347q0 80 -46.5 124.5t-126.5 44.5q-57 0 -104 -27t-74 -71.5t-27 -96.5v-301h-16v500h16v-133q18 63 74.5 103t133.5 40q87 0 136.5 -47.5t49.5 -133.5v-349q0 -56 58 -56q18 0 31 4zM255 -229h-13
l50 161h18z" />
    <glyph glyph-name="ntilde.swsh" horiz-adv-x="608" 
d="M584 -72q13 4 26 15l-3 -17q-8 -7 -23 -11.5t-31 -4.5q-74 0 -74 70v347q0 80 -46.5 124.5t-126.5 44.5q-57 0 -104 -27t-74 -71.5t-27 -96.5v-301h-16v500h16v-133q18 63 74.5 103t133.5 40q87 0 136.5 -47.5t49.5 -133.5v-349q0 -56 58 -56q18 0 31 4zM424 619
q-20 -20 -57 -20q-27 0 -43.5 9t-35.5 27q-18 17 -32 25t-36 8q-32 0 -46.5 -16.5t-22.5 -53.5h-15q8 44 28 64t57 20q27 0 43.5 -9t35.5 -27q16 -16 30.5 -24.5t36.5 -8.5q32 0 47 16.5t23 53.5h15q-8 -44 -28 -64z" />
    <glyph glyph-name="r.swsh" horiz-adv-x="418" 
d="M300 501.5q21 -8.5 47 -25.5q25 -15 44 -24t47 -12l-7 -11q-29 4 -49 13t-43 24q-24 15 -42.5 22.5t-45.5 7.5q-66 0 -107.5 -41.5t-42.5 -120.5v-334h-16v500h16v-99q15 52 53 80.5t94 28.5q31 0 52 -8.5z" />
    <glyph glyph-name="racute.swsh" horiz-adv-x="418" 
d="M300 501.5q21 -8.5 47 -25.5q25 -15 44 -24t47 -12l-7 -11q-29 4 -49 13t-43 24q-24 15 -42.5 22.5t-45.5 7.5q-66 0 -107.5 -41.5t-42.5 -120.5v-334h-16v500h16v-99q15 52 53 80.5t94 28.5q31 0 52 -8.5zM291 730l-88 -147h-15l85 147h18z" />
    <glyph glyph-name="rcaron.swsh" horiz-adv-x="418" 
d="M300 501.5q21 -8.5 47 -25.5q25 -15 44 -24t47 -12l-7 -11q-29 4 -49 13t-43 24q-24 15 -42.5 22.5t-45.5 7.5q-66 0 -107.5 -41.5t-42.5 -120.5v-334h-16v500h16v-99q15 52 53 80.5t94 28.5q31 0 52 -8.5zM204 583h-18l-108 142h17l100 -129l100 129h17z" />
    <glyph glyph-name="rcommaaccent.swsh" horiz-adv-x="418" 
d="M300 501.5q21 -8.5 47 -25.5q25 -15 44 -24t47 -12l-7 -11q-29 4 -49 13t-43 24q-24 15 -42.5 22.5t-45.5 7.5q-66 0 -107.5 -41.5t-42.5 -120.5v-334h-16v500h16v-99q15 52 53 80.5t94 28.5q31 0 52 -8.5zM47 -229h-13l50 161h18z" />
    <glyph glyph-name="t.swsh" horiz-adv-x="409" 
d="M127 486v-360q0 -61 25.5 -91.5t78.5 -30.5q54 0 88 37l8 -13q-16 -17 -41.5 -27.5t-54.5 -10.5q-120 0 -120 136v360h-100v14h100v130l16 5v-135h175q57 0 94 12.5t57 42.5l8 -11q-39 -58 -154 -58h-180z" />
    <glyph glyph-name="tcaron.swsh" horiz-adv-x="409" 
d="M235 570h-14l26 197h17zM127 486v-360q0 -61 25.5 -91.5t78.5 -30.5q54 0 88 37l8 -13q-16 -17 -41.5 -27.5t-54.5 -10.5q-120 0 -120 136v360h-100v14h100v130l16 5v-135h175q57 0 94 12.5t57 42.5l8 -11q-39 -58 -154 -58h-180z" />
    <glyph glyph-name="uni0163.swsh" horiz-adv-x="329" 
d="M127 486v-360q0 -61 25.5 -91.5t78.5 -30.5q54 0 88 37l8 -13q-16 -17 -41.5 -27.5t-54.5 -10.5h-5q43 -26 61 -51.5t18 -56.5q0 -38 -23.5 -61t-62.5 -23q-34 0 -56 9.5t-40 32.5l8 12q19 -23 38.5 -32t49.5 -9q32 0 51.5 19t19.5 51q0 30 -18.5 54.5t-67.5 56.5
q-93 15 -93 134v360h-100v14h100v130l16 5v-135h175q57 0 94 12.5t57 42.5l8 -11q-39 -58 -154 -58h-180z" />
    <glyph glyph-name="uni021B.swsh" horiz-adv-x="409" 
d="M127 486v-360q0 -61 25.5 -91.5t78.5 -30.5q54 0 88 37l8 -13q-16 -17 -41.5 -27.5t-54.5 -10.5q-120 0 -120 136v360h-100v14h100v130l16 5v-135h175q57 0 94 12.5t57 42.5l8 -11q-39 -58 -154 -58h-180zM172 -229h-13l50 161h18z" />
    <glyph glyph-name="y.swsh" horiz-adv-x="521" 
d="M26.5 -207q-20.5 8 -30.5 24l9 13q20 -31 70 -31q41 0 68.5 22.5t51.5 80.5l40 97l-213 501h18l185 -440l18 -42l17 43l167 406q24 57 51 80t66 23q20 0 33.5 -5.5t29.5 -18.5l-5 -16q-16 13 -28.5 17.5t-29.5 4.5q-36 0 -59.5 -24t-43.5 -71l-231 -558q-26 -64 -57 -89
t-79 -25q-27 0 -47.5 8z" />
    <glyph glyph-name="yacute.swsh" horiz-adv-x="521" 
d="M26.5 -207q-20.5 8 -30.5 24l9 13q20 -31 70 -31q41 0 68.5 22.5t51.5 80.5l40 97l-213 501h18l185 -440l18 -42l17 43l167 406q24 57 51 80t66 23q20 0 33.5 -5.5t29.5 -18.5l-5 -16q-16 13 -28.5 17.5t-29.5 4.5q-36 0 -59.5 -24t-43.5 -71l-231 -558q-26 -64 -57 -89
t-79 -25q-27 0 -47.5 8zM340 730l-88 -147h-15l85 147h18z" />
    <glyph glyph-name="ydieresis.swsh" horiz-adv-x="521" 
d="M26.5 -207q-20.5 8 -30.5 24l9 13q20 -31 70 -31q41 0 68.5 22.5t51.5 80.5l40 97l-213 501h18l185 -440l18 -42l17 43l167 406q24 57 51 80t66 23q20 0 33.5 -5.5t29.5 -18.5l-5 -16q-16 13 -28.5 17.5t-29.5 4.5q-36 0 -59.5 -24t-43.5 -71l-231 -558q-26 -64 -57 -89
t-79 -25q-27 0 -47.5 8zM167 636q6 -6 6 -16t-6 -16t-16 -6t-16 6t-6 16t6 16t16 6t16 -6zM351 636q6 -6 6 -16t-6 -16t-16 -6t-16 6t-6 16t6 16t16 6t16 -6z" />
    <glyph glyph-name="c_t" horiz-adv-x="823" 
d="M821 28q-16 -17 -41.5 -27.5t-54.5 -10.5q-120 0 -120 136v456q0 71 -24.5 105t-73.5 34q-44 0 -70.5 -30.5t-26.5 -98.5q0 -37 15.5 -85.5t53.5 -133.5l-15 -7q-16 62 -64 96t-119 34q-101 0 -157.5 -65.5t-56.5 -180.5q0 -116 55 -181t156 -65q72 0 126 38t64 100
l14 -5q-13 -66 -70 -106.5t-134 -40.5q-108 0 -167.5 69t-59.5 191t61 191t169 69q90 0 145 -50q-32 68 -32 135q0 71 31 105.5t82 34.5q56 0 85 -36t29 -107v-92h193v-14h-193v-360q0 -61 25.5 -91.5t78.5 -30.5q54 0 88 37z" />
    <glyph glyph-name="s_t" horiz-adv-x="783" 
d="M781 28q-16 -17 -41.5 -27.5t-54.5 -10.5q-120 0 -120 136v456q0 139 -100 139q-45 0 -70 -32.5t-25 -97.5q0 -72 62 -205l-15 -7q-28 117 -173 117q-48 0 -86.5 -15.5t-60.5 -42.5t-22 -60q0 -50 39 -78.5t137 -45.5q100 -17 140.5 -47t40.5 -83q0 -62 -51.5 -98
t-140.5 -36q-80 0 -134.5 31t-68.5 90l15 7q13 -55 63.5 -84.5t127.5 -29.5q79 0 126 32.5t47 87.5q0 46 -37.5 72t-132.5 43q-104 18 -145.5 49t-41.5 86q0 38 24 69t66 49t95 18q93 0 141 -42q-14 30 -22.5 63t-8.5 59q0 71 28 108t83 37q56 0 86 -36t30 -107v-92h193v-14
h-193v-360q0 -61 25.5 -91.5t78.5 -30.5q54 0 88 37z" />
    <glyph glyph-name="longs_i" horiz-adv-x="375" 
d="M81 592q0 70 28.5 106.5t80.5 36.5q25 0 38 -5.5t27 -17.5l-6 -14q-13 13 -25 18t-34 5q-93 0 -93 -129v-592h-16v592zM266 604q-6 6 -6 16t6 16t16 6t16 -6t6 -16t-6 -16t-16 -6t-16 6zM290 0h-16v500h16v-500z" />
    <glyph glyph-name="longs_l" horiz-adv-x="446" 
d="M81 592q0 70 28.5 106.5t80.5 36.5q24 0 37 -6t28 -19l-6 -12q-13 13 -25 18t-34 5q-93 0 -93 -129v-592h-16v592zM306 107q0 -54 18 -78.5t55 -24.5q21 0 33 3t25 9v-14q-22 -12 -58 -12q-45 0 -67 28t-22 89v623h16v-623z" />
    <glyph glyph-name="longs_s" horiz-adv-x="678" 
d="M81 592q0 70 28.5 106.5t80.5 36.5q24 0 37 -6t28 -19l-6 -12q-13 13 -25 18t-34 5q-93 0 -93 -129v-592h-16v592zM304.5 21q-54.5 31 -68.5 90l15 7q13 -55 63.5 -84.5t127.5 -29.5q79 0 126 32.5t47 87.5q0 46 -37.5 73t-132.5 43q-103 18 -145 48.5t-42 85.5
q0 38 24 69t66 49t95 18q158 0 185 -125l-14 -8q-25 119 -171 119q-48 0 -86.5 -15.5t-60.5 -42.5t-22 -60q0 -50 39 -78.5t137 -45.5q100 -17 140.5 -47t40.5 -83q0 -62 -51.5 -98t-140.5 -36q-80 0 -134.5 31z" />
    <glyph glyph-name="fl.ss02" horiz-adv-x="514" 
d="M159 684.5q-31 -36.5 -31 -101.5v-83h186v-14h-186v-486h-16v486h-100v14h100v83q0 71 35.5 111.5t97.5 40.5q49 0 77 -31l-7 -12q-13 16 -29.5 22.5t-40.5 6.5q-55 0 -86 -36.5zM425 0h-16v730h16v-730z" />
    <glyph glyph-name="longs_l.ss02" horiz-adv-x="395" 
d="M81 592q0 70 28.5 106.5t80.5 36.5q24 0 37 -6t28 -19l-6 -12q-13 13 -25 18t-34 5q-93 0 -93 -129v-592h-16v592zM306 0h-16v730h16v-730z" />
    <glyph glyph-name="Gcommaaccent.sc" horiz-adv-x="601" 
d="M310 265h229v-265h-14v168q-16 -84 -71.5 -130t-146.5 -46q-77 0 -134.5 35t-89 100t-31.5 153q0 87 33.5 152t93 100.5t135.5 35.5q181 0 226 -147l-14 -7q-43 140 -212 140q-71 0 -127 -33.5t-87.5 -96t-31.5 -144.5q0 -84 29.5 -145.5t83.5 -95t126 -33.5
q80 0 129 36.5t69 91t20 113.5v4h-215v14zM291 -229h-13l50 161h18z" />
    <glyph glyph-name="Kcommaaccent.sc" horiz-adv-x="499" 
d="M235 324l-129 -126v-198h-16v560h16v-340l347 340h22l-228 -225l237 -335h-21zM231 -229h-13l50 161h18z" />
    <glyph glyph-name="Lcommaaccent.sc" horiz-adv-x="485" 
d="M471 14v-14h-381v560h16v-546h365zM252 -229h-13l50 161h18z" />
    <glyph glyph-name="Ncommaaccent.sc" horiz-adv-x="618" 
d="M528 0h-22l-373 505l-27 36h-1l1 -50v-491h-16v560h22l365 -494l35 -47h1l-1 50v491h16v-560zM261 -229h-13l50 161h18z" />
    <glyph glyph-name="Rcommaaccent.sc" horiz-adv-x="545" 
d="M490 0l-171 254h-18h-195v-254h-16v560h211q86 0 135 -40.5t49 -112.5q0 -64 -39 -103.5t-109 -47.5l174 -256h-21zM301 268q79 0 123.5 37t44.5 102t-44.5 102t-123.5 37h-195v-278h195zM260 -229h-13l50 161h18z" />
    <glyph glyph-name="Scedilla.sc" horiz-adv-x="530" 
d="M459.5 61q-26.5 -33 -74.5 -51t-110 -18h-9q47 -25 65.5 -51t18.5 -59q0 -37 -24.5 -60.5t-63.5 -23.5q-32 0 -54.5 9.5t-39.5 32.5l8 12q18 -23 38.5 -32t47.5 -9q32 0 52.5 19.5t20.5 50.5t-20 56.5t-74 55.5q-82 6 -135 43t-66 104l15 8q12 -71 71.5 -106.5
t148.5 -35.5q85 0 140 34.5t55 95.5q0 44 -27 69.5t-66.5 37.5t-106.5 25q-70 13 -112.5 26.5t-72 43t-29.5 79.5q0 41 25 75.5t72 55t110 20.5q172 0 213 -129l-15 -9q-34 124 -198 124q-57 0 -100.5 -18t-67 -49t-23.5 -70q0 -44 27 -70t66.5 -38t106.5 -25
q71 -13 113.5 -26.5t71.5 -42.5t29 -79q0 -42 -26.5 -75z" />
    <glyph glyph-name="Scommaaccent.sc" horiz-adv-x="530" 
d="M476 439l-15 -9q-34 124 -198 124q-57 0 -100.5 -18t-67 -49t-23.5 -70q0 -44 27 -70t66.5 -38t106.5 -25q71 -13 113.5 -26.5t71.5 -42.5t29 -79q0 -42 -26.5 -75t-74.5 -51t-110 -18q-95 0 -158 37t-77 111l15 8q12 -71 71.5 -106.5t148.5 -35.5q85 0 140 34.5t55 95.5
q0 44 -27 69.5t-66.5 37.5t-106.5 25q-70 13 -112.5 26.5t-72 43t-29.5 79.5q0 41 25 75.5t72 55t110 20.5q172 0 213 -129zM230 -229h-13l50 161h18z" />
    <glyph glyph-name="uni0162.sc" horiz-adv-x="486" 
d="M251 546v-544q44 -27 64 -54t20 -65t-24.5 -61.5t-65.5 -23.5q-33 0 -55 11.5t-38 32.5l9 10q17 -21 36 -31t48 -10q34 0 54 20t20 52q0 36 -20 62.5t-64 54.5v546h-222v14h460v-14h-222z" />
    <glyph glyph-name="uni021A.sc" horiz-adv-x="486" 
d="M473 546h-222v-546h-16v546h-222v14h460v-14zM193 -229h-13l50 161h18z" />
    <glyph glyph-name="a.sc" horiz-adv-x="524" 
d="M408 197h-292l-85 -197h-17l239 560h18l239 -560h-17zM402 211l-125 292l-15 40l-15 -40l-125 -292h280z" />
    <glyph glyph-name="aacute.sc" horiz-adv-x="524" 
d="M276 643h-15l75 148h18zM408 197h-292l-85 -197h-17l239 560h18l239 -560h-17zM402 211l-125 292l-15 40l-15 -40l-125 -292h280z" />
    <glyph glyph-name="abreve.sc" horiz-adv-x="524" 
d="M408 197h-292l-85 -197h-17l239 560h18l239 -560h-17zM402 211l-125 292l-15 40l-15 -40l-125 -292h280zM351 673q-32 -32 -89 -32t-89 32t-32 89h14q0 -49 29 -78t78 -29t78 29t29 78h14q0 -57 -32 -89z" />
    <glyph glyph-name="acircumflex.sc" horiz-adv-x="524" 
d="M160 643h-17l109 142h20l109 -142h-17l-102 129zM408 197h-292l-85 -197h-17l239 560h18l239 -560h-17zM402 211l-125 292l-15 40l-15 -40l-125 -292h280z" />
    <glyph glyph-name="adieresis.sc" horiz-adv-x="524" 
d="M408 197h-292l-85 -197h-17l239 560h18l239 -560h-17zM402 211l-125 292l-15 40l-15 -40l-125 -292h280zM185 696q6 -6 6 -16t-6 -16t-16 -6t-16 6t-6 16t6 16t16 6t16 -6zM369 696q6 -6 6 -16t-6 -16t-16 -6t-16 6t-6 16t6 16t16 6t16 -6z" />
    <glyph glyph-name="agrave.sc" horiz-adv-x="524" 
d="M245 643l-78 148h18l75 -148h-15zM408 197h-292l-85 -197h-17l239 560h18l239 -560h-17zM402 211l-125 292l-15 40l-15 -40l-125 -292h280z" />
    <glyph glyph-name="amacron.sc" horiz-adv-x="524" 
d="M408 197h-292l-85 -197h-17l239 560h18l239 -560h-17zM402 211l-125 292l-15 40l-15 -40l-125 -292h280zM406 665h-288v14h288v-14z" />
    <glyph glyph-name="aogonek.sc" horiz-adv-x="524" 
d="M523 -181q-31 -21 -72 -21q-38 0 -63 20.5t-25 57.5q0 40 29 70.5t99 58.5l-83 192h-292l-85 -197h-17l239 560h18l239 -560q-72 -28 -102 -57t-30 -67q0 -31 20.5 -47.5t52.5 -16.5q41 0 66 20zM402 211l-125 292l-15 40l-15 -40l-125 -292h280z" />
    <glyph glyph-name="aring.sc" horiz-adv-x="524" 
d="M408 197h-292l-85 -197h-17l234 547q-26 5 -42 23t-16 46q0 31 20 50.5t52 19.5t52 -19.5t20 -50.5q0 -28 -16 -46t-42 -23l234 -547h-17zM221.5 575.5q15.5 -15.5 40.5 -15.5q26 0 41 15.5t15 40.5q0 26 -15 41t-41 15q-25 0 -40.5 -15t-15.5 -41q0 -25 15.5 -40.5z
M402 211l-125 292l-15 40l-15 -40l-125 -292h280z" />
    <glyph glyph-name="atilde.sc" horiz-adv-x="524" 
d="M408 197h-292l-85 -197h-17l239 560h18l239 -560h-17zM402 211l-125 292l-15 40l-15 -40l-125 -292h280zM393 679q-20 -20 -57 -20q-27 0 -43.5 9t-35.5 27q-18 17 -32 25t-36 8q-32 0 -46.5 -16.5t-22.5 -53.5h-15q8 44 28 64t57 20q27 0 43.5 -9t35.5 -27
q16 -16 30.5 -24.5t36.5 -8.5q32 0 47 16.5t23 53.5h15q-8 -44 -28 -64z" />
    <glyph glyph-name="ae.sc" horiz-adv-x="769" 
d="M739 14v-14h-368v214h-213l-128 -214h-19l335 560h379v-14h-338v-255h270v-14h-270v-263h352zM371 228v318h-14l-191 -318h205z" />
    <glyph glyph-name="b.sc" horiz-adv-x="543" 
d="M90 560h205q88 0 133 -36t45 -106q0 -55 -30 -91t-85 -44v-1q64 -8 98 -44t34 -94q0 -71 -49.5 -107.5t-145.5 -36.5h-205v560zM295 289q80 0 121 32t41 96t-41 96.5t-121 32.5h-189v-257h189zM295 14q89 0 134 33t45 98q0 130 -179 130h-189v-261h189z" />
    <glyph glyph-name="c.sc" horiz-adv-x="577" 
d="M458 31q-60 -39 -148 -39q-77 0 -135.5 35t-90.5 100.5t-32 152.5t32 152.5t90.5 100.5t135.5 35q181 0 226 -147l-15 -7q-22 71 -74 105.5t-137 34.5q-72 0 -127 -33.5t-85 -95.5t-30 -145t30.5 -145t85 -95.5t126.5 -33.5q82 0 138.5 36.5t76.5 103.5l15 -6
q-22 -70 -82 -109z" />
    <glyph glyph-name="cacute.sc" horiz-adv-x="577" 
d="M395 791l-78 -148h-15l75 148h18zM458 31q-60 -39 -148 -39q-77 0 -135.5 35t-90.5 100.5t-32 152.5t32 152.5t90.5 100.5t135.5 35q181 0 226 -147l-15 -7q-22 71 -74 105.5t-137 34.5q-72 0 -127 -33.5t-85 -95.5t-30 -145t30.5 -145t85 -95.5t126.5 -33.5
q82 0 138.5 36.5t76.5 103.5l15 -6q-22 -70 -82 -109z" />
    <glyph glyph-name="ccaron.sc" horiz-adv-x="577" 
d="M313 643h-20l-109 142h17l102 -129l102 129h17zM458 31q-60 -39 -148 -39q-77 0 -135.5 35t-90.5 100.5t-32 152.5t32 152.5t90.5 100.5t135.5 35q181 0 226 -147l-15 -7q-22 71 -74 105.5t-137 34.5q-72 0 -127 -33.5t-85 -95.5t-30 -145t30.5 -145t85 -95.5
t126.5 -33.5q82 0 138.5 36.5t76.5 103.5l15 -6q-22 -70 -82 -109z" />
    <glyph glyph-name="ccedilla.sc" horiz-adv-x="577" 
d="M463.5 34.5q-55.5 -38.5 -137.5 -42.5q47 -25 66 -51t19 -59q0 -37 -24.5 -60.5t-63.5 -23.5q-32 0 -54.5 9.5t-39.5 32.5l8 12q18 -23 38.5 -32t47.5 -9q32 0 52.5 19.5t20.5 50.5t-19.5 56t-72.5 55q-75 1 -132 36.5t-88.5 100.5t-31.5 151q0 87 32 152.5t90.5 100.5
t135.5 35q181 0 226 -147l-15 -7q-22 71 -74 105.5t-137 34.5q-72 0 -127 -33.5t-85 -95.5t-30 -145t30.5 -145t85 -95.5t126.5 -33.5q82 0 138.5 36.5t76.5 103.5l15 -6q-21 -67 -76.5 -105.5z" />
    <glyph glyph-name="d.sc" horiz-adv-x="608" 
d="M482.5 491q72.5 -69 72.5 -203q0 -142 -72.5 -215t-213.5 -73h-179v560h179q141 0 213.5 -69zM470.5 83.5q68.5 69.5 68.5 204.5q0 127 -68.5 192.5t-201.5 65.5h-163v-532h163q133 0 201.5 69.5z" />
    <glyph glyph-name="eth.sc" horiz-adv-x="615" 
d="M493.5 491q72.5 -69 72.5 -203q0 -142 -72.5 -215t-213.5 -73h-179v276h-93v14h93v270h179q141 0 213.5 -69zM481.5 83.5q68.5 69.5 68.5 204.5q0 127 -68.5 192.5t-201.5 65.5h-163v-256h178v-14h-178v-262h163q133 0 201.5 69.5z" />
    <glyph glyph-name="dcaron.sc" horiz-adv-x="608" 
d="M265 643l-109 142h17l102 -129l102 129h17l-109 -142h-20zM482.5 491q72.5 -69 72.5 -203q0 -142 -72.5 -215t-213.5 -73h-179v560h179q141 0 213.5 -69zM470.5 83.5q68.5 69.5 68.5 204.5q0 127 -68.5 192.5t-201.5 65.5h-163v-532h163q133 0 201.5 69.5z" />
    <glyph glyph-name="dcroat.sc" horiz-adv-x="615" 
d="M493.5 491q72.5 -69 72.5 -203q0 -142 -72.5 -215t-213.5 -73h-179v276h-93v14h93v270h179q141 0 213.5 -69zM481.5 83.5q68.5 69.5 68.5 204.5q0 127 -68.5 192.5t-201.5 65.5h-163v-256h178v-14h-178v-262h163q133 0 201.5 69.5z" />
    <glyph glyph-name="e.sc" horiz-adv-x="520" 
d="M490 14v-14h-400v560h385v-14h-369v-253h296v-14h-296v-265h384z" />
    <glyph glyph-name="eacute.sc" horiz-adv-x="520" 
d="M282 643h-15l75 148h18zM490 14v-14h-400v560h385v-14h-369v-253h296v-14h-296v-265h384z" />
    <glyph glyph-name="ecaron.sc" horiz-adv-x="520" 
d="M268 643l-109 142h17l102 -129l102 129h17l-109 -142h-20zM490 14v-14h-400v560h385v-14h-369v-253h296v-14h-296v-265h384z" />
    <glyph glyph-name="ecircumflex.sc" horiz-adv-x="520" 
d="M176 643h-17l109 142h20l109 -142h-17l-102 129zM490 14v-14h-400v560h385v-14h-369v-253h296v-14h-296v-265h384z" />
    <glyph glyph-name="edieresis.sc" horiz-adv-x="520" 
d="M490 14v-14h-400v560h385v-14h-369v-253h296v-14h-296v-265h384zM201 696q6 -6 6 -16t-6 -16t-16 -6t-16 6t-6 16t6 16t16 6t16 -6zM385 696q6 -6 6 -16t-6 -16t-16 -6t-16 6t-6 16t6 16t16 6t16 -6z" />
    <glyph glyph-name="edotaccent.sc" horiz-adv-x="520" 
d="M490 14v-14h-400v560h385v-14h-369v-253h296v-14h-296v-265h384zM294 696q6 -6 6 -16t-6 -16t-16 -6t-16 6t-6 16t6 16t16 6t16 -6z" />
    <glyph glyph-name="egrave.sc" horiz-adv-x="520" 
d="M272 643l-78 148h18l75 -148h-15zM490 14v-14h-400v560h385v-14h-369v-253h296v-14h-296v-265h384z" />
    <glyph glyph-name="emacron.sc" horiz-adv-x="520" 
d="M490 14v-14h-400v560h385v-14h-369v-253h296v-14h-296v-265h384zM422 665h-288v14h288v-14z" />
    <glyph glyph-name="eogonek.sc" horiz-adv-x="520" 
d="M503 -181q-15 -10 -31 -15.5t-41 -5.5q-38 0 -63 20.5t-25 57.5q0 38 26.5 68t90.5 56h-370v560h385v-14h-369v-253h296v-14h-296v-265h384v-14q-72 -28 -102 -57t-30 -67q0 -31 20.5 -47.5t52.5 -16.5q41 0 66 20z" />
    <glyph glyph-name="f.sc" horiz-adv-x="495" 
d="M106 546v-253h296v-14h-296v-279h-16v560h385v-14h-369z" />
    <glyph glyph-name="g.sc" horiz-adv-x="601" 
d="M310 265h229v-265h-14v168q-16 -84 -71.5 -130t-146.5 -46q-77 0 -134.5 35t-89 100t-31.5 153q0 87 33.5 152t93 100.5t135.5 35.5q181 0 226 -147l-14 -7q-43 140 -212 140q-71 0 -127 -33.5t-87.5 -96t-31.5 -144.5q0 -84 29.5 -145.5t83.5 -95t126 -33.5
q80 0 129 36.5t69 91t20 113.5v4h-215v14z" />
    <glyph glyph-name="gbreve.sc" horiz-adv-x="601" 
d="M310 265h229v-265h-14v168q-16 -84 -71.5 -130t-146.5 -46q-77 0 -134.5 35t-89 100t-31.5 153q0 87 33.5 152t93 100.5t135.5 35.5q181 0 226 -147l-14 -7q-43 140 -212 140q-71 0 -127 -33.5t-87.5 -96t-31.5 -144.5q0 -84 29.5 -145.5t83.5 -95t126 -33.5
q80 0 129 36.5t69 91t20 113.5v4h-215v14zM398 673q-32 -32 -89 -32t-89 32t-32 89h14q0 -49 29 -78t78 -29t78 29t29 78h14q0 -57 -32 -89z" />
    <glyph glyph-name="h.sc" horiz-adv-x="619" 
d="M529 560v-560h-16v279h-407v-279h-16v560h16v-267h407v267h16z" />
    <glyph glyph-name="i.sc" horiz-adv-x="196" 
d="M106 0h-16v560h16v-560z" />
    <glyph glyph-name="iacute.sc" horiz-adv-x="196" 
d="M184 791l-78 -148h-15l75 148h18zM106 0h-16v560h16v-560z" />
    <glyph glyph-name="iacute_j.loclNLD.sc" horiz-adv-x="641" 
d="M190 791l-78 -148h-15l75 148h18zM636 791l-78 -148h-15l75 148h18zM106 0h-16v560h16v-560zM558 178q0 -87 -44.5 -136.5t-127.5 -49.5q-77 0 -119.5 38.5t-42.5 105.5q0 16 3 34l16 7q-3 -19 -3 -38q0 -64 38.5 -98.5t107.5 -34.5q76 0 116 45.5t40 126.5v382h16v-382z
" />
    <glyph glyph-name="icircumflex.sc" horiz-adv-x="196" 
d="M200 643l-102 129l-102 -129h-17l109 142h20l109 -142h-17zM106 0h-16v560h16v-560z" />
    <glyph glyph-name="idieresis.sc" horiz-adv-x="196" 
d="M64 696q6 -6 6 -16t-6 -16t-16 -6t-16 6t-6 16t6 16t16 6t16 -6zM164 696q6 -6 6 -16t-6 -16t-16 -6t-16 6t-6 16t6 16t16 6t16 -6zM106 0h-16v560h16v-560z" />
    <glyph glyph-name="i.sc.loclTRK" horiz-adv-x="196" 
d="M106 0h-16v560h16v-560zM114 674q6 -6 6 -16t-6 -16t-16 -6t-16 6t-6 16t6 16t16 6t16 -6z" />
    <glyph glyph-name="igrave.sc" horiz-adv-x="196" 
d="M96 643h-15l-78 148h18zM106 0h-16v560h16v-560z" />
    <glyph glyph-name="ij.sc" horiz-adv-x="641" 
d="M106 0h-16v560h16v-560zM558 178q0 -87 -44.5 -136.5t-127.5 -49.5q-77 0 -119.5 38.5t-42.5 105.5q0 16 3 34l16 7q-3 -19 -3 -38q0 -64 38.5 -98.5t107.5 -34.5q76 0 116 45.5t40 126.5v382h16v-382z" />
    <glyph glyph-name="imacron.sc" horiz-adv-x="196" 
d="M179 665h-162v14h162v-14zM106 0h-16v560h16v-560z" />
    <glyph glyph-name="iogonek.sc" horiz-adv-x="196" 
d="M142 -180q-17 -12 -31 -17t-33 -5q-35 0 -60 22.5t-25 59.5q0 33 21.5 60t75.5 64v556h16v-560q-56 -39 -77 -64t-21 -56t20.5 -49.5t49.5 -18.5q19 0 31.5 4.5t26.5 16.5z" />
    <glyph glyph-name="j.sc" horiz-adv-x="445" 
d="M362 178q0 -87 -44.5 -136.5t-127.5 -49.5q-77 0 -119.5 38.5t-42.5 105.5q0 16 3 34l16 7q-3 -19 -3 -38q0 -64 38.5 -98.5t107.5 -34.5q76 0 116 45.5t40 126.5v382h16v-382z" />
    <glyph glyph-name="k.sc" horiz-adv-x="499" 
d="M235 324l-129 -126v-198h-16v560h16v-340l347 340h22l-228 -225l237 -335h-21z" />
    <glyph glyph-name="l.sc" horiz-adv-x="485" 
d="M471 14v-14h-381v560h16v-546h365z" />
    <glyph glyph-name="lacute.sc" horiz-adv-x="485" 
d="M112 643h-15l75 148h18zM471 14v-14h-381v560h16v-546h365z" />
    <glyph glyph-name="lcaron.sc" horiz-adv-x="485" 
d="M471 14v-14h-381v560h16v-546h365zM216 363h-14l26 197h17z" />
    <glyph glyph-name="ldot.sc" horiz-adv-x="485" 
d="M471 14v-14h-381v560h16v-546h365zM430 312q6 -6 6 -16t-6 -16t-16 -6t-16 6t-6 16t6 16t16 6t16 -6z" />
    <glyph glyph-name="lslash.sc" horiz-adv-x="498" 
d="M484 14v-14h-381v236l-92 -57v17l92 57v307h16v-297l179 110v-16l-179 -111v-232h365z" />
    <glyph glyph-name="m.sc" horiz-adv-x="699" 
d="M90 560h24l215 -494l20 -47h1l20 47l215 494h24v-560h-16v487l1 52h-1l-234 -539h-19l-234 539h-1l1 -52v-487h-16v560z" />
    <glyph glyph-name="n.sc" horiz-adv-x="618" 
d="M528 0h-22l-373 505l-27 36h-1l1 -50v-491h-16v560h22l365 -494l35 -47h1l-1 50v491h16v-560z" />
    <glyph glyph-name="nacute.sc" horiz-adv-x="618" 
d="M398 791l-78 -148h-15l75 148h18zM528 0h-22l-373 505l-27 36h-1l1 -50v-491h-16v560h22l365 -494l35 -47h1l-1 50v491h16v-560z" />
    <glyph glyph-name="ncaron.sc" horiz-adv-x="618" 
d="M316 643h-20l-109 142h17l102 -129l102 129h17zM528 0h-22l-373 505l-27 36h-1l1 -50v-491h-16v560h22l365 -494l35 -47h1l-1 50v491h16v-560z" />
    <glyph glyph-name="ntilde.sc" horiz-adv-x="618" 
d="M528 0h-22l-373 505l-27 36h-1l1 -50v-491h-16v560h22l365 -494l35 -47h1l-1 50v491h16v-560zM437 679q-20 -20 -57 -20q-27 0 -43.5 9t-35.5 27q-18 17 -32 25t-36 8q-32 0 -46.5 -16.5t-22.5 -53.5h-15q8 44 28 64t57 20q27 0 43.5 -9t35.5 -27q16 -16 30.5 -24.5
t36.5 -8.5q32 0 47 16.5t23 53.5h15q-8 -44 -28 -64z" />
    <glyph glyph-name="o.sc" horiz-adv-x="634" 
d="M458 533q60 -35 92 -100t32 -153t-32 -153t-92 -100t-141 -35t-141 35t-92 100t-32 153t32 153t92 100t141 35t141 -35zM185 521q-56 -33 -86.5 -95t-30.5 -146t30.5 -146t86.5 -95t132 -33t132 33t86.5 95t30.5 146t-30.5 146t-86.5 95t-132 33t-132 -33z" />
    <glyph glyph-name="oacute.sc" horiz-adv-x="634" 
d="M409 791l-78 -148h-15l75 148h18zM458 533q60 -35 92 -100t32 -153t-32 -153t-92 -100t-141 -35t-141 35t-92 100t-32 153t32 153t92 100t141 35t141 -35zM185 521q-56 -33 -86.5 -95t-30.5 -146t30.5 -146t86.5 -95t132 -33t132 33t86.5 95t30.5 146t-30.5 146t-86.5 95
t-132 33t-132 -33z" />
    <glyph glyph-name="ocircumflex.sc" horiz-adv-x="634" 
d="M419 643l-102 129l-102 -129h-17l109 142h20l109 -142h-17zM458 533q60 -35 92 -100t32 -153t-32 -153t-92 -100t-141 -35t-141 35t-92 100t-32 153t32 153t92 100t141 35t141 -35zM185 521q-56 -33 -86.5 -95t-30.5 -146t30.5 -146t86.5 -95t132 -33t132 33t86.5 95
t30.5 146t-30.5 146t-86.5 95t-132 33t-132 -33z" />
    <glyph glyph-name="odieresis.sc" horiz-adv-x="634" 
d="M458 533q60 -35 92 -100t32 -153t-32 -153t-92 -100t-141 -35t-141 35t-92 100t-32 153t32 153t92 100t141 35t141 -35zM185 521q-56 -33 -86.5 -95t-30.5 -146t30.5 -146t86.5 -95t132 -33t132 33t86.5 95t30.5 146t-30.5 146t-86.5 95t-132 33t-132 -33zM240 696
q6 -6 6 -16t-6 -16t-16 -6t-16 6t-6 16t6 16t16 6t16 -6zM424 696q6 -6 6 -16t-6 -16t-16 -6t-16 6t-6 16t6 16t16 6t16 -6z" />
    <glyph glyph-name="ograve.sc" horiz-adv-x="634" 
d="M315 643h-15l-78 148h18zM458 533q60 -35 92 -100t32 -153t-32 -153t-92 -100t-141 -35t-141 35t-92 100t-32 153t32 153t92 100t141 35t141 -35zM185 521q-56 -33 -86.5 -95t-30.5 -146t30.5 -146t86.5 -95t132 -33t132 33t86.5 95t30.5 146t-30.5 146t-86.5 95t-132 33
t-132 -33z" />
    <glyph glyph-name="ohungarumlaut.sc" horiz-adv-x="634" 
d="M349 791l-78 -148h-15l75 148h18zM464 791l-78 -148h-15l75 148h18zM458 533q60 -35 92 -100t32 -153t-32 -153t-92 -100t-141 -35t-141 35t-92 100t-32 153t32 153t92 100t141 35t141 -35zM185 521q-56 -33 -86.5 -95t-30.5 -146t30.5 -146t86.5 -95t132 -33t132 33
t86.5 95t30.5 146t-30.5 146t-86.5 95t-132 33t-132 -33z" />
    <glyph glyph-name="omacron.sc" horiz-adv-x="634" 
d="M458 533q60 -35 92 -100t32 -153t-32 -153t-92 -100t-141 -35t-141 35t-92 100t-32 153t32 153t92 100t141 35t141 -35zM185 521q-56 -33 -86.5 -95t-30.5 -146t30.5 -146t86.5 -95t132 -33t132 33t86.5 95t30.5 146t-30.5 146t-86.5 95t-132 33t-132 -33zM461 665h-288
v14h288v-14z" />
    <glyph glyph-name="oslash.sc" horiz-adv-x="634" 
d="M560 410q22 -57 22 -130q0 -88 -32 -153t-92 -100t-141 -35q-98 0 -167 53l-53 -71h-18l60 80q-42 38 -64.5 95.5t-22.5 130.5q0 88 32 153t92 100t141 35q99 0 168 -53l53 70h18l-60 -80q42 -38 64 -95zM88.5 157q20.5 -54 59.5 -90l328 435q-64 52 -159 52
q-76 0 -132 -33t-86.5 -95t-30.5 -146q0 -69 20.5 -123zM449 39q56 33 86.5 95t30.5 146q0 68 -20.5 122.5t-59.5 90.5l-327 -436q63 -51 158 -51q76 0 132 33z" />
    <glyph glyph-name="otilde.sc" horiz-adv-x="634" 
d="M458 533q60 -35 92 -100t32 -153t-32 -153t-92 -100t-141 -35t-141 35t-92 100t-32 153t32 153t92 100t141 35t141 -35zM185 521q-56 -33 -86.5 -95t-30.5 -146t30.5 -146t86.5 -95t132 -33t132 33t86.5 95t30.5 146t-30.5 146t-86.5 95t-132 33t-132 -33zM448 679
q-20 -20 -57 -20q-27 0 -43.5 9t-35.5 27q-18 17 -32 25t-36 8q-32 0 -46.5 -16.5t-22.5 -53.5h-15q8 44 28 64t57 20q27 0 43.5 -9t35.5 -27q16 -16 30.5 -24.5t36.5 -8.5q32 0 47 16.5t23 53.5h15q-8 -44 -28 -64z" />
    <glyph glyph-name="oe.sc" horiz-adv-x="930" 
d="M900 14v-14h-377v152q-21 -81 -76 -120.5t-147 -39.5q-75 0 -131 35t-86.5 100t-30.5 153t30.5 153t86.5 100t131 35q92 0 147 -40t76 -121v153h362v-14h-346v-253h283v-14h-283v-265h361zM470 73q53 67 53 207t-53 207t-170 67q-70 0 -122.5 -33.5t-81 -95.5t-28.5 -145
q0 -84 28.5 -145.5t81 -95t122.5 -33.5q117 0 170 67z" />
    <glyph glyph-name="p.sc" horiz-adv-x="501" 
d="M416.5 518q52.5 -42 52.5 -116q0 -73 -52.5 -114.5t-145.5 -41.5h-165v-246h-16v560h181q93 0 145.5 -42zM404.5 297.5q48.5 37.5 48.5 104.5q0 68 -48.5 106t-134.5 38h-164v-286h164q86 0 134.5 37.5z" />
    <glyph glyph-name="thorn.sc" horiz-adv-x="506" 
d="M416 406q52 -40 52 -118t-52 -117.5t-153 -39.5h-157v-131h-16v560h16v-114h157q101 0 153 -40zM452 288q0 144 -182 144h-164v-287h164q182 0 182 143z" />
    <glyph glyph-name="q.sc" horiz-adv-x="634" 
d="M560 -119l8 -14q-35 -32 -99 -32q-69 0 -112 41t-47 116q-79 1 -137 36.5t-89.5 100t-31.5 151.5q0 88 32 153t92 100t141 35t141 -35t92 -100t32 -153q0 -87 -31.5 -151.5t-90 -100t-137.5 -36.5q5 -70 44 -106.5t102 -36.5q60 0 91 32zM98.5 134q30.5 -62 86.5 -95
t132 -33t132 33t86.5 95t30.5 146t-30.5 146t-86.5 95t-132 33t-132 -33t-86.5 -95t-30.5 -146t30.5 -146z" />
    <glyph glyph-name="r.sc" horiz-adv-x="545" 
d="M490 0l-171 254h-18h-195v-254h-16v560h211q86 0 135 -40.5t49 -112.5q0 -64 -39 -103.5t-109 -47.5l174 -256h-21zM301 268q79 0 123.5 37t44.5 102t-44.5 102t-123.5 37h-195v-278h195z" />
    <glyph glyph-name="racute.sc" horiz-adv-x="545" 
d="M275 643h-15l75 148h18zM490 0l-171 254h-18h-195v-254h-16v560h211q86 0 135 -40.5t49 -112.5q0 -64 -39 -103.5t-109 -47.5l174 -256h-21zM301 268q79 0 123.5 37t44.5 102t-44.5 102t-123.5 37h-195v-278h195z" />
    <glyph glyph-name="rcaron.sc" horiz-adv-x="545" 
d="M251 643l-109 142h17l102 -129l102 129h17l-109 -142h-20zM490 0l-171 254h-18h-195v-254h-16v560h211q86 0 135 -40.5t49 -112.5q0 -64 -39 -103.5t-109 -47.5l174 -256h-21zM301 268q79 0 123.5 37t44.5 102t-44.5 102t-123.5 37h-195v-278h195z" />
    <glyph glyph-name="s.sc" horiz-adv-x="530" 
d="M476 439l-15 -9q-34 124 -198 124q-57 0 -100.5 -18t-67 -49t-23.5 -70q0 -44 27 -70t66.5 -38t106.5 -25q71 -13 113.5 -26.5t71.5 -42.5t29 -79q0 -42 -26.5 -75t-74.5 -51t-110 -18q-95 0 -158 37t-77 111l15 8q12 -71 71.5 -106.5t148.5 -35.5q85 0 140 34.5t55 95.5
q0 44 -27 69.5t-66.5 37.5t-106.5 25q-70 13 -112.5 26.5t-72 43t-29.5 79.5q0 41 25 75.5t72 55t110 20.5q172 0 213 -129z" />
    <glyph glyph-name="sacute.sc" horiz-adv-x="530" 
d="M351 791l-78 -148h-15l75 148h18zM476 439l-15 -9q-34 124 -198 124q-57 0 -100.5 -18t-67 -49t-23.5 -70q0 -44 27 -70t66.5 -38t106.5 -25q71 -13 113.5 -26.5t71.5 -42.5t29 -79q0 -42 -26.5 -75t-74.5 -51t-110 -18q-95 0 -158 37t-77 111l15 8q12 -71 71.5 -106.5
t148.5 -35.5q85 0 140 34.5t55 95.5q0 44 -27 69.5t-66.5 37.5t-106.5 25q-70 13 -112.5 26.5t-72 43t-29.5 79.5q0 41 25 75.5t72 55t110 20.5q172 0 213 -129z" />
    <glyph glyph-name="scaron.sc" horiz-adv-x="530" 
d="M269 643h-20l-109 142h17l102 -129l102 129h17zM476 439l-15 -9q-34 124 -198 124q-57 0 -100.5 -18t-67 -49t-23.5 -70q0 -44 27 -70t66.5 -38t106.5 -25q71 -13 113.5 -26.5t71.5 -42.5t29 -79q0 -42 -26.5 -75t-74.5 -51t-110 -18q-95 0 -158 37t-77 111l15 8
q12 -71 71.5 -106.5t148.5 -35.5q85 0 140 34.5t55 95.5q0 44 -27 69.5t-66.5 37.5t-106.5 25q-70 13 -112.5 26.5t-72 43t-29.5 79.5q0 41 25 75.5t72 55t110 20.5q172 0 213 -129z" />
    <glyph glyph-name="germandbls.sc" horiz-adv-x="570" 
d="M486.5 255.5q41.5 -36.5 41.5 -108.5q0 -70 -45 -110.5t-122 -40.5q-41 0 -77 14t-55 37l9 11q43 -48 123 -48q68 0 109.5 36.5t41.5 100.5q0 65 -37.5 98t-106.5 33h-101v14l212 254h-202q-79 0 -125 -47.5t-46 -124.5v-374h-16v374q0 85 50 135.5t137 50.5h220v-15
l-212 -253h83q77 0 118.5 -36.5z" />
    <glyph glyph-name="t.sc" horiz-adv-x="486" 
d="M473 546h-222v-546h-16v546h-222v14h460v-14z" />
    <glyph glyph-name="tcaron.sc" horiz-adv-x="486" 
d="M233 643l-109 142h17l102 -129l102 129h17l-109 -142h-20zM473 546h-222v-546h-16v546h-222v14h460v-14z" />
    <glyph glyph-name="u.sc" horiz-adv-x="605" 
d="M522 200q0 -100 -57.5 -154t-161.5 -54t-162 54t-58 154v360h16v-360q0 -93 54 -143.5t150 -50.5t149.5 50.5t53.5 143.5v360h16v-360z" />
    <glyph glyph-name="uacute.sc" horiz-adv-x="605" 
d="M395 791l-78 -148h-15l75 148h18zM522 200q0 -100 -57.5 -154t-161.5 -54t-162 54t-58 154v360h16v-360q0 -93 54 -143.5t150 -50.5t149.5 50.5t53.5 143.5v360h16v-360z" />
    <glyph glyph-name="ucircumflex.sc" horiz-adv-x="605" 
d="M405 643l-102 129l-102 -129h-17l109 142h20l109 -142h-17zM522 200q0 -100 -57.5 -154t-161.5 -54t-162 54t-58 154v360h16v-360q0 -93 54 -143.5t150 -50.5t149.5 50.5t53.5 143.5v360h16v-360z" />
    <glyph glyph-name="udieresis.sc" horiz-adv-x="605" 
d="M522 200q0 -100 -57.5 -154t-161.5 -54t-162 54t-58 154v360h16v-360q0 -93 54 -143.5t150 -50.5t149.5 50.5t53.5 143.5v360h16v-360zM226 696q6 -6 6 -16t-6 -16t-16 -6t-16 6t-6 16t6 16t16 6t16 -6zM410 696q6 -6 6 -16t-6 -16t-16 -6t-16 6t-6 16t6 16t16 6t16 -6z
" />
    <glyph glyph-name="ugrave.sc" horiz-adv-x="605" 
d="M301 643h-15l-78 148h18zM522 200q0 -100 -57.5 -154t-161.5 -54t-162 54t-58 154v360h16v-360q0 -93 54 -143.5t150 -50.5t149.5 50.5t53.5 143.5v360h16v-360z" />
    <glyph glyph-name="uhungarumlaut.sc" horiz-adv-x="605" 
d="M319 791l-78 -148h-15l75 148h18zM434 791l-78 -148h-15l75 148h18zM522 200q0 -100 -57.5 -154t-161.5 -54t-162 54t-58 154v360h16v-360q0 -93 54 -143.5t150 -50.5t149.5 50.5t53.5 143.5v360h16v-360z" />
    <glyph glyph-name="umacron.sc" horiz-adv-x="605" 
d="M522 200q0 -100 -57.5 -154t-161.5 -54t-162 54t-58 154v360h16v-360q0 -93 54 -143.5t150 -50.5t149.5 50.5t53.5 143.5v360h16v-360zM447 665h-288v14h288v-14z" />
    <glyph glyph-name="uogonek.sc" horiz-adv-x="605" 
d="M522 560v-360q0 -83 -40 -134.5t-113 -67.5q-68 -31 -95 -59t-27 -64q0 -31 20.5 -47.5t52.5 -16.5q46 0 71 20l6 -13q-14 -10 -31.5 -15.5t-45.5 -5.5q-38 0 -63 20.5t-25 57.5q0 36 23 64.5t78 53.5q-9 -1 -30 -1q-104 0 -162 54t-58 154v360h16v-360q0 -93 54 -143.5
t150 -50.5t149.5 50.5t53.5 143.5v360h16z" />
    <glyph glyph-name="uring.sc" horiz-adv-x="605" 
d="M522 200q0 -100 -57.5 -154t-161.5 -54t-162 54t-58 154v360h16v-360q0 -93 54 -143.5t150 -50.5t149.5 50.5t53.5 143.5v360h16v-360zM361.5 683q23.5 -23 23.5 -57t-23.5 -57t-58.5 -23t-58.5 23t-23.5 57t23.5 57t58.5 23t58.5 -23zM256 673q-19 -19 -19 -47t19 -47
t47 -19t47 19t19 47t-19 47t-47 19t-47 -19z" />
    <glyph glyph-name="v.sc" horiz-adv-x="514" 
d="M267 0h-20l-229 560h17l198 -483l24 -59l24 58l199 484h16z" />
    <glyph glyph-name="w.sc" horiz-adv-x="807" 
d="M373 439l-138 -439h-21l-191 560h17l185 -545l168 545h21l168 -545l185 545h17l-191 -560h-21l-137 439l-31 100h-1z" />
    <glyph glyph-name="x.sc" horiz-adv-x="467" 
d="M433 0l-198 275l-201 -275h-21l212 290l-194 270h20l184 -256l187 256h21l-198 -271l208 -289h-20z" />
    <glyph glyph-name="y.sc" horiz-adv-x="458" 
d="M237 217v-217h-16v217l-204 343h19l113 -192l80 -135l194 327h18z" />
    <glyph glyph-name="yacute.sc" horiz-adv-x="458" 
d="M321 791l-78 -148h-15l75 148h18zM237 217v-217h-16v217l-204 343h19l113 -192l80 -135l194 327h18z" />
    <glyph glyph-name="ydieresis.sc" horiz-adv-x="458" 
d="M237 217v-217h-16v217l-204 343h19l113 -192l80 -135l194 327h18zM152 696q6 -6 6 -16t-6 -16t-16 -6t-16 6t-6 16t6 16t16 6t16 -6zM336 696q6 -6 6 -16t-6 -16t-16 -6t-16 6t-6 16t6 16t16 6t16 -6z" />
    <glyph glyph-name="z.sc" horiz-adv-x="494" 
d="M469 14v-14h-440v14l371 489l32 43h-397v14h416v-14l-367 -484l-36 -48h421z" />
    <glyph glyph-name="zacute.sc" horiz-adv-x="494" 
d="M261 643h-15l75 148h18zM469 14v-14h-440v14l371 489l32 43h-397v14h416v-14l-367 -484l-36 -48h421z" />
    <glyph glyph-name="zcaron.sc" horiz-adv-x="494" 
d="M237 643l-109 142h17l102 -129l102 129h17l-109 -142h-20zM469 14v-14h-440v14l371 489l32 43h-397v14h416v-14l-367 -484l-36 -48h421z" />
    <glyph glyph-name="zdotaccent.sc" horiz-adv-x="494" 
d="M469 14v-14h-440v14l371 489l32 43h-397v14h416v-14l-367 -484l-36 -48h421zM263 696q6 -6 6 -16t-6 -16t-16 -6t-16 6t-6 16t6 16t16 6t16 -6z" />
    <glyph glyph-name="Rcommaaccent.sc.ss03" horiz-adv-x="545" 
d="M90 560h211q86 0 135 -41t49 -112q0 -60 -35 -98.5t-95 -46.5v-1q113 -16 116 -125q1 -53 5 -80.5t7.5 -36.5t10.5 -17v-2h-18q-8 14 -13.5 40t-7.5 93q-2 58 -38 89.5t-106 31.5h-205v-254h-16v560zM301 268q80 0 124 36.5t44 102.5q0 65 -44.5 102t-123.5 37h-195v-278
h195zM250 -229h-13l50 161h18z" />
    <glyph glyph-name="r.sc.ss03" horiz-adv-x="545" 
d="M90 560h211q86 0 135 -41t49 -112q0 -60 -35 -98.5t-95 -46.5v-1q113 -16 116 -125q1 -53 5 -80.5t7.5 -36.5t10.5 -17v-2h-18q-8 14 -13.5 40t-7.5 93q-2 58 -38 89.5t-106 31.5h-205v-254h-16v560zM301 268q80 0 124 36.5t44 102.5q0 65 -44.5 102t-123.5 37h-195v-278
h195z" />
    <glyph glyph-name="racute.sc.ss03" horiz-adv-x="545" 
d="M90 560h211q86 0 135 -41t49 -112q0 -60 -35 -98.5t-95 -46.5v-1q113 -16 116 -125q1 -53 5 -80.5t7.5 -36.5t10.5 -17v-2h-18q-8 14 -13.5 40t-7.5 93q-2 58 -38 89.5t-106 31.5h-205v-254h-16v560zM301 268q80 0 124 36.5t44 102.5q0 65 -44.5 102t-123.5 37h-195v-278
h195zM357 790l-88 -147h-15l85 147h18z" />
    <glyph glyph-name="rcaron.sc.ss03" horiz-adv-x="545" 
d="M90 560h211q86 0 135 -41t49 -112q0 -60 -35 -98.5t-95 -46.5v-1q113 -16 116 -125q1 -53 5 -80.5t7.5 -36.5t10.5 -17v-2h-18q-8 14 -13.5 40t-7.5 93q-2 58 -38 89.5t-106 31.5h-205v-254h-16v560zM301 268q80 0 124 36.5t44 102.5q0 65 -44.5 102t-123.5 37h-195v-278
h195zM270 643h-18l-108 142h17l100 -129l100 129h17z" />
    <glyph glyph-name="Gcommaaccent.sc.ss04" horiz-adv-x="585" 
d="M546 265v-16q0 -111 -56 -184t-182 -73q-77 0 -135 35t-89.5 100t-31.5 153q0 87 32 152.5t90.5 100.5t135.5 35q92 0 147.5 -36.5t78.5 -110.5l-14 -7q-22 71 -74.5 105.5t-137.5 34.5q-72 0 -127 -33.5t-85 -95.5t-30 -145q0 -84 29.5 -145.5t84 -95t127.5 -33.5
q124 0 172.5 73.5t48.5 171.5h-216v14h232zM264 -229h-13l50 161h18z" />
    <glyph glyph-name="g.sc.ss04" horiz-adv-x="585" 
d="M546 265v-16q0 -111 -56 -184t-182 -73q-77 0 -135 35t-89.5 100t-31.5 153q0 87 32 152.5t90.5 100.5t135.5 35q92 0 147.5 -36.5t78.5 -110.5l-14 -7q-22 71 -74.5 105.5t-137.5 34.5q-72 0 -127 -33.5t-85 -95.5t-30 -145q0 -84 29.5 -145.5t84 -95t127.5 -33.5
q124 0 172.5 73.5t48.5 171.5h-216v14h232z" />
    <glyph glyph-name="gbreve.sc.ss04" horiz-adv-x="585" 
d="M546 265v-16q0 -111 -56 -184t-182 -73q-77 0 -135 35t-89.5 100t-31.5 153q0 87 32 152.5t90.5 100.5t135.5 35q92 0 147.5 -36.5t78.5 -110.5l-14 -7q-22 71 -74.5 105.5t-137.5 34.5q-72 0 -127 -33.5t-85 -95.5t-30 -145q0 -84 29.5 -145.5t84 -95t127.5 -33.5
q124 0 172.5 73.5t48.5 171.5h-216v14h232zM394 673q-32 -32 -89 -32t-89 32t-32 89h14q0 -49 29 -78t78 -29t78 29t29 78h14q0 -57 -32 -89z" />
    <glyph glyph-name="iacute_j.loclNLD.sc.ss05" horiz-adv-x="501" 
d="M182 791l-78 -148h-15l75 148h18zM493 791l-78 -148h-15l75 148h18zM420 178q0 -91 -44 -138.5t-129 -47.5q-82 0 -124 37.5t-42 109.5h16q0 -65 38 -99t112 -34q77 0 117 43.5t40 128.5v382h16v-382zM99 223h-16v337h16v-337z" />
    <glyph glyph-name="ij.sc.ss05" horiz-adv-x="503" 
d="M420 178q0 -91 -44 -138.5t-129 -47.5q-82 0 -124 37.5t-42 109.5h16q0 -65 38 -99t112 -34q77 0 117 43.5t40 128.5v382h16v-382zM99 223h-16v337h16v-337z" />
    <glyph glyph-name="ordfeminine" unicode="&#xaa;" horiz-adv-x="352" 
d="M347 346v-14q-10 -6 -27 -6q-47 0 -47 59v9q-13 -32 -51 -50t-81 -18q-49 0 -78 21.5t-29 59.5t30.5 62t94.5 35l114 20v32q0 45 -27 70t-77 25q-46 0 -74 -17.5t-42 -54.5l-13 5q13 39 46 60t83 21q56 0 88 -27.5t32 -79.5v-175q0 -43 32 -43q17 0 26 6zM200.5 351
q30.5 11 51.5 32.5t21 51.5v75l-107 -19q-62 -11 -89.5 -32t-27.5 -53q0 -31 24.5 -48.5t67.5 -17.5q29 0 59.5 11zM38 237h297v-14h-297v14z" />
    <glyph glyph-name="ordmasculine" unicode="&#xba;" horiz-adv-x="354" 
d="M71.5 367.5q-33.5 40.5 -33.5 128.5t33.5 128.5t105.5 40.5t105.5 -40.5t33.5 -128.5t-33.5 -128.5t-105.5 -40.5t-105.5 40.5zM270.5 378.5q29.5 37.5 29.5 117.5t-29.5 117.5t-93.5 37.5t-93.5 -37.5t-29.5 -117.5t29.5 -117.5t93.5 -37.5t93.5 37.5zM44 237h266v-14
h-266v14z" />
    <glyph glyph-name="pi" unicode="&#x3c0;" horiz-adv-x="678" 
d="M497 486v-392q0 -80 112 -80l-3 -14q-56 0 -90.5 22t-34.5 72v392h-293v-486h-16v486h-166v14h658v-14h-167z" />
    <glyph glyph-name="zero" unicode="0" horiz-adv-x="590" 
d="M121 78q-61 88 -61 252t61 252t174 88t174 -88t61 -252t-61 -252t-174 -88t-174 88zM457.5 88q56.5 84 56.5 242t-56.5 242t-162.5 84t-162.5 -84t-56.5 -242t56.5 -242t162.5 -84t162.5 84z" />
    <glyph glyph-name="one" unicode="1" horiz-adv-x="316" 
d="M224 660v-660h-16v518v112q-29 -47 -75.5 -80t-99.5 -50l-5 13q58 21 107 59t73 88h16z" />
    <glyph glyph-name="two" unicode="2" horiz-adv-x="534" 
d="M54 14l32 27q137 113 207 178t112.5 129t42.5 127q0 85 -50.5 133t-137.5 48q-88 0 -141 -53.5t-57 -144.5l-15 6q5 94 61.5 150t151.5 56t149 -52t54 -143q0 -67 -40.5 -130.5t-108.5 -127.5t-207 -180l-26 -22v-1h28h383v-14h-438v14z" />
    <glyph glyph-name="three" unicode="3" horiz-adv-x="521" 
d="M395 624.5q50 -45.5 50 -126.5q0 -64 -33.5 -109.5t-94.5 -55.5v-1q64 -5 104.5 -50t40.5 -112q0 -54 -27 -94.5t-72.5 -63t-101.5 -22.5q-89 0 -145.5 40.5t-72.5 110.5l14 9q14 -68 66 -107t138 -39q52 0 94 20.5t66.5 58t24.5 88.5q0 68 -44.5 111.5t-124.5 43.5h-50
v14h50q72 0 112 45t40 113q0 74 -46 116t-127 42q-64 0 -111 -34.5t-65 -95.5l-16 9q22 63 73 99t119 36q89 0 139 -45.5z" />
    <glyph glyph-name="four" unicode="4" horiz-adv-x="550" 
d="M527 205h-139v-205h-16v205h-334v14l328 441h22v-441h139v-14zM56 219h316v424h-1l-43 -59z" />
    <glyph glyph-name="five" unicode="5" horiz-adv-x="535" 
d="M387 374q47 -26 73 -72.5t26 -105.5q0 -60 -27 -107t-75 -73t-109 -26q-194 0 -225 159l14 6q12 -77 67 -114t144 -37q57 0 101.5 24.5t69 68t24.5 99.5q0 55 -24 98.5t-67.5 67.5t-98.5 24q-130 0 -194 -85h-14l30 359h359v-14h-346l-26 -309l-2 -19h1q59 82 192 82
q60 0 107 -26z" />
    <glyph glyph-name="six" unicode="6" horiz-adv-x="540" 
d="M414.5 637.5q42.5 -32.5 61.5 -87.5l-15 -7q-15 51 -55 82t-103 31q-121 0 -177 -98t-56 -241q0 -58 10 -123h2q-2 59 26.5 105t77 71t101.5 25q95 0 149.5 -55.5t54.5 -147.5t-56.5 -147t-151.5 -55q-113 0 -170.5 86t-57.5 254q0 111 32 187.5t88 114.5t128 38
q69 0 111.5 -32.5zM187.5 353.5q-43.5 -27.5 -68 -70.5t-24.5 -89q0 -54 23.5 -97t66.5 -68t97 -25q89 0 141 52t52 138q0 83 -51.5 135t-136.5 52q-56 0 -99.5 -27.5z" />
    <glyph glyph-name="seven" unicode="7" horiz-adv-x="494" 
d="M485 660v-14q-121 -130 -186.5 -288.5t-81.5 -357.5h-17q16 195 80 355t187 291h-445v14h463z" />
    <glyph glyph-name="eight" unicode="8" horiz-adv-x="562" 
d="M425 626q54 -44 54 -118q0 -63 -38 -104.5t-105 -55.5v-1q78 -13 124.5 -61.5t46.5 -116.5q0 -52 -28.5 -92.5t-80 -63.5t-117.5 -23t-117.5 23t-80 63.5t-28.5 92.5q0 68 47 116.5t124 61.5v1q-67 14 -105 55.5t-38 104.5q0 74 53.5 118t144.5 44q90 0 144 -44z
M148.5 615.5q-49.5 -40.5 -49.5 -107.5q0 -69 50 -111t132 -42t132 42t50 111q0 67 -49.5 107.5t-132.5 40.5t-132.5 -40.5zM390 25q48 21 74.5 58.5t26.5 85.5q0 49 -26.5 87.5t-74.5 60.5t-109 22t-109 -22t-74.5 -60.5t-26.5 -87.5q0 -48 26.5 -85.5t74.5 -58.5t109 -21
t109 21z" />
    <glyph glyph-name="nine" unicode="9" horiz-adv-x="566" 
d="M445.5 581.5q60.5 -88.5 60.5 -251.5q0 -111 -30 -187.5t-82.5 -114.5t-121.5 -38q-81 0 -138 38.5t-71 101.5l17 9q11 -62 61 -98.5t131 -36.5q115 0 167 95.5t52 234.5q0 64 -12 136h-2q3 -61 -27 -108t-79.5 -72t-102.5 -25q-97 0 -154 55t-57 148q0 92 58 147t156 55
q114 0 174.5 -88.5zM127 604q-54 -52 -54 -138q0 -84 53.5 -135.5t141.5 -51.5q55 0 100.5 27.5t71.5 71t26 88.5q0 54 -24.5 97t-69 68t-100.5 25q-91 0 -145 -52z" />
    <glyph glyph-name="zero.osf" horiz-adv-x="570" 
d="M455.5 495q59.5 -75 59.5 -215t-59.5 -215t-170.5 -75t-170.5 75t-59.5 215t59.5 215t170.5 75t170.5 -75zM126 485q-55 -71 -55 -205t55 -205t159 -71t159 71t55 205t-55 205t-159 71t-159 -71z" />
    <glyph glyph-name="one.osf" horiz-adv-x="316" 
d="M224 560v-560h-16v468v62q-28 -44 -74.5 -77.5t-98.5 -51.5l-7 12q58 21 107 59t73 88h16z" />
    <glyph glyph-name="two.osf" horiz-adv-x="530" 
d="M407 521.5q52 -48.5 52 -131.5q0 -73 -40.5 -133.5t-113 -114t-188.5 -117.5q-7 -4 -21 -10v-1h39h353v-14h-422v14q123 66 204 122t127.5 119t46.5 135q0 76 -48 121t-130 45q-79 0 -129.5 -48.5t-50.5 -127.5q0 -15 1 -22l-15 6q-1 7 -1 20q0 85 54.5 135.5t140.5 50.5
q89 0 141 -48.5z" />
    <glyph glyph-name="three.osf" horiz-adv-x="521" 
d="M393 524.5q50 -45.5 50 -126.5q0 -64 -33.5 -109.5t-94.5 -55.5v-1q64 -5 104.5 -50t40.5 -112q0 -54 -27 -94.5t-72.5 -63t-101.5 -22.5q-89 0 -145.5 40.5t-72.5 110.5l14 9q14 -68 66 -107t138 -39q52 0 94 20.5t66.5 58t24.5 88.5q0 68 -44.5 111.5t-124.5 43.5h-50
v14h50q72 0 112 45t40 113q0 74 -46 116t-127 42q-64 0 -111 -34.5t-65 -95.5l-16 9q22 63 73 99t119 36q89 0 139 -45.5z" />
    <glyph glyph-name="four.osf" horiz-adv-x="550" 
d="M527 105h-139v-205h-16v205h-334v14l328 441h22v-441h139v-14zM56 119h316v424h-1l-43 -59z" />
    <glyph glyph-name="five.osf" horiz-adv-x="535" 
d="M387 274q47 -26 73 -72.5t26 -105.5q0 -60 -27 -107t-75 -73t-109 -26q-194 0 -225 159l14 6q12 -77 67 -114t144 -37q57 0 101.5 24.5t69 68t24.5 99.5q0 55 -24 98.5t-67.5 67.5t-98.5 24q-130 0 -194 -85h-14l30 359h359v-14h-346l-26 -309l-2 -19h1q59 82 192 82
q60 0 107 -26z" />
    <glyph glyph-name="six.osf" horiz-adv-x="540" 
d="M414.5 637.5q42.5 -32.5 61.5 -87.5l-15 -7q-15 51 -55 82t-103 31q-121 0 -177 -98t-56 -241q0 -58 10 -123h2q-2 59 26.5 105t77 71t101.5 25q95 0 149.5 -55.5t54.5 -147.5t-56.5 -147t-151.5 -55q-113 0 -170.5 86t-57.5 254q0 111 32 187.5t88 114.5t128 38
q69 0 111.5 -32.5zM187.5 353.5q-43.5 -27.5 -68 -70.5t-24.5 -89q0 -54 23.5 -97t66.5 -68t97 -25q89 0 141 52t52 138q0 83 -51.5 135t-136.5 52q-56 0 -99.5 -27.5z" />
    <glyph glyph-name="seven.osf" horiz-adv-x="494" 
d="M485 560v-14q-121 -130 -186.5 -288.5t-81.5 -357.5h-17q16 195 80 355t187 291h-445v14h463z" />
    <glyph glyph-name="eight.osf" horiz-adv-x="562" 
d="M425 626q54 -44 54 -118q0 -63 -38 -104.5t-105 -55.5v-1q78 -13 124.5 -61.5t46.5 -116.5q0 -52 -28.5 -92.5t-80 -63.5t-117.5 -23t-117.5 23t-80 63.5t-28.5 92.5q0 68 47 116.5t124 61.5v1q-67 14 -105 55.5t-38 104.5q0 74 53.5 118t144.5 44q90 0 144 -44z
M148.5 615.5q-49.5 -40.5 -49.5 -107.5q0 -69 50 -111t132 -42t132 42t50 111q0 67 -49.5 107.5t-132.5 40.5t-132.5 -40.5zM390 25q48 21 74.5 58.5t26.5 85.5q0 49 -26.5 87.5t-74.5 60.5t-109 22t-109 -22t-74.5 -60.5t-26.5 -87.5q0 -48 26.5 -85.5t74.5 -58.5t109 -21
t109 21z" />
    <glyph glyph-name="nine.osf" horiz-adv-x="566" 
d="M445.5 481.5q60.5 -88.5 60.5 -251.5q0 -111 -30 -187.5t-82.5 -114.5t-121.5 -38q-81 0 -138 38.5t-71 101.5l17 9q11 -62 61 -98.5t131 -36.5q115 0 167 95.5t52 234.5q0 64 -12 136h-2q3 -61 -27 -108t-79.5 -72t-102.5 -25q-97 0 -154 55t-57 148q0 92 58 147t156 55
q114 0 174.5 -88.5zM127 504q-54 -52 -54 -138q0 -84 53.5 -135.5t141.5 -51.5q55 0 100.5 27.5t71.5 71t26 88.5q0 54 -24.5 97t-69 68t-100.5 25q-91 0 -145 -52z" />
    <glyph glyph-name="zero.tf" 
d="M128 78q-61 88 -61 252t61 252t174 88t174 -88t61 -252t-61 -252t-174 -88t-174 88zM464.5 88q56.5 84 56.5 242t-56.5 242t-162.5 84t-162.5 -84t-56.5 -242t56.5 -242t162.5 -84t162.5 84z" />
    <glyph glyph-name="one.tf" 
d="M537 14v-14h-426v14h216v554v65q-33 -46 -97 -86.5t-123 -61.5l-5 15q65 23 133 67t92 93h16v-646h194z" />
    <glyph glyph-name="two.tf" 
d="M102 14l32 27q137 113 207 178t112.5 129t42.5 127q0 85 -50.5 133t-137.5 48q-88 0 -141 -53.5t-57 -144.5l-15 6q5 94 61.5 150t151.5 56t149 -52t54 -143q0 -67 -40.5 -130.5t-108.5 -127.5t-207 -180l-26 -22v-1h28h383v-14h-438v14z" />
    <glyph glyph-name="three.tf" 
d="M437 624.5q50 -45.5 50 -126.5q0 -64 -33.5 -109.5t-94.5 -55.5v-1q41 -3 74.5 -26t52 -58.5t18.5 -75.5q0 -55 -27 -96.5t-73 -63.5t-101 -22q-90 0 -148 40.5t-74 110.5l14 9q14 -67 68 -106.5t140 -39.5q52 0 94 20.5t66.5 59t24.5 90.5q0 40 -20 75t-58 56t-91 21
h-50v14h50q72 0 112 45t40 113q0 74 -46 116t-127 42q-64 0 -111 -34.5t-65 -95.5l-16 9q22 63 73 99t119 36q89 0 139 -45.5z" />
    <glyph glyph-name="four.tf" 
d="M387 205h-330v14l322 441h24v-441h151v-14h-151v-205h-16v205zM387 219v295v131h-1l-54 -74l-257 -352h312z" />
    <glyph glyph-name="five.tf" 
d="M429 374q47 -26 73 -72.5t26 -105.5q0 -60 -27 -107t-75 -73t-109 -26q-194 0 -225 159l14 6q12 -77 67 -114t144 -37q57 0 101.5 24.5t69 68t24.5 99.5q0 55 -24 98.5t-67.5 67.5t-98.5 24q-130 0 -194 -85h-14l30 359h359v-14h-346l-26 -309l-2 -19h1q59 82 192 82
q60 0 107 -26z" />
    <glyph glyph-name="six.tf" 
d="M467 637.5q44 -32.5 63 -87.5l-15 -7q-16 51 -57 82t-106 31q-85 0 -138.5 -47.5t-77.5 -124t-24 -167.5q0 -39 10 -123h2q0 61 30 106.5t78.5 70t103.5 24.5q98 0 153.5 -55.5t55.5 -147.5t-58 -147t-155 -55q-117 0 -176 86t-59 254q0 111 32.5 187.5t90.5 114.5
t132 38q71 0 115 -32.5zM233 353.5q-46 -27.5 -71 -70.5t-25 -89q0 -54 24.5 -97t69 -68t100.5 -25q91 0 144.5 52t53.5 138q0 55 -24 97.5t-67.5 66t-101.5 23.5q-57 0 -103 -27.5z" />
    <glyph glyph-name="seven.tf" 
d="M574 660v-14q-137 -131 -209.5 -290t-83.5 -356h-17q11 192 81.5 351.5t208.5 294.5h-493v14h513z" />
    <glyph glyph-name="eight.tf" 
d="M441.5 625.5q52.5 -44.5 52.5 -117.5q0 -63 -36.5 -104.5t-100.5 -55.5v-1q75 -14 120 -62.5t45 -115.5q0 -52 -28 -92.5t-78 -63.5t-114 -23t-114.5 23t-78.5 63.5t-28 92.5q0 68 45.5 116.5t120.5 61.5v1q-65 14 -101.5 55.5t-36.5 104.5q0 74 52.5 118t140.5 44
q87 0 139.5 -44.5zM173.5 615.5q-48.5 -40.5 -48.5 -107.5q0 -69 48.5 -111t128.5 -42q79 0 127.5 42.5t48.5 110.5q0 67 -48 107.5t-128 40.5t-128.5 -40.5zM407.5 25q46.5 21 72.5 58.5t26 85.5q0 49 -26 87.5t-72.5 60.5t-105.5 22q-60 0 -106.5 -22t-72.5 -60.5
t-26 -87.5q0 -48 26 -85.5t72.5 -58.5t106.5 -21q59 0 105.5 21z" />
    <glyph glyph-name="nine.tf" 
d="M466.5 581.5q60.5 -88.5 60.5 -251.5q0 -111 -30 -187.5t-82.5 -114.5t-121.5 -38q-81 0 -138 38.5t-71 101.5l17 9q11 -62 61 -98.5t131 -36.5q115 0 167 95.5t52 234.5q0 64 -12 136h-2q3 -61 -27 -108t-79.5 -72t-102.5 -25q-97 0 -154 55t-57 148q0 92 58 147t156 55
q114 0 174.5 -88.5zM148 604q-54 -52 -54 -138q0 -84 53.5 -135.5t141.5 -51.5q55 0 100.5 27.5t71.5 71t26 88.5q0 54 -24.5 97t-69 68t-100.5 25q-91 0 -145 -52z" />
    <glyph glyph-name="zero.tosf" 
d="M472.5 495q59.5 -75 59.5 -215t-59.5 -215t-170.5 -75t-170.5 75t-59.5 215t59.5 215t170.5 75t170.5 -75zM143 485q-55 -71 -55 -205t55 -205t159 -71t159 71t55 205t-55 205t-159 71t-159 -71z" />
    <glyph glyph-name="one.tosf" 
d="M537 14v-14h-426v14h216v434v85q-32 -46 -88.5 -83t-113.5 -56l-6 13q61 23 121.5 64t86.5 89h16v-546h194z" />
    <glyph glyph-name="two.tosf" 
d="M440 521.5q52 -48.5 52 -131.5q0 -73 -40.5 -133.5t-113 -114t-188.5 -117.5q-7 -4 -21 -10v-1h39h353v-14h-422v14q123 66 204 122t127.5 119t46.5 135q0 76 -48 121t-130 45q-79 0 -129.5 -48.5t-50.5 -127.5q0 -15 1 -22l-15 6q-1 7 -1 20q0 85 54.5 135.5t140.5 50.5
q89 0 141 -48.5z" />
    <glyph glyph-name="three.tosf" 
d="M442 524.5q50 -45.5 50 -126.5q0 -64 -33.5 -109.5t-94.5 -55.5v-1q64 -5 104.5 -50t40.5 -112q0 -54 -27 -94.5t-72.5 -63t-101.5 -22.5q-89 0 -145.5 40.5t-72.5 110.5l14 9q14 -68 66 -107t138 -39q52 0 94 20.5t66.5 58t24.5 88.5q0 68 -44.5 111.5t-124.5 43.5h-50
v14h50q72 0 112 45t40 113q0 74 -46 116t-127 42q-64 0 -111 -34.5t-65 -95.5l-16 9q22 63 73 99t119 36q89 0 139 -45.5z" />
    <glyph glyph-name="four.tosf" 
d="M387 105h-330v14l322 441h24v-441h151v-14h-151v-205h-16v205zM387 119v295v131h-1l-54 -74l-257 -352h312z" />
    <glyph glyph-name="five.tosf" 
d="M421 274q47 -26 73 -72.5t26 -105.5q0 -60 -27 -107t-75 -73t-109 -26q-194 0 -225 159l14 6q12 -77 67 -114t144 -37q57 0 101.5 24.5t69 68t24.5 99.5q0 55 -24 98.5t-67.5 67.5t-98.5 24q-130 0 -194 -85h-14l30 359h359v-14h-346l-26 -309l-2 -19h1q59 82 192 82
q60 0 107 -26z" />
    <glyph glyph-name="six.tosf" 
d="M454.5 637.5q42.5 -32.5 61.5 -87.5l-15 -7q-15 51 -55 82t-103 31q-121 0 -177 -98t-56 -241q0 -58 10 -123h2q-2 59 26.5 105t77 71t101.5 25q95 0 149.5 -55.5t54.5 -147.5t-56.5 -147t-151.5 -55q-113 0 -170.5 86t-57.5 254q0 111 32 187.5t88 114.5t128 38
q69 0 111.5 -32.5zM227.5 353.5q-43.5 -27.5 -68 -70.5t-24.5 -89q0 -54 23.5 -97t66.5 -68t97 -25q89 0 141 52t52 138q0 83 -51.5 135t-136.5 52q-56 0 -99.5 -27.5z" />
    <glyph glyph-name="seven.tosf" 
d="M533 560v-14q-121 -130 -186.5 -288.5t-81.5 -357.5h-17q16 195 80 355t187 291h-445v14h463z" />
    <glyph glyph-name="eight.tosf" 
d="M446 626q54 -44 54 -118q0 -63 -38 -104.5t-105 -55.5v-1q78 -13 124.5 -61.5t46.5 -116.5q0 -52 -28.5 -92.5t-80 -63.5t-117.5 -23t-117.5 23t-80 63.5t-28.5 92.5q0 68 47 116.5t124 61.5v1q-67 14 -105 55.5t-38 104.5q0 74 53.5 118t144.5 44q90 0 144 -44z
M169.5 615.5q-49.5 -40.5 -49.5 -107.5q0 -69 50 -111t132 -42t132 42t50 111q0 67 -49.5 107.5t-132.5 40.5t-132.5 -40.5zM411 25q48 21 74.5 58.5t26.5 85.5q0 49 -26.5 87.5t-74.5 60.5t-109 22t-109 -22t-74.5 -60.5t-26.5 -87.5q0 -48 26.5 -85.5t74.5 -58.5t109 -21
t109 21z" />
    <glyph glyph-name="nine.tosf" 
d="M466.5 481.5q60.5 -88.5 60.5 -251.5q0 -111 -30 -187.5t-82.5 -114.5t-121.5 -38q-81 0 -138 38.5t-71 101.5l17 9q11 -62 61 -98.5t131 -36.5q115 0 167 95.5t52 234.5q0 64 -12 136h-2q3 -61 -27 -108t-79.5 -72t-102.5 -25q-97 0 -154 55t-57 148q0 92 58 147t156 55
q114 0 174.5 -88.5zM148 504q-54 -52 -54 -138q0 -84 53.5 -135.5t141.5 -51.5q55 0 100.5 27.5t71.5 71t26 88.5q0 54 -24.5 97t-69 68t-100.5 25q-91 0 -145 -52z" />
    <glyph glyph-name="zero.zero" horiz-adv-x="590" 
d="M469 582q61 -88 61 -252t-61 -252t-174 -88t-174 88t-61 252t61 252t174 88t174 -88zM99 158.5q23 -71.5 68 -110.5l243 573q-47 35 -115 35q-106 0 -162.5 -84t-56.5 -242q0 -100 23 -171.5zM457.5 88q56.5 84 56.5 242q0 202 -90 281l-244 -573q49 -34 115 -34
q106 0 162.5 84z" />
    <glyph glyph-name="zero.osf.zero" horiz-adv-x="570" 
d="M455.5 495q59.5 -75 59.5 -215t-59.5 -215t-170.5 -75t-170.5 75t-59.5 215t59.5 215t170.5 75t170.5 -75zM93 136.5q22 -59.5 64 -92.5l242 482q-47 30 -114 30q-104 0 -159 -71t-55 -205q0 -84 22 -143.5zM444 75q55 71 55 205q0 84 -22 143.5t-64 92.5l-242 -482
q47 -30 114 -30q104 0 159 71z" />
    <glyph glyph-name="zero.tf.zero" 
d="M476 582q61 -88 61 -252t-61 -252t-174 -88t-174 88t-61 252t61 252t174 88t174 -88zM178 45l234 580q-47 31 -110 31q-106 0 -162.5 -84t-56.5 -242q0 -207 95 -285zM464.5 88q56.5 84 56.5 242q0 102 -24 174.5t-71 110.5l-235 -580q48 -31 111 -31q106 0 162.5 84z
" />
    <glyph glyph-name="zero.tosf.zero" 
d="M532 280q0 -140 -59.5 -215t-170.5 -75t-170.5 75t-59.5 215t59.5 215t170.5 75q84 0 140 -44l4 -3q86 -74 86 -243zM113.5 128q25.5 -62 74.5 -94l-4 3l241 483q-48 36 -123 36q-104 0 -159 -71t-55 -205q0 -90 25.5 -152zM461 75q55 71 55 205q0 158 -77 229l-241 -481
q44 -24 104 -24q104 0 159 71z" />
    <glyph glyph-name="fraction" unicode="&#x2044;" horiz-adv-x="202" 
d="M324 660h19l-465 -660h-19z" />
    <glyph glyph-name="onehalf" unicode="&#xbd;" horiz-adv-x="725" 
d="M136 665v-397h-16v310q0 21 2 65q-32 -44 -111 -75v13q30 10 64 33.5t48 50.5h13zM518 660h19l-465 -660h-19zM433 11l114 97q53 45 84 87t31 85q0 47 -29 75.5t-78 28.5q-51 0 -81 -30t-33 -82l-15 3q5 55 39 89t90 34q57 0 90 -32t33 -87q0 -80 -122 -183l-101 -85v-1
h26h213v-14h-261v15z" />
    <glyph glyph-name="onequarter" unicode="&#xbc;" horiz-adv-x="635" 
d="M136 665v-397h-16v310q0 21 2 65q-32 -44 -111 -75v13q30 10 64 33.5t48 50.5h13zM518 660h19l-465 -660h-19zM616 116h-81v-120h-16v120h-198v14l192 263h22v-263h81v-14zM519 130v205v42h-1l-32 -45l-148 -202h181z" />
    <glyph glyph-name="threequarters" unicode="&#xbe;" horiz-adv-x="747" 
d="M226 640.5q31 -29.5 31 -75.5q0 -36 -18.5 -61t-54.5 -35v-2q38 -4 60.5 -30.5t22.5 -63.5q0 -51 -35.5 -81t-89.5 -30q-51 0 -83.5 24t-44.5 67l13 8q9 -40 38 -62.5t79 -22.5q48 0 77.5 25.5t29.5 70.5q0 42 -26 65.5t-76 23.5h-25v14h25q43 0 67.5 26t24.5 64
q0 42 -26 66.5t-72 24.5q-41 0 -68 -19.5t-35 -53.5l-14 7q11 36 42 58t74 22q53 0 84 -29.5zM630 660h19l-465 -660h-19zM728 116h-81v-120h-16v120h-198v14l192 263h22v-263h81v-14zM631 130v205v42h-1l-32 -45l-148 -202h181z" />
    <glyph glyph-name="zero.dnom" horiz-adv-x="358" 
d="M74.5 42.5q-36.5 52.5 -36.5 151.5t36.5 151.5t104.5 52.5t104.5 -52.5t36.5 -151.5t-36.5 -151.5t-104.5 -52.5t-104.5 52.5zM271.5 53.5q32.5 49.5 32.5 140.5t-32.5 140.5t-92.5 49.5t-92.5 -49.5t-32.5 -140.5t32.5 -140.5t92.5 -49.5t92.5 49.5z" />
    <glyph glyph-name="one.dnom" horiz-adv-x="194" 
d="M136 393v-397h-16v310q0 21 2 65q-32 -44 -111 -75v13q30 10 64 33.5t48 50.5h13z" />
    <glyph glyph-name="two.dnom" horiz-adv-x="329" 
d="M37 11l114 97q53 45 84 87t31 85q0 47 -29 75.5t-78 28.5q-51 0 -81 -30t-33 -82l-15 3q5 55 39 89t90 34q57 0 90 -32t33 -87q0 -80 -122 -183l-101 -85v-1h26h213v-14h-261v15z" />
    <glyph glyph-name="three.dnom" horiz-adv-x="306" 
d="M226 368.5q31 -29.5 31 -75.5q0 -36 -18.5 -61t-54.5 -35v-2q38 -4 60.5 -30.5t22.5 -63.5q0 -51 -35.5 -81t-89.5 -30q-51 0 -83.5 24t-44.5 67l13 8q9 -40 38 -62.5t79 -22.5q48 0 77.5 25.5t29.5 70.5q0 42 -26 65.5t-76 23.5h-25v14h25q43 0 67.5 26t24.5 64
q0 42 -26 66.5t-72 24.5q-41 0 -68 -19.5t-35 -53.5l-14 7q11 36 42 58t74 22q53 0 84 -29.5z" />
    <glyph glyph-name="four.dnom" horiz-adv-x="329" 
d="M310 116h-81v-120h-16v120h-198v14l192 263h22v-263h81v-14zM213 130v205v42h-1l-32 -45l-148 -202h181z" />
    <glyph glyph-name="five.dnom" horiz-adv-x="329" 
d="M261.5 206q34.5 -35 34.5 -90q0 -56 -35 -90.5t-93 -34.5q-53 0 -87 24t-45 73l14 5q8 -43 38 -65.5t80 -22.5q49 0 80.5 31t31.5 80q0 50 -30 80.5t-79 30.5q-42 0 -67.5 -12t-42.5 -36h-16l20 214h215v-14h-202l-14 -152l-4 -28h1q34 42 111 42q55 0 89.5 -35z" />
    <glyph glyph-name="six.dnom" horiz-adv-x="338" 
d="M74.5 42.5q-35.5 52.5 -35.5 151.5q0 98 40.5 151t106.5 53q81 0 109 -75l-13 -5q-11 30 -35.5 48t-61.5 18q-68 0 -100 -58.5t-32 -142.5q0 -26 3 -50h1q4 47 39 76t84 29q58 0 91 -33.5t33 -90.5t-33 -90.5t-92 -33.5q-69 0 -104.5 52.5zM259 33.5q29 29.5 29 80.5
q0 50 -29.5 80t-77.5 30q-34 0 -60 -16t-40.5 -41t-14.5 -52q0 -47 32.5 -79t80.5 -32q51 0 80 29.5z" />
    <glyph glyph-name="seven.dnom" horiz-adv-x="294" 
d="M284 393v-14q-157 -170 -157 -383h-15q0 106 39 203t113 180h-258v14h278z" />
    <glyph glyph-name="eight.dnom" horiz-adv-x="345" 
d="M258.5 371q32.5 -27 32.5 -72q0 -35 -20 -60t-55 -34v-1q43 -10 68 -38t25 -67q0 -49 -38 -79t-98 -30q-61 0 -99 30t-38 79q0 39 26 67.5t68 37.5v1q-35 9 -55.5 34t-20.5 60q0 45 32 72t87 27q53 0 85.5 -27zM98.5 360q-28.5 -24 -28.5 -62t28.5 -62.5t74.5 -24.5
t74 24.5t28 62.5t-28 62t-74 24t-74.5 -24zM259.5 31q33.5 27 33.5 69q0 43 -33.5 70t-86.5 27t-87 -27t-34 -70q0 -42 33.5 -69t87.5 -27q53 0 86.5 27z" />
    <glyph glyph-name="nine.dnom" horiz-adv-x="350" 
d="M274 344q37 -54 37 -150q0 -97 -38.5 -150.5t-104.5 -53.5q-50 0 -83.5 23t-44.5 63l14 7q8 -37 36.5 -58t77.5 -21q65 0 97 56.5t32 136.5q0 33 -7 73h-1q1 -36 -17 -63t-47 -41.5t-58 -14.5q-60 0 -94.5 34t-34.5 91q0 56 35 89t94 33q70 0 107 -54zM85 354
q-31 -30 -31 -79q0 -48 31 -79t81 -31q32 0 58 15.5t40.5 41t14.5 52.5q0 47 -31.5 78.5t-79.5 31.5q-52 0 -83 -30z" />
    <glyph glyph-name="zero.numr" horiz-adv-x="358" 
d="M74.5 314.5q-36.5 52.5 -36.5 151.5t36.5 151.5t104.5 52.5t104.5 -52.5t36.5 -151.5t-36.5 -151.5t-104.5 -52.5t-104.5 52.5zM271.5 325.5q32.5 49.5 32.5 140.5t-32.5 140.5t-92.5 49.5t-92.5 -49.5t-32.5 -140.5t32.5 -140.5t92.5 -49.5t92.5 49.5z" />
    <glyph glyph-name="one.numr" horiz-adv-x="194" 
d="M136 665v-397h-16v310q0 21 2 65q-32 -44 -111 -75v13q30 10 64 33.5t48 50.5h13z" />
    <glyph glyph-name="two.numr" horiz-adv-x="329" 
d="M37 283l114 97q53 45 84 87t31 85q0 47 -29 75.5t-78 28.5q-51 0 -81 -30t-33 -82l-15 3q5 55 39 89t90 34q57 0 90 -32t33 -87q0 -80 -122 -183l-101 -85v-1h26h213v-14h-261v15z" />
    <glyph glyph-name="three.numr" horiz-adv-x="306" 
d="M226 640.5q31 -29.5 31 -75.5q0 -36 -18.5 -61t-54.5 -35v-2q38 -4 60.5 -30.5t22.5 -63.5q0 -51 -35.5 -81t-89.5 -30q-51 0 -83.5 24t-44.5 67l13 8q9 -40 38 -62.5t79 -22.5q48 0 77.5 25.5t29.5 70.5q0 42 -26 65.5t-76 23.5h-25v14h25q43 0 67.5 26t24.5 64
q0 42 -26 66.5t-72 24.5q-41 0 -68 -19.5t-35 -53.5l-14 7q11 36 42 58t74 22q53 0 84 -29.5z" />
    <glyph glyph-name="four.numr" horiz-adv-x="329" 
d="M310 388h-81v-120h-16v120h-198v14l192 263h22v-263h81v-14zM213 402v205v42h-1l-32 -45l-148 -202h181z" />
    <glyph glyph-name="five.numr" horiz-adv-x="329" 
d="M261.5 478q34.5 -35 34.5 -90q0 -56 -35 -90.5t-93 -34.5q-53 0 -87 24t-45 73l14 5q8 -43 38 -65.5t80 -22.5q49 0 80.5 31t31.5 80q0 50 -30 80.5t-79 30.5q-42 0 -67.5 -12t-42.5 -36h-16l20 214h215v-14h-202l-14 -152l-4 -28h1q34 42 111 42q55 0 89.5 -35z" />
    <glyph glyph-name="six.numr" horiz-adv-x="338" 
d="M74.5 314.5q-35.5 52.5 -35.5 151.5q0 98 40.5 151t106.5 53q81 0 109 -75l-13 -5q-11 30 -35.5 48t-61.5 18q-68 0 -100 -58.5t-32 -142.5q0 -26 3 -50h1q4 47 39 76t84 29q58 0 91 -33.5t33 -90.5t-33 -90.5t-92 -33.5q-69 0 -104.5 52.5zM259 305.5q29 29.5 29 80.5
q0 50 -29.5 80t-77.5 30q-34 0 -60 -16t-40.5 -41t-14.5 -52q0 -47 32.5 -79t80.5 -32q51 0 80 29.5z" />
    <glyph glyph-name="seven.numr" horiz-adv-x="294" 
d="M284 665v-14q-157 -170 -157 -383h-15q0 106 39 203t113 180h-258v14h278z" />
    <glyph glyph-name="eight.numr" horiz-adv-x="345" 
d="M258.5 643q32.5 -27 32.5 -72q0 -35 -20 -60t-55 -34v-1q43 -10 68 -38t25 -67q0 -49 -38 -79t-98 -30q-61 0 -99 30t-38 79q0 39 26 67.5t68 37.5v1q-35 9 -55.5 34t-20.5 60q0 45 32 72t87 27q53 0 85.5 -27zM98.5 632q-28.5 -24 -28.5 -62t28.5 -62.5t74.5 -24.5
t74 24.5t28 62.5t-28 62t-74 24t-74.5 -24zM259.5 303q33.5 27 33.5 69q0 43 -33.5 70t-86.5 27t-87 -27t-34 -70q0 -42 33.5 -69t87.5 -27q53 0 86.5 27z" />
    <glyph glyph-name="nine.numr" horiz-adv-x="350" 
d="M274 616q37 -54 37 -150q0 -97 -38.5 -150.5t-104.5 -53.5q-50 0 -83.5 23t-44.5 63l14 7q8 -37 36.5 -58t77.5 -21q65 0 97 56.5t32 136.5q0 33 -7 73h-1q1 -36 -17 -63t-47 -41.5t-58 -14.5q-60 0 -94.5 34t-34.5 91q0 56 35 89t94 33q70 0 107 -54zM85 626
q-31 -30 -31 -79q0 -48 31 -79t81 -31q32 0 58 15.5t40.5 41t14.5 52.5q0 47 -31.5 78.5t-79.5 31.5q-52 0 -83 -30z" />
    <glyph glyph-name="uni2780" unicode="&#x2780;" horiz-adv-x="910" 
d="M267 7.5q-83 47.5 -129.5 132t-46.5 190.5t46.5 190.5t129.5 132t188 47.5t188 -47.5t129.5 -132t46.5 -190.5t-46.5 -190.5t-129.5 -132t-188 -47.5t-188 47.5zM634 20q79 46 124 127t45 183t-45 183t-124 127t-179 46t-179 -46t-124 -127t-45 -183t45 -183t124 -127
t179 -46t179 46zM477 533v-397h-16v310q0 21 2 65q-32 -44 -111 -75v13q30 10 64 33.5t48 50.5h13z" />
    <glyph glyph-name="uni2781" unicode="&#x2781;" horiz-adv-x="910" 
d="M267 7.5q-83 47.5 -129.5 132t-46.5 190.5t46.5 190.5t129.5 132t188 47.5t188 -47.5t129.5 -132t46.5 -190.5t-46.5 -190.5t-129.5 -132t-188 -47.5t-188 47.5zM634 20q79 46 124 127t45 183t-45 183t-124 127t-179 46t-179 -46t-124 -127t-45 -183t45 -183t124 -127
t179 -46t179 46zM331 161l114 97q53 45 84 87t31 85q0 47 -29 75.5t-78 28.5q-51 0 -81 -30t-33 -82l-15 3q5 55 39 89t90 34q57 0 90 -32t33 -87q0 -80 -122 -183l-101 -85v-1h26h213v-14h-261v15z" />
    <glyph glyph-name="uni2782" unicode="&#x2782;" horiz-adv-x="910" 
d="M267 7.5q-83 47.5 -129.5 132t-46.5 190.5t46.5 190.5t129.5 132t188 47.5t188 -47.5t129.5 -132t46.5 -190.5t-46.5 -190.5t-129.5 -132t-188 -47.5t-188 47.5zM634 20q79 46 124 127t45 183t-45 183t-124 127t-179 46t-179 -46t-124 -127t-45 -183t45 -183t124 -127
t179 -46t179 46zM540 505.5q31 -29.5 31 -75.5q0 -36 -18.5 -61t-54.5 -35v-2q38 -4 60.5 -30.5t22.5 -63.5q0 -51 -35.5 -81t-89.5 -30q-51 0 -83.5 24t-44.5 67l13 8q9 -40 38 -62.5t79 -22.5q48 0 77.5 25.5t29.5 70.5q0 42 -26 65.5t-76 23.5h-25v14h25q43 0 67.5 26
t24.5 64q0 42 -26 66.5t-72 24.5q-41 0 -68 -19.5t-35 -53.5l-14 7q11 36 42 58t74 22q53 0 84 -29.5z" />
    <glyph glyph-name="uni2783" unicode="&#x2783;" horiz-adv-x="910" 
d="M267 7.5q-83 47.5 -129.5 132t-46.5 190.5t46.5 190.5t129.5 132t188 47.5t188 -47.5t129.5 -132t46.5 -190.5t-46.5 -190.5t-129.5 -132t-188 -47.5t-188 47.5zM634 20q79 46 124 127t45 183t-45 183t-124 127t-179 46t-179 -46t-124 -127t-45 -183t45 -183t124 -127
t179 -46t179 46zM582 256h-81v-120h-16v120h-198v14l192 263h22v-263h81v-14zM485 270v205v42h-1l-32 -45l-148 -202h181z" />
    <glyph glyph-name="uni2784" unicode="&#x2784;" horiz-adv-x="910" 
d="M267 7.5q-83 47.5 -129.5 132t-46.5 190.5t46.5 190.5t129.5 132t188 47.5t188 -47.5t129.5 -132t46.5 -190.5t-46.5 -190.5t-129.5 -132t-188 -47.5t-188 47.5zM634 20q79 46 124 127t45 183t-45 183t-124 127t-179 46t-179 -46t-124 -127t-45 -183t45 -183t124 -127
t179 -46t179 46zM548.5 340q34.5 -35 34.5 -90q0 -56 -35 -90.5t-93 -34.5q-53 0 -87 24t-45 73l14 5q8 -43 38 -65.5t80 -22.5q49 0 80.5 31t31.5 80q0 50 -30 80.5t-79 30.5q-42 0 -67.5 -12t-42.5 -36h-16l20 214h215v-14h-202l-14 -152l-4 -28h1q34 42 111 42
q55 0 89.5 -35z" />
    <glyph glyph-name="uni2785" unicode="&#x2785;" horiz-adv-x="910" 
d="M267 7.5q-83 47.5 -129.5 132t-46.5 190.5t46.5 190.5t129.5 132t188 47.5t188 -47.5t129.5 -132t46.5 -190.5t-46.5 -190.5t-129.5 -132t-188 -47.5t-188 47.5zM634 20q79 46 124 127t45 183t-45 183t-124 127t-179 46t-179 -46t-124 -127t-45 -183t45 -183t124 -127
t179 -46t179 46zM349.5 179.5q-35.5 52.5 -35.5 151.5q0 98 40.5 151t106.5 53q81 0 109 -75l-13 -5q-11 30 -35.5 48t-61.5 18q-68 0 -100 -58.5t-32 -142.5q0 -26 3 -50h1q4 47 39 76t84 29q58 0 91 -33.5t33 -90.5t-33 -90.5t-92 -33.5q-69 0 -104.5 52.5zM534 170.5
q29 29.5 29 80.5q0 50 -29.5 80t-77.5 30q-34 0 -60 -16t-40.5 -41t-14.5 -52q0 -47 32.5 -79t80.5 -32q51 0 80 29.5z" />
    <glyph glyph-name="uni2786" unicode="&#x2786;" horiz-adv-x="910" 
d="M267 7.5q-83 47.5 -129.5 132t-46.5 190.5t46.5 190.5t129.5 132t188 47.5t188 -47.5t129.5 -132t46.5 -190.5t-46.5 -190.5t-129.5 -132t-188 -47.5t-188 47.5zM634 20q79 46 124 127t45 183t-45 183t-124 127t-179 46t-179 -46t-124 -127t-45 -183t45 -183t124 -127
t179 -46t179 46zM595 517v-14q-157 -170 -157 -383h-15q0 106 39 203t113 180h-258v14h278z" />
    <glyph glyph-name="uni2787" unicode="&#x2787;" horiz-adv-x="910" 
d="M267 7.5q-83 47.5 -129.5 132t-46.5 190.5t46.5 190.5t129.5 132t188 47.5t188 -47.5t129.5 -132t46.5 -190.5t-46.5 -190.5t-129.5 -132t-188 -47.5t-188 47.5zM634 20q79 46 124 127t45 183t-45 183t-124 127t-179 46t-179 -46t-124 -127t-45 -183t45 -183t124 -127
t179 -46t179 46zM540.5 508q32.5 -27 32.5 -72q0 -35 -20 -60t-55 -34v-1q43 -10 68 -38t25 -67q0 -49 -38 -79t-98 -30q-61 0 -99 30t-38 79q0 39 26 67.5t68 37.5v1q-35 9 -55.5 34t-20.5 60q0 45 32 72t87 27q53 0 85.5 -27zM380.5 497q-28.5 -24 -28.5 -62t28.5 -62.5
t74.5 -24.5t74 24.5t28 62.5t-28 62t-74 24t-74.5 -24zM541.5 168q33.5 27 33.5 69q0 43 -33.5 70t-86.5 27t-87 -27t-34 -70q0 -42 33.5 -69t87.5 -27q53 0 86.5 27z" />
    <glyph glyph-name="uni2788" unicode="&#x2788;" horiz-adv-x="910" 
d="M267 7.5q-83 47.5 -129.5 132t-46.5 190.5t46.5 190.5t129.5 132t188 47.5t188 -47.5t129.5 -132t46.5 -190.5t-46.5 -190.5t-129.5 -132t-188 -47.5t-188 47.5zM634 20q79 46 124 127t45 183t-45 183t-124 127t-179 46t-179 -46t-124 -127t-45 -183t45 -183t124 -127
t179 -46t179 46zM560 481q37 -54 37 -150q0 -97 -38.5 -150.5t-104.5 -53.5q-50 0 -83.5 23t-44.5 63l14 7q8 -37 36.5 -58t77.5 -21q65 0 97 56.5t32 136.5q0 33 -7 73h-1q1 -36 -17 -63t-47 -41.5t-58 -14.5q-60 0 -94.5 34t-34.5 91q0 56 35 89t94 33q70 0 107 -54z
M371 491q-31 -30 -31 -79q0 -48 31 -79t81 -31q32 0 58 15.5t40.5 41t14.5 52.5q0 47 -31.5 78.5t-79.5 31.5q-52 0 -83 -30z" />
    <glyph glyph-name="uni2080" unicode="&#x2080;" horiz-adv-x="358" 
d="M74.5 -142.5q-36.5 52.5 -36.5 151.5t36.5 151.5t104.5 52.5t104.5 -52.5t36.5 -151.5t-36.5 -151.5t-104.5 -52.5t-104.5 52.5zM271.5 -131.5q32.5 49.5 32.5 140.5t-32.5 140.5t-92.5 49.5t-92.5 -49.5t-32.5 -140.5t32.5 -140.5t92.5 -49.5t92.5 49.5z" />
    <glyph glyph-name="uni2081" unicode="&#x2081;" horiz-adv-x="194" 
d="M136 208v-397h-16v310q0 21 2 65q-32 -44 -111 -75v13q30 10 64 33.5t48 50.5h13z" />
    <glyph glyph-name="uni2082" unicode="&#x2082;" horiz-adv-x="329" 
d="M37 -174l114 97q53 45 84 87t31 85q0 47 -29 75.5t-78 28.5q-51 0 -81 -30t-33 -82l-15 3q5 55 39 89t90 34q57 0 90 -32t33 -87q0 -80 -122 -183l-101 -85v-1h26h213v-14h-261v15z" />
    <glyph glyph-name="uni2083" unicode="&#x2083;" horiz-adv-x="306" 
d="M226 183.5q31 -29.5 31 -75.5q0 -36 -18.5 -61t-54.5 -35v-2q38 -4 60.5 -30.5t22.5 -63.5q0 -51 -35.5 -81t-89.5 -30q-51 0 -83.5 24t-44.5 67l13 8q9 -40 38 -62.5t79 -22.5q48 0 77.5 25.5t29.5 70.5q0 42 -26 65.5t-76 23.5h-25v14h25q43 0 67.5 26t24.5 64
q0 42 -26 66.5t-72 24.5q-41 0 -68 -19.5t-35 -53.5l-14 7q11 36 42 58t74 22q53 0 84 -29.5z" />
    <glyph glyph-name="uni2084" unicode="&#x2084;" horiz-adv-x="329" 
d="M310 -69h-81v-120h-16v120h-198v14l192 263h22v-263h81v-14zM213 -55v205v42h-1l-32 -45l-148 -202h181z" />
    <glyph glyph-name="uni2085" unicode="&#x2085;" horiz-adv-x="329" 
d="M261.5 21q34.5 -35 34.5 -90q0 -56 -35 -90.5t-93 -34.5q-53 0 -87 24t-45 73l14 5q8 -43 38 -65.5t80 -22.5q49 0 80.5 31t31.5 80q0 50 -30 80.5t-79 30.5q-42 0 -67.5 -12t-42.5 -36h-16l20 214h215v-14h-202l-14 -152l-4 -28h1q34 42 111 42q55 0 89.5 -35z" />
    <glyph glyph-name="uni2086" unicode="&#x2086;" horiz-adv-x="338" 
d="M74.5 -142.5q-35.5 52.5 -35.5 151.5q0 98 40.5 151t106.5 53q81 0 109 -75l-13 -5q-11 30 -35.5 48t-61.5 18q-68 0 -100 -58.5t-32 -142.5q0 -26 3 -50h1q4 47 39 76t84 29q58 0 91 -33.5t33 -90.5t-33 -90.5t-92 -33.5q-69 0 -104.5 52.5zM259 -151.5q29 29.5 29 80.5
q0 50 -29.5 80t-77.5 30q-34 0 -60 -16t-40.5 -41t-14.5 -52q0 -47 32.5 -79t80.5 -32q51 0 80 29.5z" />
    <glyph glyph-name="uni2087" unicode="&#x2087;" horiz-adv-x="294" 
d="M284 208v-14q-157 -170 -157 -383h-15q0 106 39 203t113 180h-258v14h278z" />
    <glyph glyph-name="uni2088" unicode="&#x2088;" horiz-adv-x="345" 
d="M258.5 186q32.5 -27 32.5 -72q0 -35 -20 -60t-55 -34v-1q43 -10 68 -38t25 -67q0 -49 -38 -79t-98 -30q-61 0 -99 30t-38 79q0 39 26 67.5t68 37.5v1q-35 9 -55.5 34t-20.5 60q0 45 32 72t87 27q53 0 85.5 -27zM98.5 175q-28.5 -24 -28.5 -62t28.5 -62.5t74.5 -24.5
t74 24.5t28 62.5t-28 62t-74 24t-74.5 -24zM259.5 -154q33.5 27 33.5 69q0 43 -33.5 70t-86.5 27t-87 -27t-34 -70q0 -42 33.5 -69t87.5 -27q53 0 86.5 27z" />
    <glyph glyph-name="uni2089" unicode="&#x2089;" horiz-adv-x="350" 
d="M274 159q37 -54 37 -150q0 -97 -38.5 -150.5t-104.5 -53.5q-50 0 -83.5 23t-44.5 63l14 7q8 -37 36.5 -58t77.5 -21q65 0 97 56.5t32 136.5q0 33 -7 73h-1q1 -36 -17 -63t-47 -41.5t-58 -14.5q-60 0 -94.5 34t-34.5 91q0 56 35 89t94 33q70 0 107 -54zM85 169
q-31 -30 -31 -79q0 -48 31 -79t81 -31q32 0 58 15.5t40.5 41t14.5 52.5q0 47 -31.5 78.5t-79.5 31.5q-52 0 -83 -30z" />
    <glyph glyph-name="uni2070" unicode="&#x2070;" horiz-adv-x="358" 
d="M74.5 379.5q-36.5 52.5 -36.5 151.5t36.5 151.5t104.5 52.5t104.5 -52.5t36.5 -151.5t-36.5 -151.5t-104.5 -52.5t-104.5 52.5zM271.5 390.5q32.5 49.5 32.5 140.5t-32.5 140.5t-92.5 49.5t-92.5 -49.5t-32.5 -140.5t32.5 -140.5t92.5 -49.5t92.5 49.5z" />
    <glyph glyph-name="uni00B9" unicode="&#xb9;" horiz-adv-x="194" 
d="M136 730v-397h-16v310q0 21 2 65q-32 -44 -111 -75v13q30 10 64 33.5t48 50.5h13z" />
    <glyph glyph-name="uni00B2" unicode="&#xb2;" horiz-adv-x="329" 
d="M37 348l114 97q53 45 84 87t31 85q0 47 -29 75.5t-78 28.5q-51 0 -81 -30t-33 -82l-15 3q5 55 39 89t90 34q57 0 90 -32t33 -87q0 -80 -122 -183l-101 -85v-1h26h213v-14h-261v15z" />
    <glyph glyph-name="uni00B3" unicode="&#xb3;" horiz-adv-x="306" 
d="M226 705.5q31 -29.5 31 -75.5q0 -36 -18.5 -61t-54.5 -35v-2q38 -4 60.5 -30.5t22.5 -63.5q0 -51 -35.5 -81t-89.5 -30q-51 0 -83.5 24t-44.5 67l13 8q9 -40 38 -62.5t79 -22.5q48 0 77.5 25.5t29.5 70.5q0 42 -26 65.5t-76 23.5h-25v14h25q43 0 67.5 26t24.5 64
q0 42 -26 66.5t-72 24.5q-41 0 -68 -19.5t-35 -53.5l-14 7q11 36 42 58t74 22q53 0 84 -29.5z" />
    <glyph glyph-name="uni2074" unicode="&#x2074;" horiz-adv-x="329" 
d="M310 453h-81v-120h-16v120h-198v14l192 263h22v-263h81v-14zM213 467v205v42h-1l-32 -45l-148 -202h181z" />
    <glyph glyph-name="uni2075" unicode="&#x2075;" horiz-adv-x="329" 
d="M261.5 543q34.5 -35 34.5 -90q0 -56 -35 -90.5t-93 -34.5q-53 0 -87 24t-45 73l14 5q8 -43 38 -65.5t80 -22.5q49 0 80.5 31t31.5 80q0 50 -30 80.5t-79 30.5q-42 0 -67.5 -12t-42.5 -36h-16l20 214h215v-14h-202l-14 -152l-4 -28h1q34 42 111 42q55 0 89.5 -35z" />
    <glyph glyph-name="uni2076" unicode="&#x2076;" horiz-adv-x="338" 
d="M74.5 379.5q-35.5 52.5 -35.5 151.5q0 98 40.5 151t106.5 53q81 0 109 -75l-13 -5q-11 30 -35.5 48t-61.5 18q-68 0 -100 -58.5t-32 -142.5q0 -26 3 -50h1q4 47 39 76t84 29q58 0 91 -33.5t33 -90.5t-33 -90.5t-92 -33.5q-69 0 -104.5 52.5zM259 370.5q29 29.5 29 80.5
q0 50 -29.5 80t-77.5 30q-34 0 -60 -16t-40.5 -41t-14.5 -52q0 -47 32.5 -79t80.5 -32q51 0 80 29.5z" />
    <glyph glyph-name="uni2077" unicode="&#x2077;" horiz-adv-x="294" 
d="M284 730v-14q-157 -170 -157 -383h-15q0 106 39 203t113 180h-258v14h278z" />
    <glyph glyph-name="uni2078" unicode="&#x2078;" horiz-adv-x="345" 
d="M258.5 708q32.5 -27 32.5 -72q0 -35 -20 -60t-55 -34v-1q43 -10 68 -38t25 -67q0 -49 -38 -79t-98 -30q-61 0 -99 30t-38 79q0 39 26 67.5t68 37.5v1q-35 9 -55.5 34t-20.5 60q0 45 32 72t87 27q53 0 85.5 -27zM98.5 697q-28.5 -24 -28.5 -62t28.5 -62.5t74.5 -24.5
t74 24.5t28 62.5t-28 62t-74 24t-74.5 -24zM259.5 368q33.5 27 33.5 69q0 43 -33.5 70t-86.5 27t-87 -27t-34 -70q0 -42 33.5 -69t87.5 -27q53 0 86.5 27z" />
    <glyph glyph-name="uni2079" unicode="&#x2079;" horiz-adv-x="350" 
d="M274 681q37 -54 37 -150q0 -97 -38.5 -150.5t-104.5 -53.5q-50 0 -83.5 23t-44.5 63l14 7q8 -37 36.5 -58t77.5 -21q65 0 97 56.5t32 136.5q0 33 -7 73h-1q1 -36 -17 -63t-47 -41.5t-58 -14.5q-60 0 -94.5 34t-34.5 91q0 56 35 89t94 33q70 0 107 -54zM85 691
q-31 -30 -31 -79q0 -48 31 -79t81 -31q32 0 58 15.5t40.5 41t14.5 52.5q0 47 -31.5 78.5t-79.5 31.5q-52 0 -83 -30z" />
    <glyph glyph-name="zero.sc" horiz-adv-x="554" 
d="M441.5 495q57.5 -75 57.5 -215t-57.5 -215t-164.5 -75t-164.5 75t-57.5 215t57.5 215t164.5 75t164.5 -75zM124 485q-53 -71 -53 -205t53 -205t153 -71t153 71t53 205t-53 205t-153 71t-153 -71z" />
    <glyph glyph-name="one.sc" horiz-adv-x="316" 
d="M224 560v-560h-16v478v52q-28 -44 -74.5 -77.5t-98.5 -51.5l-7 12q58 21 107 59t73 88h16z" />
    <glyph glyph-name="two.sc" horiz-adv-x="523" 
d="M401.5 520q50.5 -48 50.5 -130q0 -74 -42 -136.5t-113.5 -116.5t-185.5 -122v-1h29h341v-14h-400v14q116 69 190.5 124t119.5 117.5t45 134.5q0 75 -46.5 119.5t-125.5 44.5q-49 0 -89 -20.5t-63 -56.5t-23 -80q0 -12 1 -18l-14 5q-1 6 -1 17q0 47 24.5 85.5t67.5 60
t97 21.5q87 0 137.5 -48z" />
    <glyph glyph-name="three.sc" horiz-adv-x="466" 
d="M351.5 529.5q44.5 -38.5 44.5 -107.5q0 -54 -30 -92.5t-83 -47.5q56 -4 92 -42t36 -95q0 -69 -51 -111t-127 -42q-79 0 -128 34t-64 94l14 8q12 -57 57.5 -90t120.5 -33q70 0 116 38.5t46 101.5q0 58 -38.5 94.5t-109.5 36.5h-44v13h44q63 0 98 38t35 95q0 62 -40 97
t-111 35q-57 0 -98 -28.5t-57 -79.5l-15 7q19 54 64.5 84.5t105.5 30.5q78 0 122.5 -38.5z" />
    <glyph glyph-name="four.sc" horiz-adv-x="491" 
d="M330 173h-294v13l288 374h22v-374h121v-13h-121v-173h-16v173zM330 186v357h-1l-22 -30l-253 -327h276z" />
    <glyph glyph-name="five.sc" horiz-adv-x="477" 
d="M344 318q41 -22 64 -61.5t23 -89.5q0 -78 -51.5 -126.5t-134.5 -48.5q-170 0 -198 134l14 6q11 -64 58.5 -95t125.5 -31q76 0 123 45t47 116q0 70 -46 114.5t-119 44.5q-114 0 -170 -71h-14l27 305h316v-14h-303l-23 -259l-2 -16h1q52 69 168 69q53 0 94 -22z" />
    <glyph glyph-name="six.sc" horiz-adv-x="483" 
d="M103 64q-51 72 -51 211q0 143 60 218t159 75q60 0 98 -27.5t55 -74.5l-15 -7q-14 43 -48.5 69t-89.5 26q-105 0 -154.5 -81.5t-49.5 -197.5q0 -54 8 -104h1q1 49 26.5 86.5t66.5 57.5t88 20q84 0 132 -47t48 -125t-50 -124.5t-134 -46.5q-99 0 -150 72zM375.5 49.5
q45.5 43.5 45.5 115.5q0 69 -45 112.5t-119 43.5q-49 0 -87.5 -22.5t-59.5 -58.5t-21 -75q0 -45 20.5 -81.5t57.5 -57t85 -20.5q78 0 123.5 43.5z" />
    <glyph glyph-name="seven.sc" horiz-adv-x="442" 
d="M431 560v-14q-106 -110 -163.5 -244t-71.5 -302h-17q14 164 70.5 299.5t164.5 246.5h-391v14h408z" />
    <glyph glyph-name="eight.sc" horiz-adv-x="503" 
d="M148 11q-45 19 -70.5 54t-25.5 79q0 58 41 98.5t109 51.5v1q-59 12 -92 47.5t-33 87.5q0 63 47.5 100.5t126.5 37.5q80 0 127.5 -37.5t47.5 -100.5q0 -52 -33 -87.5t-92 -47.5v-1q68 -11 109 -52t41 -98q0 -44 -25.5 -79t-71 -54t-103.5 -19t-103 19zM366.5 337.5
q43.5 35.5 43.5 92.5t-43.5 90.5t-115.5 33.5t-115.5 -33.5t-43.5 -90.5t43.5 -92.5t115.5 -35.5t115.5 35.5zM384 44.5q51 38.5 51 99.5q0 41 -23.5 73.5t-65 50.5t-95.5 18q-53 0 -95 -18t-65 -50.5t-23 -73.5q0 -61 51 -99.5t132 -38.5q82 0 133 38.5z" />
    <glyph glyph-name="nine.sc" horiz-adv-x="505" 
d="M120.5 24.5q-50.5 32.5 -62.5 85.5l15 9q12 -53 55 -83t115 -30q100 0 145.5 80t45.5 196q0 54 -10 114h-1q1 -54 -25.5 -93t-69 -59t-89.5 -20q-85 0 -135.5 47.5t-50.5 124.5t51.5 124.5t137.5 47.5q100 0 153.5 -74.5t53.5 -211.5q0 -141 -56.5 -215.5t-149.5 -74.5
q-72 0 -122.5 32.5zM330.5 261q39.5 23 60.5 59t21 75q0 44 -22 80t-60.5 57.5t-86.5 21.5q-80 0 -127 -43.5t-47 -115.5q0 -71 46.5 -114t123.5 -43q52 0 91.5 23z" />
    <glyph glyph-name="asterisk" unicode="*" horiz-adv-x="510" 
d="M310 451l79 -109l-13 -9l-79 108l-42 62l-42 -62l-79 -108l-13 9l79 109l45 59l-72 21l-127 42l5 15l127 -41l71 -25l-2 74v134h16v-134l-2 -74l70 25l128 41l5 -15l-128 -42l-71 -21z" />
    <glyph glyph-name="backslash" unicode="\" horiz-adv-x="349" 
d="M53 730l261 -800h-17l-261 800h17z" />
    <glyph glyph-name="periodcentered" unicode="&#xb7;" horiz-adv-x="192" 
d="M112 376q6 -6 6 -16t-6 -16t-16 -6t-16 6t-6 16t6 16t16 6t16 -6z" />
    <glyph glyph-name="bullet" unicode="&#x2022;" horiz-adv-x="430" 
d="M258 382q17 -17 17 -43t-17 -43t-43 -17t-43 17t-17 43t17 43t43 17t43 -17z" />
    <glyph glyph-name="colon" unicode=":" horiz-adv-x="192" 
d="M112 494q6 -6 6 -16t-6 -16t-16 -6t-16 6t-6 16t6 16t16 6t16 -6zM112 33q6 -6 6 -16t-6 -16t-16 -6t-16 6t-6 16t6 16t16 6t16 -6z" />
    <glyph glyph-name="comma" unicode="," horiz-adv-x="168" 
d="M109.5 26.5q8.5 -12.5 8.5 -32.5q0 -30 -15.5 -58t-43.5 -43l-12 9q25 10 42 35.5t17 50.5q0 7 -4 19h-2q-5 -12 -17 -12q-9 0 -15 6.5t-6 15.5t6.5 15.5t16.5 6.5q16 0 24.5 -12.5z" />
    <glyph glyph-name="ellipsis" unicode="&#x2026;" horiz-adv-x="532" 
d="M458 33q6 -6 6 -16t-6 -16t-16 -6t-16 6t-6 16t6 16t16 6t16 -6zM282 33q6 -6 6 -16t-6 -16t-16 -6t-16 6t-6 16t6 16t16 6t16 -6zM106 33q6 -6 6 -16t-6 -16t-16 -6t-16 6t-6 16t6 16t16 6t16 -6z" />
    <glyph glyph-name="exclam" unicode="!" horiz-adv-x="182" 
d="M99 170h-16v490h16v-490zM107 33q6 -6 6 -16t-6 -16t-16 -6t-16 6t-6 16t6 16t16 6t16 -6z" />
    <glyph glyph-name="exclamdown" unicode="&#xa1;" horiz-adv-x="174" 
d="M71 467q-6 6 -6 16t6 16t16 6t16 -6t6 -16t-6 -16t-16 -6t-16 6zM79 330h16v-490h-16v490z" />
    <glyph glyph-name="numbersign" unicode="#" horiz-adv-x="632" 
d="M445 443l-33 -216h147v-14h-149l-32 -213h-16l32 213h-197l-32 -213h-16l32 213h-138v14h140l33 216h-143v14h145l31 203h16l-31 -203h197l31 203h16l-31 -203h142v-14h-144zM429 443h-197l-33 -216h197z" />
    <glyph glyph-name="period" unicode="." horiz-adv-x="168" 
d="M100 33q6 -6 6 -16t-6 -16t-16 -6t-16 6t-6 16t6 16t16 6t16 -6z" />
    <glyph glyph-name="question" unicode="?" horiz-adv-x="473" 
d="M379.5 624.5q52.5 -45.5 52.5 -123.5q0 -85 -47 -137.5t-151 -82.5v-131h-16v140q75 23 118 51t61.5 66.5t18.5 93.5q0 72 -48.5 113.5t-125.5 41.5q-92 0 -139.5 -41t-58.5 -120l-14 6q13 83 64 126t148 43q85 0 137.5 -45.5zM242 33q6 -6 6 -16t-6 -16t-16 -6t-16 6
t-6 16t6 16t16 6t16 -6z" />
    <glyph glyph-name="questiondown" unicode="&#xbf;" horiz-adv-x="469" 
d="M229 462q-6 6 -6 16t6 16t16 6t16 -6t6 -16t-6 -16t-16 -6t-16 6zM91.5 -129.5q-52.5 45.5 -52.5 123.5q0 85 47 137.5t151 82.5v131h16v-140q-75 -23 -118 -51t-61.5 -66.5t-18.5 -93.5q0 -72 48.5 -113.5t125.5 -41.5q92 0 139.5 41t58.5 120l14 -6q-13 -83 -64 -126
t-148 -43q-85 0 -137.5 45.5z" />
    <glyph glyph-name="quotedbl" unicode="&#x22;" horiz-adv-x="241" 
d="M175 521h-17v159h17v-159zM83 521h-17v159h17v-159z" />
    <glyph glyph-name="quotesingle" unicode="'" horiz-adv-x="149" 
d="M83 521h-17v159h17v-159z" />
    <glyph glyph-name="semicolon" unicode=";" horiz-adv-x="192" 
d="M83 462q-6 6 -6 16t6 16t16 6t16 -6t6 -16t-6 -16t-16 -6t-16 6zM120.5 26.5q8.5 -12.5 8.5 -32.5q0 -30 -15.5 -58t-43.5 -43l-12 9q25 10 42 35.5t17 50.5q0 7 -4 19h-2q-4 -12 -17 -12q-9 0 -15 6.5t-6 15.5t6.5 15.5t16.5 6.5q16 0 24.5 -12.5z" />
    <glyph glyph-name="slash" unicode="/" horiz-adv-x="349" 
d="M52 -70h-17l261 800h17z" />
    <glyph glyph-name="underscore" unicode="_" horiz-adv-x="499" 
d="M499 -111h-499v14h499v-14z" />
    <glyph glyph-name="periodcentered.case" horiz-adv-x="192" 
d="M112 351q6 -6 6 -16t-6 -16t-16 -6t-16 6t-6 16t6 16t16 6t16 -6z" />
    <glyph glyph-name="exclamdown.case" horiz-adv-x="174" 
d="M71 627q-6 6 -6 16t6 16t16 6t16 -6t6 -16t-6 -16t-16 -6t-16 6zM79 490h16v-490h-16v490z" />
    <glyph glyph-name="periodcentered.loclCAT.case" horiz-adv-x="20" 
d="M-40 351q6 -6 6 -16t-6 -16t-16 -6t-16 6t-6 16t6 16t16 6t16 -6z" />
    <glyph glyph-name="questiondown.case" horiz-adv-x="469" 
d="M229 632q-6 6 -6 16t6 16t16 6t16 -6t6 -16t-6 -16t-16 -6t-16 6zM91.5 40.5q-52.5 45.5 -52.5 123.5q0 85 47 137.5t151 82.5v131h16v-140q-75 -23 -118 -51t-61.5 -66.5t-18.5 -93.5q0 -72 48.5 -113.5t125.5 -41.5q92 0 139.5 41t58.5 120l14 -6q-13 -83 -64 -126
t-148 -43q-85 0 -137.5 45.5z" />
    <glyph glyph-name="periodcentered.loclCAT" horiz-adv-x="57" 
d="M17 376q6 -6 6 -16t-6 -16t-16 -6t-16 6t-6 16t6 16t16 6t16 -6z" />
    <glyph glyph-name="periodcentered.loclCAT.ss02" horiz-adv-x="192" 
d="M112 376q6 -6 6 -16t-6 -16t-16 -6t-16 6t-6 16t6 16t16 6t16 -6z" />
    <glyph glyph-name="colon.tf" horiz-adv-x="302" 
d="M167 494q6 -6 6 -16t-6 -16t-16 -6t-16 6t-6 16t6 16t16 6t16 -6zM167 33q6 -6 6 -16t-6 -16t-16 -6t-16 6t-6 16t6 16t16 6t16 -6z" />
    <glyph glyph-name="comma.tf" horiz-adv-x="302" 
d="M178.5 26.5q8.5 -12.5 8.5 -32.5q0 -30 -15.5 -58t-43.5 -43l-12 9q25 10 42 35.5t17 50.5q0 7 -4 19h-2q-5 -12 -17 -12q-9 0 -15 6.5t-6 15.5t6.5 15.5t16.5 6.5q16 0 24.5 -12.5z" />
    <glyph glyph-name="numbersign.tf" 
d="M426 443l-33 -216h142v-14h-144l-32 -213h-16l32 213h-187l-32 -213h-16l32 213h-133v14h135l33 216h-138v14h140l31 203h16l-31 -203h187l31 203h16l-31 -203h137v-14h-139zM410 443h-187l-33 -216h187z" />
    <glyph glyph-name="period.tf" horiz-adv-x="302" 
d="M167 33q6 -6 6 -16t-6 -16t-16 -6t-16 6t-6 16t6 16t16 6t16 -6z" />
    <glyph glyph-name="semicolon.tf" horiz-adv-x="302" 
d="M141 462q-6 6 -6 16t6 16t16 6t16 -6t6 -16t-6 -16t-16 -6t-16 6zM178.5 26.5q8.5 -12.5 8.5 -32.5q0 -30 -15.5 -58t-43.5 -43l-12 9q25 10 42 35.5t17 50.5q0 7 -4 19h-2q-4 -12 -17 -12q-9 0 -15 6.5t-6 15.5t6.5 15.5t16.5 6.5q16 0 24.5 -12.5z" />
    <glyph glyph-name="uni208D" unicode="&#x208d;" horiz-adv-x="190" 
d="M198 280q-53 -57 -80.5 -122.5t-27.5 -148.5t27.5 -148.5t80.5 -122.5l-8 -9q-55 54 -85.5 125t-30.5 155t30.5 155t85.5 125z" />
    <glyph glyph-name="uni208E" unicode="&#x208e;" horiz-adv-x="190" 
d="M85.5 164q30.5 -71 30.5 -155t-30.5 -155t-85.5 -125l-8 9q53 57 80.5 122.5t27.5 148.5t-27.5 148.5t-80.5 122.5l8 9q55 -54 85.5 -125z" />
    <glyph glyph-name="braceleft" unicode="{" horiz-adv-x="259" 
d="M117.5 322q-20.5 -26 -57.5 -36q37 -11 57.5 -37t20.5 -64v-243q0 -46 27 -72t74 -26v-14q-55 0 -86 30t-31 82v243q0 44 -30.5 69t-83.5 25v13q53 0 83.5 25t30.5 69v242q0 52 31 82t86 30v-14q-47 0 -74 -26t-27 -72v-242q0 -38 -20.5 -64z" />
    <glyph glyph-name="braceright" unicode="}" horiz-adv-x="259" 
d="M167.5 317q30.5 -25 83.5 -25v-13q-53 0 -83.5 -25t-30.5 -69v-243q0 -52 -31 -82t-86 -30v14q47 0 74 26t27 72v243q0 38 20.5 64t57.5 37q-37 10 -57.5 36t-20.5 64v242q0 46 -27 72t-74 26v14q55 0 86 -30t31 -82v-242q0 -44 30.5 -69z" />
    <glyph glyph-name="bracketleft" unicode="[" horiz-adv-x="268" 
d="M91 716v-870h166v-14h-181v898h181v-14h-166z" />
    <glyph glyph-name="bracketright" unicode="]" horiz-adv-x="268" 
d="M192 -168h-181v14h166v870h-166v14h181v-898z" />
    <glyph glyph-name="parenleft" unicode="(" horiz-adv-x="253" 
d="M244 730q-90 -75 -133 -185t-43 -260t43 -260t133 -185l-8 -10q-94 80 -138.5 190.5t-44.5 264.5t44.5 264.5t138.5 190.5z" />
    <glyph glyph-name="parenright" unicode=")" horiz-adv-x="253" 
d="M155.5 549.5q44.5 -110.5 44.5 -264.5t-44.5 -264.5t-138.5 -190.5l-8 10q90 75 133 185t43 260t-43 260t-133 185l8 10q94 -80 138.5 -190.5z" />
    <glyph glyph-name="uni207D" unicode="&#x207d;" horiz-adv-x="190" 
d="M198 802q-53 -57 -80.5 -122.5t-27.5 -148.5t27.5 -148.5t80.5 -122.5l-8 -9q-55 54 -85.5 125t-30.5 155t30.5 155t85.5 125z" />
    <glyph glyph-name="uni207E" unicode="&#x207e;" horiz-adv-x="190" 
d="M85.5 686q30.5 -71 30.5 -155t-30.5 -155t-85.5 -125l-8 9q53 57 80.5 122.5t27.5 148.5t-27.5 148.5t-80.5 122.5l8 9q55 -54 85.5 -125z" />
    <glyph glyph-name="braceleft.case" horiz-adv-x="259" 
d="M117.5 364q-20.5 -26 -57.5 -36q37 -11 57.5 -37t20.5 -64v-214q0 -46 27 -72t74 -26v-14q-55 0 -86 30t-31 82v214q0 44 -30.5 69t-83.5 25v13q53 0 83.5 25t30.5 69v222q0 52 31 82t86 30v-14q-47 0 -74 -26t-27 -72v-222q0 -38 -20.5 -64z" />
    <glyph glyph-name="braceright.case" horiz-adv-x="259" 
d="M167.5 359q30.5 -25 83.5 -25v-13q-53 0 -83.5 -25t-30.5 -69v-214q0 -52 -31 -82t-86 -30v14q47 0 74 26t27 72v214q0 38 20.5 64t57.5 37q-37 10 -57.5 36t-20.5 64v222q0 46 -27 72t-74 26v14q55 0 86 -30t31 -82v-222q0 -44 30.5 -69z" />
    <glyph glyph-name="bracketleft.case" horiz-adv-x="268" 
d="M91 738v-821h166v-14h-181v849h181v-14h-166z" />
    <glyph glyph-name="bracketright.case" horiz-adv-x="268" 
d="M192 -97h-181v14h166v821h-166v14h181v-849z" />
    <glyph glyph-name="parenleft.case" horiz-adv-x="253" 
d="M244 772q-90 -75 -133 -185t-43 -260t43 -260t133 -185l-8 -10q-94 80 -138.5 190.5t-44.5 264.5t44.5 264.5t138.5 190.5z" />
    <glyph glyph-name="parenright.case" horiz-adv-x="253" 
d="M155.5 591.5q44.5 -110.5 44.5 -264.5t-44.5 -264.5t-138.5 -190.5l-8 10q90 75 133 185t43 260t-43 260t-133 185l8 10q94 -80 138.5 -190.5z" />
    <glyph glyph-name="emdash" unicode="&#x2014;" horiz-adv-x="939" 
d="M871 262h-803v16h803v-16z" />
    <glyph glyph-name="endash" unicode="&#x2013;" horiz-adv-x="609" 
d="M541 262h-473v16h473v-16z" />
    <glyph glyph-name="hyphen" unicode="-" horiz-adv-x="417" 
d="M349 262h-281v16h281v-16z" />
    <glyph glyph-name="uni00AD" unicode="&#xad;" horiz-adv-x="417" 
d="M349 262h-281v16h281v-16z" />
    <glyph glyph-name="emdash.case" horiz-adv-x="939" 
d="M871 329h-803v16h803v-16z" />
    <glyph glyph-name="endash.case" horiz-adv-x="609" 
d="M541 329h-473v16h473v-16z" />
    <glyph glyph-name="hyphen.case" horiz-adv-x="417" 
d="M349 329h-281v16h281v-16z" />
    <glyph glyph-name="guillemotleft" unicode="&#xab;" horiz-adv-x="379" 
d="M66 265l145 -196h-21l-144 196l144 196h21zM184 265l145 -196h-21l-144 196l144 196h21z" />
    <glyph glyph-name="guillemotright" unicode="&#xbb;" horiz-adv-x="375" 
d="M67 461l144 -196l-144 -196h-21l145 196l-145 196h21zM185 461l144 -196l-144 -196h-21l145 196l-145 196h21z" />
    <glyph glyph-name="guilsinglleft" unicode="&#x2039;" horiz-adv-x="261" 
d="M66 265l145 -196h-21l-144 196l144 196h21z" />
    <glyph glyph-name="guilsinglright" unicode="&#x203a;" horiz-adv-x="261" 
d="M71 461l144 -196l-144 -196h-21l145 196l-145 196h21z" />
    <glyph glyph-name="quotedblbase" unicode="&#x201e;" horiz-adv-x="273" 
d="M109.5 26.5q8.5 -12.5 8.5 -32.5q0 -30 -15.5 -58t-43.5 -43l-12 9q25 10 42 35.5t17 50.5q0 7 -4 19h-2q-5 -12 -17 -12q-9 0 -15 6.5t-6 15.5t6.5 15.5t16.5 6.5q16 0 24.5 -12.5zM207.5 26.5q8.5 -12.5 8.5 -32.5q0 -30 -15.5 -58t-43.5 -43l-12 9q25 10 42 35.5
t17 50.5q0 7 -4 19h-2q-5 -12 -17 -12q-9 0 -15 6.5t-6 15.5t6.5 15.5t16.5 6.5q16 0 24.5 -12.5z" />
    <glyph glyph-name="quotedblleft" unicode="&#x201c;" horiz-adv-x="271" 
d="M62.5 556.5q-8.5 12.5 -8.5 32.5q0 30 15.5 58t43.5 43l12 -9q-25 -10 -42 -35.5t-17 -50.5q0 -7 4 -19h2q5 12 17 12q9 0 15 -6.5t6 -15.5t-6.5 -15.5t-16.5 -6.5q-16 0 -24.5 12.5zM160.5 556.5q-8.5 12.5 -8.5 32.5q0 30 15.5 58t43.5 43l12 -9q-25 -10 -42 -35.5
t-17 -50.5q0 -7 4 -19h2q5 12 17 12q9 0 15 -6.5t6 -15.5t-6.5 -15.5t-16.5 -6.5q-16 0 -24.5 12.5z" />
    <glyph glyph-name="quotedblright" unicode="&#x201d;" horiz-adv-x="270" 
d="M115.5 675.5q8.5 -12.5 8.5 -32.5q0 -30 -15.5 -58t-43.5 -43l-12 9q25 10 42 35.5t17 50.5q0 7 -4 19h-2q-5 -12 -17 -12q-9 0 -15 6.5t-6 15.5t6.5 15.5t16.5 6.5q16 0 24.5 -12.5zM213.5 675.5q8.5 -12.5 8.5 -32.5q0 -30 -15.5 -58t-43.5 -43l-12 9q25 10 42 35.5
t17 50.5q0 7 -4 19h-2q-5 -12 -17 -12q-9 0 -15 6.5t-6 15.5t6.5 15.5t16.5 6.5q16 0 24.5 -12.5z" />
    <glyph glyph-name="quoteleft" unicode="&#x2018;" horiz-adv-x="173" 
d="M62.5 556.5q-8.5 12.5 -8.5 32.5q0 30 15.5 58t43.5 43l12 -9q-25 -10 -42 -35.5t-17 -50.5q0 -7 4 -19h2q5 12 17 12q9 0 15 -6.5t6 -15.5t-6.5 -15.5t-16.5 -6.5q-16 0 -24.5 12.5z" />
    <glyph glyph-name="quoteright" unicode="&#x2019;" horiz-adv-x="172" 
d="M115.5 675.5q8.5 -12.5 8.5 -32.5q0 -30 -15.5 -58t-43.5 -43l-12 9q25 10 42 35.5t17 50.5q0 7 -4 19h-2q-5 -12 -17 -12q-9 0 -15 6.5t-6 15.5t6.5 15.5t16.5 6.5q16 0 24.5 -12.5z" />
    <glyph glyph-name="quotesinglbase" unicode="&#x201a;" horiz-adv-x="175" 
d="M109.5 26.5q8.5 -12.5 8.5 -32.5q0 -30 -15.5 -58t-43.5 -43l-12 9q25 10 42 35.5t17 50.5q0 7 -4 19h-2q-5 -12 -17 -12q-9 0 -15 6.5t-6 15.5t6.5 15.5t16.5 6.5q16 0 24.5 -12.5z" />
    <glyph glyph-name="guillemotleft.case" horiz-adv-x="379" 
d="M66 326l145 -196h-21l-144 196l144 196h21zM184 326l145 -196h-21l-144 196l144 196h21z" />
    <glyph glyph-name="guillemotright.case" horiz-adv-x="379" 
d="M67 522l144 -196l-144 -196h-21l145 196l-145 196h21zM185 522l144 -196l-144 -196h-21l145 196l-145 196h21z" />
    <glyph glyph-name="guilsinglleft.case" horiz-adv-x="261" 
d="M66 326l145 -196h-21l-144 196l144 196h21z" />
    <glyph glyph-name="guilsinglright.case" horiz-adv-x="261" 
d="M71 522l144 -196l-144 -196h-21l145 196l-145 196h21z" />
    <glyph glyph-name="periodcentered.sc" horiz-adv-x="192" 
d="M112 312q6 -6 6 -16t-6 -16t-16 -6t-16 6t-6 16t6 16t16 6t16 -6z" />
    <glyph glyph-name="exclam.sc" horiz-adv-x="168" 
d="M92 145h-16v415h16v-415zM100 33q6 -6 6 -16t-6 -16t-16 -6t-16 6t-6 16t6 16t16 6t16 -6z" />
    <glyph glyph-name="exclamdown.sc" horiz-adv-x="168" 
d="M68 527q-6 6 -6 16t6 16t16 6t16 -6t6 -16t-6 -16t-16 -6t-16 6zM76 415h16v-415h-16v415z" />
    <glyph glyph-name="periodcentered.loclCAT.sc" horiz-adv-x="0" 
d="M-55 312q6 -6 6 -16t-6 -16t-16 -6t-16 6t-6 16t6 16t16 6t16 -6z" />
    <glyph glyph-name="question.sc" horiz-adv-x="409" 
d="M333.5 529.5q46.5 -38.5 46.5 -104.5q0 -72 -41.5 -116.5t-132.5 -69.5v-110h-16v119q66 19 104 42.5t54 55.5t16 78q0 60 -42 95t-110 35q-80 0 -120 -34.5t-51 -100.5l-16 6q12 70 57 106.5t130 36.5q75 0 121.5 -38.5zM212 33q6 -6 6 -16t-6 -16t-16 -6t-16 6t-6 16
t6 16t16 6t16 -6z" />
    <glyph glyph-name="questiondown.sc" horiz-adv-x="408" 
d="M213 532q-6 6 -6 16t6 16t16 6t16 -6t6 -16t-6 -16t-16 -6t-16 6zM91.5 35.5q-46.5 38.5 -46.5 104.5q0 72 41.5 116.5t132.5 69.5v110h16v-119q-66 -19 -104 -42.5t-54 -55.5t-16 -78q0 -60 42 -95t110 -35q80 0 120 34.5t51 100.5l16 -6q-12 -70 -57 -106.5t-130 -36.5
q-75 0 -121.5 38.5z" />
    <glyph glyph-name="quotedbl.sc" horiz-adv-x="241" 
d="M175 411h-17v159h17v-159zM83 411h-17v159h17v-159z" />
    <glyph glyph-name="quotedblleft.sc" horiz-adv-x="268" 
d="M62.5 444.5q-8.5 12.5 -8.5 32.5q0 30 15.5 58t43.5 43l12 -9q-25 -10 -42 -35.5t-17 -50.5q0 -7 4 -19h2q5 12 17 12q9 0 15 -6.5t6 -15.5t-6.5 -15.5t-16.5 -6.5q-16 0 -24.5 12.5zM157.5 444.5q-8.5 12.5 -8.5 32.5q0 30 15.5 58t43.5 43l12 -9q-25 -10 -42 -35.5
t-17 -50.5q0 -7 4 -19h2q5 12 17 12q9 0 15 -6.5t6 -15.5t-6.5 -15.5t-16.5 -6.5q-16 0 -24.5 12.5z" />
    <glyph glyph-name="quotedblright.sc" horiz-adv-x="267" 
d="M115.5 562.5q8.5 -12.5 8.5 -32.5q0 -30 -15.5 -58t-43.5 -43l-12 9q25 10 42 35.5t17 50.5q0 7 -4 19h-2q-5 -12 -17 -12q-9 0 -15 6.5t-6 15.5t6.5 15.5t16.5 6.5q16 0 24.5 -12.5zM210.5 562.5q8.5 -12.5 8.5 -32.5q0 -30 -15.5 -58t-43.5 -43l-12 9q25 10 42 35.5
t17 50.5q0 7 -4 19h-2q-5 -12 -17 -12q-9 0 -15 6.5t-6 15.5t6.5 15.5t16.5 6.5q16 0 24.5 -12.5z" />
    <glyph glyph-name="quoteleft.sc" horiz-adv-x="173" 
d="M62.5 444.5q-8.5 12.5 -8.5 32.5q0 30 15.5 58t43.5 43l12 -9q-25 -10 -42 -35.5t-17 -50.5q0 -7 4 -19h2q5 12 17 12q9 0 15 -6.5t6 -15.5t-6.5 -15.5t-16.5 -6.5q-16 0 -24.5 12.5z" />
    <glyph glyph-name="quoteright.sc" horiz-adv-x="172" 
d="M115.5 562.5q8.5 -12.5 8.5 -32.5q0 -30 -15.5 -58t-43.5 -43l-12 9q25 10 42 35.5t17 50.5q0 7 -4 19h-2q-5 -12 -17 -12q-9 0 -15 6.5t-6 15.5t6.5 15.5t16.5 6.5q16 0 24.5 -12.5z" />
    <glyph glyph-name="quotesingle.sc" horiz-adv-x="149" 
d="M83 411h-17v159h17v-159z" />
    <glyph glyph-name="uni00A0" unicode="&#xa0;" horiz-adv-x="281" 
 />
    <glyph glyph-name="space.tf" horiz-adv-x="302" 
 />
    <glyph glyph-name="Euro" unicode="&#x20ac;" horiz-adv-x="648" 
d="M597 169q-22 -86 -81.5 -132.5t-133.5 -46.5q-105 0 -172 67.5t-84 190.5h-91v15h90q-4 28 -4 67t4 68h-90v15h91q17 123 83.5 190t171.5 67q78 0 131.5 -36t76.5 -106l-12 -10q-47 138 -196 138q-98 0 -159.5 -63.5t-78.5 -179.5h292l-10 -15h-284q-4 -29 -4 -68t4 -67
h254l-10 -15h-242q16 -116 78.5 -180t160.5 -64q71 0 126 44.5t75 127.5z" />
    <glyph glyph-name="cent" unicode="&#xa2;" horiz-adv-x="537" 
d="M417.5 30q-56.5 -40 -133.5 -40v-90h-14v90q-102 4 -158 73t-56 187q0 117 56.5 186t157.5 74v90h14v-90h2q75 0 127 -36t70 -101l-14 -7q-16 62 -64 96t-119 34h-2v-492q71 0 125 38t64 100l14 -5q-13 -67 -69.5 -107zM123.5 73q51.5 -65 146.5 -69v492q-94 -6 -146 -71
t-52 -175q0 -112 51.5 -177z" />
    <glyph glyph-name="currency" unicode="&#xa4;" horiz-adv-x="602" 
d="M436 206l104 -104l-11 -11l-104 104q-47 -47 -124 -47q-75 0 -124 46l-103 -103l-12 12l103 103q-41 50 -41 127q0 75 39 123l-101 101l12 12l100 -101q48 48 127 48q78 0 126 -48l102 101l11 -11l-102 -103q39 -48 39 -122q0 -77 -41 -127zM418 208q43 46 43 125
q0 77 -43.5 123t-116.5 46q-74 0 -117.5 -46t-43.5 -123q0 -79 43.5 -125t117.5 -46t117 46z" />
    <glyph glyph-name="dollar" unicode="$" horiz-adv-x="580" 
d="M291 0q-91 3 -153 47.5t-81 123.5l15 8q15 -76 74 -119t145 -46v304q-73 15 -116.5 30.5t-73.5 48.5t-30 90q0 46 26.5 85.5t76.5 63.5t117 24v100h14v-100q168 -6 209 -148l-13 -10q-36 138 -196 144v-314q72 -15 115.5 -30t73 -47.5t29.5 -89.5q0 -48 -27 -85.5
t-76 -58.5t-115 -21v-100h-14v100zM291 646q-61 0 -107.5 -21t-71.5 -57t-25 -81q0 -51 27.5 -80.5t68.5 -43.5t108 -28v311zM449.5 55q57.5 40 57.5 110q0 50 -27 79t-67.5 43.5t-107.5 28.5v-302q87 1 144.5 41z" />
    <glyph glyph-name="florin" unicode="&#x192;" horiz-adv-x="399" 
d="M273.5 689.5q-29.5 -31.5 -39.5 -95.5l-30 -194h169v-14h-171l-58 -372q-23 -142 -133 -142q-20 0 -33.5 3.5t-29.5 13.5l6 11q21 -14 57 -14q96 0 116 128l58 372h-158v14h160l30 193q11 73 42.5 107.5t86.5 34.5q20 0 33.5 -3t28.5 -10l-2 -14q-25 13 -52 13
q-51 0 -80.5 -31.5z" />
    <glyph glyph-name="sterling" unicode="&#xa3;" horiz-adv-x="573" 
d="M537 115q0 -63 -34.5 -94t-94.5 -31q-45 0 -74.5 15t-67.5 46q-24 -29 -61 -45t-79 -16q-43 0 -69 18t-26 48q0 31 27.5 50t74.5 19q41 0 70 -13.5t61 -39.5q25 36 25 82q0 39 -13.5 71.5t-48.5 77.5h-133v14h122q-41 53 -57 90t-16 81q0 82 53 132t139 50
q73 0 119.5 -39.5t53.5 -105.5l-15 -6q-6 62 -49.5 99.5t-108.5 37.5q-81 0 -128.5 -45.5t-47.5 -122.5q0 -40 16 -76t57 -90l4 -5h211v-14h-200q32 -44 45 -77t13 -70q0 -53 -30 -94q35 -29 63.5 -43.5t69.5 -14.5q56 0 85 28.5t30 82.5h14zM199.5 19q33.5 15 55.5 41
q-29 25 -56.5 38t-64.5 13q-40 0 -63.5 -15t-23.5 -40q0 -24 21.5 -38t57.5 -14q40 0 73.5 15z" />
    <glyph glyph-name="uni20BA" unicode="&#x20ba;" horiz-adv-x="573" 
d="M538 257q0 -121 -64 -189t-177 -68h-136v280l-117 -34v15l117 34v116l-117 -35v15l117 35v234h16v-229l227 67v-15l-227 -67v-116l227 67v-15l-227 -67v-271h111q110 0 172.5 64.5t62.5 178.5h15z" />
    <glyph glyph-name="uni20BD" unicode="&#x20bd;" horiz-adv-x="587" 
d="M145 291v-99h235v-14h-235v-178h-16v178h-102v14h102v99h-102v14h102v355h204q106 0 165.5 -49t59.5 -136t-59.5 -135.5t-165.5 -48.5h-188zM145 305h188q98 0 153.5 45t55.5 125t-55.5 125.5t-153.5 45.5h-188v-341z" />
    <glyph glyph-name="yen" unicode="&#xa5;" horiz-adv-x="568" 
d="M499 270v-14h-207v-109h207v-14h-207v-133h-16v133h-206v14h206v109h-206v14h200l-226 390h19l206 -363l14 -24h2l14 24l206 363h19l-226 -390h201z" />
    <glyph glyph-name="cent.tf" 
d="M454.5 30q-56.5 -40 -133.5 -40v-90h-14v90q-102 4 -158 73t-56 187q0 117 56.5 186t157.5 74v90h14v-90h2q75 0 127 -36t70 -101l-14 -7q-16 62 -64 96t-119 34h-2v-492q71 0 125 38t64 100l14 -5q-13 -67 -69.5 -107zM160.5 73q51.5 -65 146.5 -69v492q-94 -6 -146 -71
t-52 -175q0 -112 51.5 -177z" />
    <glyph glyph-name="currency.tf" 
d="M437 206l104 -104l-11 -11l-104 104q-47 -47 -124 -47q-75 0 -124 46l-103 -103l-12 12l103 103q-41 50 -41 127q0 75 39 123l-101 101l12 12l100 -101q48 48 127 48q78 0 126 -48l102 101l11 -11l-102 -103q39 -48 39 -122q0 -77 -41 -127zM419 208q43 46 43 125
q0 77 -43.5 123t-116.5 46q-74 0 -117.5 -46t-43.5 -123q0 -79 43.5 -125t117.5 -46t117 46z" />
    <glyph glyph-name="dollar.tf" 
d="M433 303.5q42 -14.5 71 -47.5t29 -91q0 -48 -26 -85.5t-73 -58.5t-110 -21h-4v-100h-14v100q-84 5 -140.5 49t-74.5 122l15 8q15 -75 68.5 -117.5t131.5 -46.5v305q-65 14 -106 30t-68.5 48.5t-27.5 88.5q0 46 24.5 85t70.5 63t107 25v100h14v-100q165 -5 204 -148
l-13 -10q-33 139 -191 144v-313q71 -15 113 -29.5zM145 407.5q25 -29.5 63 -44t98 -27.5v310q-56 -1 -98 -22t-65 -57t-23 -80q0 -50 25 -79.5zM462 54.5q55 40.5 55 110.5q0 50 -26.5 79.5t-65.5 44t-105 28.5v-303h4q83 0 138 40.5z" />
    <glyph glyph-name="Euro.tf" 
d="M563 169q-20 -86 -75.5 -132.5t-124.5 -46.5q-98 0 -160 67.5t-78 190.5h-85v15h83q-3 32 -3 67t3 68h-83v15h85q16 123 77.5 190t159.5 67q73 0 122.5 -36t71.5 -106l-12 -10q-44 138 -182 138q-91 0 -148.5 -63.5t-72.5 -179.5h271l-9 -15h-264q-3 -33 -3 -68t3 -67
h236l-9 -15h-225q15 -116 73 -180t149 -64q65 0 116 44.5t70 127.5z" />
    <glyph glyph-name="florin.tf" 
d="M397 689.5q-35 -31.5 -47 -95.5l-35 -194h208v-14h-211l-67 -372q-26 -142 -154 -142q-22 0 -37.5 3.5t-34.5 13.5l6 11q22 -14 67 -14q56 0 90.5 32.5t45.5 95.5l67 372h-174v14h177l35 193q13 72 49.5 107t99.5 35q23 0 38.5 -3t33.5 -10l-2 -14q-29 13 -61 13
q-59 0 -94 -31.5z" />
    <glyph glyph-name="uni20BA.tf" 
d="M549 257q0 -121 -64 -189t-177 -68h-136v280l-117 -34v15l117 34v116l-117 -35v15l117 35v234h16v-229l227 67v-15l-227 -67v-116l227 67v-15l-227 -67v-271h111q110 0 172.5 64.5t62.5 178.5h15z" />
    <glyph glyph-name="uni20BD.tf" 
d="M169 291v-99h206v-14h-206v-178h-16v178h-102v14h102v99h-102v14h102v355h172q101 0 158 -49t57 -136t-57 -135.5t-158 -48.5h-156zM169 305h156q94 0 146.5 45t52.5 125t-52.5 125.5t-146.5 45.5h-156v-341z" />
    <glyph glyph-name="sterling.tf" 
d="M551 115q0 -63 -32.5 -94t-88.5 -31q-32 0 -56.5 10t-40 21.5t-46.5 38.5q-20 -33 -50.5 -51.5t-66.5 -18.5q-40 0 -62.5 18t-22.5 48q0 32 24.5 50.5t67.5 18.5q32 0 57 -11t48 -31q15 32 15 71q0 40 -11 73t-38 76h-122v14h113q-33 50 -46 88t-13 83q0 82 50 132
t131 50q69 0 112.5 -39.5t50.5 -105.5l-15 -6q-6 62 -46.5 99.5t-101.5 37.5q-76 0 -120.5 -45.5t-44.5 -122.5q0 -42 13 -78t46 -88l3 -5h221v-14h-212q25 -43 35.5 -76t10.5 -71q0 -44 -19 -84q4 -4 27.5 -25t50.5 -32t57 -11q53 0 80 28.5t28 82.5h14zM231.5 22
q27.5 18 44.5 48q-23 20 -46 30.5t-52 10.5q-37 0 -57 -15t-20 -40q0 -24 18.5 -38t51.5 -14t60.5 18z" />
    <glyph glyph-name="yen.tf" 
d="M517 270v-14h-207v-109h207v-14h-207v-133h-16v133h-206v14h206v109h-206v14h200l-226 390h19l206 -363l14 -24h2l14 24l206 363h19l-226 -390h201z" />
    <glyph glyph-name="approxequal" unicode="&#x2248;" 
d="M243.5 437.5q22.5 -7.5 61.5 -25.5q33 -16 57.5 -24.5t48.5 -8.5q52 0 103 54v-19q-50 -49 -104 -49q-23 0 -46.5 8.5t-57.5 24.5q-36 17 -60.5 25.5t-49.5 8.5q-31 0 -55 -13t-51 -42v19q28 27 52 38t54 11q25 0 47.5 -7.5zM244.5 250.5q23.5 -8.5 60.5 -25.5t59.5 -25
t46.5 -8q51 0 103 55v-19q-50 -49 -104 -49q-23 0 -45.5 8t-58.5 24q-36 17 -60.5 25.5t-49.5 8.5q-31 0 -55 -13t-51 -41v19q28 27 52 38t54 11q25 0 48.5 -8.5z" />
    <glyph glyph-name="asciitilde" unicode="~" horiz-adv-x="479" 
d="M341 301q-31 0 -54 9.5t-53 28.5q-30 18 -50 27t-46 9q-35 0 -53.5 -19.5t-25.5 -60.5h-16q13 94 95 94q31 0 54 -9.5t53 -28.5q30 -18 50 -27t46 -9q35 0 53.5 19.5t25.5 60.5h16q-13 -94 -95 -94z" />
    <glyph glyph-name="divide" unicode="&#xf7;" 
d="M318 518q6 -6 6 -16t-6 -16t-16 -6t-16 6t-6 16t6 16t16 6t16 -6zM527 309h-450v14h450v-14zM318 148q6 -6 6 -16t-6 -16t-16 -6t-16 6t-6 16t6 16t16 6t16 -6z" />
    <glyph glyph-name="equal" unicode="=" 
d="M517 408h-430v14h430v-14zM517 204h-430v14h430v-14z" />
    <glyph glyph-name="uni208C" unicode="&#x208c;" horiz-adv-x="390" 
d="M63 73h264v-14h-264v14zM63 -37h264v-14h-264v14z" />
    <glyph glyph-name="uni207C" unicode="&#x207c;" horiz-adv-x="390" 
d="M63 595h264v-14h-264v14zM63 485h264v-14h-264v14z" />
    <glyph glyph-name="greater" unicode="&#x3e;" 
d="M513 309v-19l-442 -232v18l428 224l-428 223v18z" />
    <glyph glyph-name="greaterequal" unicode="&#x2265;" 
d="M525 381v-19l-446 -249v18l432 240l-432 231v18zM79 14h446v-14h-446v14z" />
    <glyph glyph-name="infinity" unicode="&#x221e;" horiz-adv-x="866" 
d="M734 472.5q33 -22.5 52.5 -66.5t19.5 -104t-19.5 -103.5t-52.5 -66t-73 -22.5q-43 0 -65.5 9t-53.5 42t-110 129q-77 -95 -107.5 -128t-53 -42.5t-65.5 -9.5q-40 0 -73.5 22.5t-53 66t-19.5 103.5t19.5 104t53 66.5t73.5 22.5q43 0 65 -9t53 -42t108 -127l1 -1
q74 91 106 124.5t56 44t66 10.5q40 0 73 -22.5zM263.5 132.5q19.5 8.5 51.5 43t107 126.5q-77 94 -108 127.5t-50.5 42.5t-54.5 9q-36 0 -66.5 -22.5t-48.5 -63t-18 -93.5q0 -52 18 -93t48.5 -63t66.5 -22q35 0 54.5 8.5zM725 146.5q30 22.5 47.5 63t17.5 92.5
q0 53 -18 93.5t-48.5 63t-65.5 22.5q-32 0 -55.5 -11.5t-58.5 -47.5t-101 -118q77 -95 108.5 -128.5t52 -42.5t56.5 -9q35 0 65 22.5z" />
    <glyph glyph-name="integral" unicode="&#x222b;" horiz-adv-x="387" 
d="M379 741l-5 -13q-21 16 -60 16q-53 0 -81.5 -29.5t-28.5 -87.5v-624q0 -131 -125 -131q-41 0 -70 20l6 12q29 -18 60 -18q56 0 84.5 28.5t28.5 88.5v624q0 65 33 98t93 33q40 0 65 -17z" />
    <glyph glyph-name="less" unicode="&#x3c;" 
d="M533 523l-428 -223l428 -224v-18l-442 232v19l442 232v-18z" />
    <glyph glyph-name="lessequal" unicode="&#x2264;" 
d="M525 602l-432 -231l432 -240v-18l-446 249v19l446 239v-18zM79 14h446v-14h-446v14z" />
    <glyph glyph-name="logicalnot" unicode="&#xac;" 
d="M527 323v-147h-16v133h-434v14h450z" />
    <glyph glyph-name="minus" unicode="&#x2212;" 
d="M527 309h-450v14h450v-14z" />
    <glyph glyph-name="uni208B" unicode="&#x208b;" horiz-adv-x="330" 
d="M40 18h250v-14h-250v14z" />
    <glyph glyph-name="uni207B" unicode="&#x207b;" horiz-adv-x="330" 
d="M40 540h250v-14h-250v14z" />
    <glyph glyph-name="multiply" unicode="&#xd7;" 
d="M315 312l165 -165l-13 -13l-165 165l-165 -165l-13 13l165 165l-165 165l13 13l165 -165l165 165l13 -13z" />
    <glyph glyph-name="notequal" unicode="&#x2260;" 
d="M358 408l-91 -190h250v-14h-256l-62 -130h-18l62 130h-156v14h163l91 190h-254v14h260l60 125h17l-59 -125h152v-14h-159z" />
    <glyph glyph-name="partialdiff" unicode="&#x2202;" horiz-adv-x="553" 
d="M429 587q60 -83 60 -257q0 -164 -61 -252t-174 -88q-62 0 -111 27t-76 76t-27 111t26.5 109.5t74 74t108.5 26.5q81 0 138.5 -35t83.5 -100q2 32 2 51q0 167 -56 246.5t-173 79.5q-96 0 -141 -67l-12 11q56 70 153 70q125 0 185 -83zM401 68q55 64 68 185
q-23 72 -81 109.5t-140 37.5q-56 0 -99.5 -25t-68 -69.5t-24.5 -100.5q0 -58 25 -104t70 -71.5t102 -25.5q93 0 148 64z" />
    <glyph glyph-name="percent" unicode="%" horiz-adv-x="755" 
d="M281.5 611q34.5 -49 34.5 -119t-34.5 -117.5t-103.5 -47.5t-104 47.5t-35 117.5t35 119t104 49t103.5 -49zM591 660h19l-447 -660h-19zM86 601.5q-31 -44.5 -31 -109.5t31 -108t92 -43t91.5 43t30.5 108t-31 109.5t-91 44.5q-61 0 -92 -44.5zM681.5 284.5
q34.5 -48.5 34.5 -118.5t-34.5 -118t-103.5 -48t-104.5 48t-35.5 118t35 118.5t105 48.5q69 0 103.5 -48.5zM485.5 275q-31.5 -44 -31.5 -109t31.5 -108.5t92.5 -43.5q60 0 91 43.5t31 108.5t-31 109t-91 44q-61 0 -92.5 -44z" />
    <glyph glyph-name="perthousand" unicode="&#x2030;" horiz-adv-x="1109" 
d="M281.5 611q34.5 -49 34.5 -119t-34.5 -117.5t-103.5 -47.5t-104 47.5t-35 117.5t35 119t104 49t103.5 -49zM591 660h19l-447 -660h-19zM86 601.5q-31 -44.5 -31 -109.5t31 -108t92 -43t91.5 43t30.5 108t-31 109.5t-91 44.5q-61 0 -92 -44.5zM681.5 284.5
q34.5 -48.5 34.5 -118.5t-34.5 -118t-103.5 -48t-104.5 48t-35.5 118t35 118.5t105 48.5q69 0 103.5 -48.5zM1035.5 284.5q34.5 -48.5 34.5 -118.5t-34.5 -118t-103.5 -48t-104.5 48t-35.5 118t35 118.5t105 48.5q69 0 103.5 -48.5zM485.5 275q-31.5 -44 -31.5 -109
t31.5 -108.5t92.5 -43.5q60 0 91 43.5t31 108.5t-31 109t-91 44q-61 0 -92.5 -44zM839.5 275q-31.5 -44 -31.5 -109t31.5 -108.5t92.5 -43.5q60 0 91 43.5t31 108.5t-31 109t-91 44q-61 0 -92.5 -44z" />
    <glyph glyph-name="plus" unicode="+" 
d="M534 309h-224v-230h-16v230h-224v14h224v222h16v-222h224v-14z" />
    <glyph glyph-name="uni208A" unicode="&#x208a;" horiz-adv-x="330" 
d="M295 4h-122v-123h-16v123h-122v14h122v123h16v-123h122v-14z" />
    <glyph glyph-name="plusminus" unicode="&#xb1;" 
d="M527 374v-14h-217v-254h-15v254h-218v14h218v248h15v-248h217zM77 14h450v-14h-450v14z" />
    <glyph glyph-name="uni207A" unicode="&#x207a;" horiz-adv-x="330" 
d="M295 526h-122v-123h-16v123h-122v14h122v123h16v-123h122v-14z" />
    <glyph glyph-name="product" unicode="&#x220f;" horiz-adv-x="624" 
d="M546 -128h-16v774h-436v-774h-16v788h468v-788z" />
    <glyph glyph-name="radical" unicode="&#x221a;" horiz-adv-x="597" 
d="M590 818l-317 -818h-18l-133 337h-103v14h115l118 -299l12 -37l12 35l297 768h17z" />
    <glyph glyph-name="summation" unicode="&#x2211;" horiz-adv-x="570" 
d="M527 646h-475l346 -369v-2l-348 -389h477v-14h-496v14l347 390l-347 370v14h496v-14z" />
    <glyph glyph-name="uni00B5" unicode="&#xb5;" horiz-adv-x="548" 
d="M474 500v-500h-16v133q-18 -63 -74.5 -103t-134.5 -40q-56 0 -98 27t-61 77v-304h-16v710h16v-331q0 -78 44.5 -121.5t117.5 -43.5q58 0 105 27t74 71.5t27 96.5v301h16z" />
    <glyph glyph-name="uni2126" unicode="&#x2126;" horiz-adv-x="725" 
d="M664 14v-14h-233v14q100 36 158 118.5t58 207.5q0 95 -35 166.5t-99.5 110.5t-149.5 39q-86 0 -150.5 -39t-99.5 -110.5t-35 -166.5q0 -125 58 -207.5t158 -118.5v-14h-233v14h200q-93 42 -146 124.5t-53 201.5q0 99 37 174t105 115.5t159 40.5q90 0 158 -40.5
t105 -115.5t37 -174q0 -119 -53 -201.5t-147 -124.5h201z" />
    <glyph glyph-name="uni2206" unicode="&#x2206;" horiz-adv-x="605" 
d="M577 14v-14h-549v14l264 646h23zM46 14h513l-256 634z" />
    <glyph glyph-name="uni2215" unicode="&#x2215;" horiz-adv-x="202" 
d="M324 660h19l-465 -660h-19z" />
    <glyph glyph-name="uni2219" unicode="&#x2219;" horiz-adv-x="192" 
d="M112 366q6 -6 6 -16t-6 -16t-16 -6t-16 6t-6 16t6 16t16 6t16 -6z" />
    <glyph glyph-name="arrowup" unicode="&#x2191;" horiz-adv-x="750" 
d="M519.5 493.5q71.5 -73.5 166.5 -142.5l-10 -16q-95 73 -172.5 152.5t-123.5 151.5l2 -104v-535h-16v535l2 104q-46 -72 -123.5 -151.5t-172.5 -152.5l-10 16q94 69 166 143t145 175h2q73 -102 144.5 -175.5z" />
    <glyph glyph-name="uni2197" unicode="&#x2197;" horiz-adv-x="750" 
d="M589 270q0 -78 6 -165l-19 -1q-4 69 -4 152q0 165 21 269l-61 -64l-33 -33l-336 -336l-12 12l336 336l96 94q-104 -21 -268 -21q-83 0 -152 4l1 19q87 -6 165 -6q135 0 278 21l3 -3q-21 -144 -21 -278z" />
    <glyph glyph-name="arrowright" unicode="&#x2192;" horiz-adv-x="750" 
d="M553 477q74 -72 175 -145v-2q-102 -73 -175.5 -144.5t-142.5 -166.5l-16 10q73 95 152.5 172.5t151.5 123.5l-104 -2h-535v16h535l104 -2q-72 46 -151.5 123.5t-152.5 172.5l16 10q69 -94 143 -166z" />
    <glyph glyph-name="uni2198" unicode="&#x2198;" horiz-adv-x="750" 
d="M573 390q0 -134 21 -278l-3 -3q-143 21 -278 21q-78 0 -165 -6l-1 19q69 4 152 4q164 0 268 -21l-96 94l-336 336l12 12l336 -336l33 -33l61 -64q-21 104 -21 269q0 83 4 152l19 -1q-6 -87 -6 -165z" />
    <glyph glyph-name="arrowdown" unicode="&#x2193;" horiz-adv-x="750" 
d="M688 309q-94 -69 -166 -143t-145 -175h-2q-73 102 -144.5 175.5t-166.5 142.5l10 16q95 -73 172.5 -152.5t123.5 -151.5l-2 104v535h16v-535l-2 -104q46 72 123.5 151.5t172.5 152.5z" />
    <glyph glyph-name="uni2199" unicode="&#x2199;" horiz-adv-x="750" 
d="M451 147q83 0 152 -4l-1 -19q-87 6 -165 6q-135 0 -278 -21l-3 3q21 144 21 278q0 78 -6 165l19 1q4 -69 4 -152q0 -165 -21 -269l61 64l33 33l336 336l12 -12l-336 -336l-96 -94q104 21 268 21z" />
    <glyph glyph-name="arrowleft" unicode="&#x2190;" horiz-adv-x="750" 
d="M156 323l-104 2q72 -46 151.5 -123.5t152.5 -172.5l-16 -10q-69 95 -142.5 166.5t-175.5 144.5v2q101 73 175 145t143 166l16 -10q-73 -95 -152.5 -172.5t-151.5 -123.5l104 2h535v-16h-535z" />
    <glyph glyph-name="uni2196" unicode="&#x2196;" horiz-adv-x="750" 
d="M599 104l-12 -12l-336 336l-33 33l-61 64q21 -104 21 -269q0 -83 -4 -152l-19 1q6 87 6 165q0 134 -21 278l3 3q143 -21 278 -21q78 0 165 6l1 -19q-69 -4 -152 -4q-164 0 -268 21l96 -94z" />
    <glyph glyph-name="arrowboth" unicode="&#x2194;" horiz-adv-x="940" 
d="M744 494.5q73 -71.5 174 -144.5v-2q-101 -73 -174 -145t-143 -166l-16 10q72 94 151 171t151 123h-102h-630h-102q72 -46 151 -123t151 -171l-16 -10q-70 94 -143 166t-174 145v2q101 73 174 144.5t143 166.5l16 -10q-72 -94 -151 -171t-151 -123h102h630h102
q-72 46 -151 123t-151 171l16 10q70 -95 143 -166.5z" />
    <glyph glyph-name="arrowupdn" unicode="&#x2195;" horiz-adv-x="750" 
d="M505 64q77 79 171 151l10 -16q-95 -70 -166.5 -143t-144.5 -174h-2q-73 101 -145 174t-166 143l10 16q94 -72 171 -151t123 -151v102v630v102q-46 -72 -123 -151t-171 -151l-10 16q94 70 166 143t145 174h2q73 -101 144.5 -174t166.5 -143l-10 -16q-94 72 -171 151
t-123 151v-102v-630v-102q46 72 123 151z" />
    <glyph glyph-name="uni25CF" unicode="&#x25cf;" horiz-adv-x="600" 
d="M190 63q-49 28 -77 77t-28 110t28 110t77 77t110 28t110 -28t77 -77t28 -110t-28 -110t-77 -77t-110 -28t-110 28z" />
    <glyph glyph-name="circle" unicode="&#x25cb;" horiz-adv-x="600" 
d="M191.5 63q-48.5 28 -76.5 77t-28 110t28 110t76.5 77t108.5 28t108.5 -28t76.5 -77t28 -110t-28 -110t-76.5 -77t-108.5 -28t-108.5 28zM400 75q45 26 71 72t26 103t-26 103t-71 72t-100 26t-100 -26t-71 -72t-26 -103t26 -103t71 -72t100 -26t100 26z" />
    <glyph glyph-name="uni25C6" unicode="&#x25c6;" horiz-adv-x="600" 
d="M43 251l257 257l257 -257l-257 -257z" />
    <glyph glyph-name="uni25C7" unicode="&#x25c7;" horiz-adv-x="600" 
d="M43 251l257 257l257 -257l-257 -257zM529 251l-229 229l-229 -229l229 -229z" />
    <glyph glyph-name="lozenge" unicode="&#x25ca;" horiz-adv-x="474" 
d="M434 330l-186 -330h-23l-184 330l184 330h23zM416 330l-179 318l-178 -318l178 -318z" />
    <glyph glyph-name="uni25AA" unicode="&#x25aa;" horiz-adv-x="600" 
d="M505 455v-410h-410v410h410z" />
    <glyph glyph-name="uni25AB" unicode="&#x25ab;" horiz-adv-x="600" 
d="M95 455h410v-410h-410v410zM489 60v380h-378v-380h378z" />
    <glyph glyph-name="uni25CF.case" horiz-adv-x="660" 
d="M199.5 108q-58.5 33 -91.5 91.5t-33 130.5t33 130.5t91.5 91.5t130.5 33t130.5 -33t91.5 -91.5t33 -130.5t-33 -130.5t-91.5 -91.5t-130.5 -33t-130.5 33z" />
    <glyph glyph-name="circle.case" horiz-adv-x="660" 
d="M199.5 108q-58.5 33 -91.5 91.5t-33 130.5t33 130.5t91.5 91.5t130.5 33t130.5 -33t91.5 -91.5t33 -130.5t-33 -130.5t-91.5 -91.5t-130.5 -33t-130.5 33zM452.5 120.5q54.5 31.5 85.5 86.5t31 123t-31 123t-85.5 86.5t-122.5 31.5t-122.5 -31.5t-85.5 -86.5t-31 -123
t31 -123t85.5 -86.5t122.5 -31.5t122.5 31.5z" />
    <glyph glyph-name="uni25C6.case" horiz-adv-x="660" 
d="M45 330l285 285l285 -285l-285 -285z" />
    <glyph glyph-name="uni25C7.case" horiz-adv-x="660" 
d="M45 330l285 285l285 -285l-285 -285zM590 330l-260 260l-260 -260l260 -260z" />
    <glyph glyph-name="uni25AA.case" horiz-adv-x="660" 
d="M560 560v-460h-460v460h460z" />
    <glyph glyph-name="uni25AB.case" horiz-adv-x="660" 
d="M104 556h452v-452h-452v452zM540 119v422h-420v-422h420z" />
    <glyph glyph-name="uni275B" unicode="&#x275b;" horiz-adv-x="673" 
d="M581 641q-45 4 -95 4q-152 0 -239.5 -46t-123 -110t-50.5 -143l8 -5q89 131 282 131q77 0 139.5 -26.5t98.5 -79.5t36 -130q0 -122 -72.5 -184t-214.5 -62q-104 0 -171 37.5t-98.5 100.5t-31.5 142q0 166 92 280t342 114q24 0 86 -4z" />
    <glyph glyph-name="uni275C" unicode="&#x275c;" horiz-adv-x="673" 
d="M92 -111q45 -4 95 -4q152 0 239.5 46t123 110t50.5 143l-8 5q-89 -131 -282 -131q-77 0 -139.5 26.5t-98.5 79.5t-36 130q0 122 72.5 184t214.5 62q104 0 171 -37.5t98.5 -100.5t31.5 -142q0 -166 -92 -280t-342 -114q-24 0 -86 4z" />
    <glyph glyph-name="uni275D" unicode="&#x275d;" horiz-adv-x="1216" 
d="M1045.5 445.5q62.5 -26.5 98.5 -79.5t36 -130q0 -122 -72.5 -184t-214.5 -62q-105 0 -172.5 38t-99.5 105q-54 -143 -271 -143q-104 0 -171 37.5t-98.5 100.5t-31.5 142q0 166 92 280t342 114q24 0 86 -4l12 -19q-45 4 -95 4q-152 0 -239.5 -46t-123 -110t-50.5 -143
l8 -5q89 131 282 131q78 0 140 -26.5t97 -77.5q50 296 426 296q24 0 86 -4l12 -19q-45 4 -95 4q-152 0 -239.5 -46t-123 -110t-50.5 -143l8 -5q89 131 282 131q77 0 139.5 -26.5z" />
    <glyph glyph-name="uni275E" unicode="&#x275e;" horiz-adv-x="1216" 
d="M1037 502.5q67 -37.5 98.5 -100.5t31.5 -142q0 -166 -92 -280t-342 -114q-24 0 -86 4l-12 19q45 -4 95 -4q152 0 239.5 46t123 110t50.5 143l-8 5q-89 -131 -282 -131q-78 0 -140 26.5t-97 77.5q-50 -296 -426 -296q-24 0 -86 4l-12 19q45 -4 95 -4q152 0 239.5 46
t123 110t50.5 143l-8 5q-89 -131 -282 -131q-77 0 -139.5 26.5t-98.5 79.5t-36 130q0 122 72.5 184t214.5 62q105 0 172.5 -38t99.5 -105q54 143 271 143q104 0 171 -37.5z" />
    </font>
</defs>
</svg>
